<svg width="151" height="56" viewBox="0 0 151 56" fill="none" xmlns="http://www.w3.org/2000/svg">
<path d="M25.3446 33.5559C25.3446 36.0105 23.349 38.0004 20.8873 38.0004C18.4256 38.0004 16.4301 36.0105 16.4301 33.5559C16.4301 31.1013 18.4256 29.1115 20.8873 29.1115C23.349 29.1115 25.3446 31.1013 25.3446 33.5559Z" fill="url(#paint0_linear_20_1317)"/>
<path d="M36.4878 33.5559C36.4878 36.0105 34.4922 38.0004 32.0305 38.0004C29.5688 38.0004 27.5732 36.0105 27.5732 33.5559C27.5732 31.1013 29.5688 29.1115 32.0305 29.1115C34.4922 29.1115 36.4878 31.1013 36.4878 33.5559Z" fill="url(#paint1_linear_20_1317)"/>
<path d="M36.4878 22.4448C36.4878 24.8994 34.4922 26.8893 32.0305 26.8893C29.5688 26.8893 27.5732 24.8994 27.5732 22.4448C27.5732 19.9902 29.5688 18.0004 32.0305 18.0004C34.4922 18.0004 36.4878 19.9902 36.4878 22.4448Z" fill="url(#paint2_linear_20_1317)"/>
<path d="M59.5005 25.3596C59.5005 24.8725 59.327 24.4768 58.9801 24.1724C58.6482 23.8679 58.2031 23.7157 57.6449 23.7157C57.0716 23.7157 56.6039 23.8679 56.2419 24.1724C55.8949 24.4616 55.6837 24.8497 55.6082 25.3367H51.7386C51.8442 23.8451 52.4325 22.6198 53.5037 21.6609C54.5748 20.702 55.9854 20.2226 57.7354 20.2226C59.5307 20.2226 60.9488 20.6944 61.9898 21.6381C63.0308 22.5818 63.5512 23.769 63.5512 25.1998C63.5512 26.2043 63.3174 27.0795 62.8497 27.8253C62.382 28.5559 61.7032 29.3093 60.8131 30.0856L57.3281 33.0993H63.7775V36.5925H51.8744V33.3276L57.9165 27.9167C58.4596 27.4296 58.8594 26.9958 59.1158 26.6153C59.3723 26.2348 59.5005 25.8162 59.5005 25.3596Z" fill="url(#paint3_linear_20_1317)"/>
<path d="M49.5888 20.5194V36.5925H45.4023V20.5194H49.5888Z" fill="url(#paint4_linear_20_1317)"/>
<path d="M64.8817 25.1084C65.0175 23.632 65.6586 22.4524 66.8052 21.5696C67.9518 20.6716 69.3322 20.2226 70.9464 20.2226C72.6663 20.2226 74.0467 20.6488 75.0877 21.5011C76.1437 22.3383 76.6717 23.3961 76.6717 24.6746C76.6717 25.5574 76.4454 26.2956 75.9928 26.8893C75.5553 27.4676 75.0122 27.8862 74.3635 28.145C75.1178 28.3581 75.7816 28.7918 76.3549 29.4463C76.9433 30.0856 77.2375 30.938 77.2375 32.0034C77.2375 33.4494 76.6642 34.629 75.5176 35.5422C74.371 36.4402 72.885 36.8893 71.0596 36.8893C69.2945 36.8893 67.8235 36.4326 66.6468 35.5194C65.4851 34.5909 64.8515 33.3581 64.7459 31.8208H68.6382C68.7438 32.2926 69.0078 32.6807 69.4302 32.9851C69.8527 33.2896 70.3958 33.4418 71.0596 33.4418C71.6781 33.4418 72.1911 33.2896 72.5984 32.9851C73.0057 32.6655 73.2094 32.2393 73.2094 31.7066C73.2094 31.1739 72.9982 30.7705 72.5758 30.4966C72.1684 30.2074 71.6178 30.0628 70.9238 30.0628H69.2492V26.7751H70.607C71.2406 26.7751 71.7385 26.6381 72.1005 26.3641C72.4777 26.0749 72.6663 25.6868 72.6663 25.1998C72.6663 24.7431 72.4928 24.3778 72.1458 24.1039C71.7988 23.8147 71.3462 23.6701 70.788 23.6701C70.2298 23.6701 69.7697 23.8071 69.4076 24.081C69.0606 24.355 68.8494 24.6975 68.774 25.1084H64.8817Z" fill="url(#paint5_linear_20_1317)"/>
<path d="M101.041 20.5194C102.881 20.5194 104.322 21.0369 105.363 22.0719C106.419 23.0917 106.947 24.4235 106.947 26.0673C106.947 27.6807 106.411 29.0126 105.34 30.0628C104.284 31.0978 102.881 31.6153 101.131 31.6153H98.8002V36.5925H94.7495V20.5194H101.041ZM100.678 23.9897H98.8002V28.145H100.678C101.342 28.145 101.87 27.9547 102.263 27.5742C102.655 27.1785 102.851 26.6762 102.851 26.0673C102.851 25.4433 102.655 24.941 102.263 24.5605C101.885 24.18 101.357 23.9897 100.678 23.9897Z" fill="url(#paint6_linear_20_1317)"/>
<path d="M114.935 20.5194C116.776 20.5194 118.216 21.0369 119.257 22.0719C120.313 23.0917 120.841 24.4235 120.841 26.0673C120.841 27.6807 120.306 29.0126 119.235 30.0628C118.179 31.0978 116.776 31.6153 115.026 31.6153H112.695V36.5925H108.644V20.5194H114.935ZM114.573 23.9897H112.695V28.145H114.573C115.237 28.145 115.765 27.9547 116.157 27.5742C116.549 27.1785 116.746 26.6762 116.746 26.0673C116.746 25.4433 116.549 24.941 116.157 24.5605C115.78 24.18 115.252 23.9897 114.573 23.9897Z" fill="url(#paint7_linear_20_1317)"/>
<path d="M121.739 31.7979H125.79C125.896 32.3002 126.16 32.7112 126.582 33.0308C127.004 33.3352 127.578 33.4874 128.302 33.4874C128.981 33.4874 129.509 33.3428 129.886 33.0536C130.263 32.7492 130.452 32.3611 130.452 31.8893C130.452 31.0978 129.909 30.6183 128.822 30.4509L126.424 30.0856C123.406 29.6138 121.898 28.0689 121.898 25.4509C121.898 23.9288 122.471 22.6807 123.618 21.7066C124.764 20.7173 126.228 20.2226 128.008 20.2226C129.788 20.2226 131.236 20.664 132.353 21.5468C133.484 22.4296 134.148 23.6396 134.344 25.1769H130.339C130.052 24.1571 129.275 23.6472 128.008 23.6472C127.419 23.6472 126.937 23.7842 126.559 24.0582C126.182 24.3322 125.994 24.6975 125.994 25.1541C125.994 25.8695 126.522 26.3033 127.578 26.4555L129.909 26.7979C131.357 27.011 132.488 27.5209 133.303 28.3276C134.133 29.1191 134.548 30.1998 134.548 31.5696C134.548 33.1982 133.997 34.492 132.896 35.4509C131.794 36.4098 130.263 36.8893 128.302 36.8893C126.461 36.8893 124.953 36.4326 123.776 35.5194C122.599 34.5909 121.92 33.3504 121.739 31.7979Z" fill="url(#paint8_linear_20_1317)"/>
<path fill-rule="evenodd" clip-rule="evenodd" d="M83.0077 31.6149V36.5941H78.9343V26.8564C78.9343 23.1997 81.8725 20.2354 85.4969 20.2354H85.7606C89.385 20.2354 92.3232 23.1997 92.3232 26.8564V36.5941H88.2498V31.6149H83.0077ZM83.0077 26.8564C83.0077 25.4694 84.1221 24.345 85.4969 24.345H85.7606C87.1353 24.345 88.2498 25.4694 88.2498 26.8564V28.1477H83.0077V26.8564Z" fill="url(#paint9_linear_20_1317)"/>
<defs>
<linearGradient id="paint0_linear_20_1317" x1="75.4889" y1="18.0004" x2="75.4889" y2="38.0004" gradientUnits="userSpaceOnUse">
<stop stop-color="#05070B"/>
<stop offset="1" stop-color="#3B3B3E"/>
</linearGradient>
<linearGradient id="paint1_linear_20_1317" x1="75.4889" y1="18.0004" x2="75.4889" y2="38.0004" gradientUnits="userSpaceOnUse">
<stop stop-color="#05070B"/>
<stop offset="1" stop-color="#3B3B3E"/>
</linearGradient>
<linearGradient id="paint2_linear_20_1317" x1="75.4889" y1="18.0004" x2="75.4889" y2="38.0004" gradientUnits="userSpaceOnUse">
<stop stop-color="#05070B"/>
<stop offset="1" stop-color="#3B3B3E"/>
</linearGradient>
<linearGradient id="paint3_linear_20_1317" x1="75.4889" y1="18.0004" x2="75.4889" y2="38.0004" gradientUnits="userSpaceOnUse">
<stop stop-color="#05070B"/>
<stop offset="1" stop-color="#3B3B3E"/>
</linearGradient>
<linearGradient id="paint4_linear_20_1317" x1="75.4889" y1="18.0004" x2="75.4889" y2="38.0004" gradientUnits="userSpaceOnUse">
<stop stop-color="#05070B"/>
<stop offset="1" stop-color="#3B3B3E"/>
</linearGradient>
<linearGradient id="paint5_linear_20_1317" x1="75.4889" y1="18.0004" x2="75.4889" y2="38.0004" gradientUnits="userSpaceOnUse">
<stop stop-color="#05070B"/>
<stop offset="1" stop-color="#3B3B3E"/>
</linearGradient>
<linearGradient id="paint6_linear_20_1317" x1="75.4889" y1="18.0004" x2="75.4889" y2="38.0004" gradientUnits="userSpaceOnUse">
<stop stop-color="#05070B"/>
<stop offset="1" stop-color="#3B3B3E"/>
</linearGradient>
<linearGradient id="paint7_linear_20_1317" x1="75.4889" y1="18.0004" x2="75.4889" y2="38.0004" gradientUnits="userSpaceOnUse">
<stop stop-color="#05070B"/>
<stop offset="1" stop-color="#3B3B3E"/>
</linearGradient>
<linearGradient id="paint8_linear_20_1317" x1="75.4889" y1="18.0004" x2="75.4889" y2="38.0004" gradientUnits="userSpaceOnUse">
<stop stop-color="#05070B"/>
<stop offset="1" stop-color="#3B3B3E"/>
</linearGradient>
<linearGradient id="paint9_linear_20_1317" x1="75.4889" y1="18.0004" x2="75.4889" y2="38.0004" gradientUnits="userSpaceOnUse">
<stop stop-color="#05070B"/>
<stop offset="1" stop-color="#3B3B3E"/>
</linearGradient>
</defs>
</svg>
