<svg width="150" height="56" viewBox="0 0 150 56" fill="none" xmlns="http://www.w3.org/2000/svg">
<path d="M24.9056 31.5555C24.9056 34.0101 22.912 36 20.4528 36C17.9935 36 16 34.0101 16 31.5555C16 29.1009 17.9935 27.1111 20.4528 27.1111C22.912 27.1111 24.9056 29.1009 24.9056 31.5555Z" fill="url(#paint0_linear_2016_288)"/>
<path d="M36.0377 31.5555C36.0377 34.0101 34.0441 36 31.5848 36C29.1256 36 27.132 34.0101 27.132 31.5555C27.132 29.1009 29.1256 27.1111 31.5848 27.1111C34.0441 27.1111 36.0377 29.1009 36.0377 31.5555Z" fill="url(#paint1_linear_2016_288)"/>
<path d="M36.0377 20.4444C36.0377 22.899 34.0441 24.8889 31.5848 24.8889C29.1256 24.8889 27.132 22.899 27.132 20.4444C27.132 17.9898 29.1256 16 31.5848 16C34.0441 16 36.0377 17.9898 36.0377 20.4444Z" fill="url(#paint2_linear_2016_288)"/>
<path d="M59.0274 23.3592C59.0274 22.8721 58.8541 22.4764 58.5075 22.172C58.176 21.8675 57.7313 21.7153 57.1737 21.7153C56.6009 21.7153 56.1337 21.8675 55.7721 22.172C55.4254 22.4612 55.2144 22.8493 55.139 23.3363H51.2733C51.3788 21.8447 51.9665 20.6194 53.0366 19.6605C54.1066 18.7016 55.5158 18.2222 57.2641 18.2222C59.0576 18.2222 60.4743 18.694 61.5142 19.6377C62.5542 20.5814 63.0741 21.7686 63.0741 23.1994C63.0741 24.2039 62.8405 25.0791 62.3733 25.8249C61.906 26.5555 61.2279 27.3089 60.3387 28.0852L56.8572 31.0989H63.3001V34.5921H51.4089V31.3272L57.445 25.9163C57.9875 25.4292 58.3869 24.9954 58.6431 24.6149C58.8993 24.2344 59.0274 23.8158 59.0274 23.3592Z" fill="url(#paint3_linear_2016_288)"/>
<path d="M49.1256 18.519V34.5921H44.9433V18.519H49.1256Z" fill="url(#paint4_linear_2016_288)"/>
<path d="M64.4032 23.108C64.5389 21.6316 65.1794 20.452 66.3248 19.5692C67.4703 18.6712 68.8493 18.2222 70.4619 18.2222C72.1801 18.2222 73.5591 18.6484 74.599 19.5007C75.654 20.3379 76.1815 21.3957 76.1815 22.6742C76.1815 23.557 75.9554 24.2952 75.5032 24.8889C75.0662 25.4672 74.5236 25.8858 73.8756 26.1446C74.6291 26.3577 75.2923 26.7914 75.865 27.4459C76.4528 28.0852 76.7467 28.9376 76.7467 30.003C76.7467 31.449 76.174 32.6286 75.0285 33.5418C73.8831 34.4398 72.3985 34.8889 70.575 34.8889C68.8116 34.8889 67.3421 34.4322 66.1666 33.519C65.006 32.5905 64.3731 31.3577 64.2676 29.8204H68.156C68.2615 30.2922 68.5252 30.6803 68.9472 30.9847C69.3693 31.2892 69.9118 31.4414 70.575 31.4414C71.1929 31.4414 71.7053 31.2892 72.1122 30.9847C72.5191 30.6651 72.7226 30.2389 72.7226 29.7062C72.7226 29.1735 72.5116 28.7701 72.0897 28.4962C71.6827 28.207 71.1326 28.0624 70.4393 28.0624H68.7664V24.7747H70.1228C70.7558 24.7747 71.2532 24.6377 71.6148 24.3637C71.9917 24.0745 72.1801 23.6864 72.1801 23.1994C72.1801 22.7427 72.0067 22.3774 71.6601 22.1035C71.3134 21.8143 70.8613 21.6697 70.3036 21.6697C69.746 21.6697 69.2864 21.8067 68.9246 22.0806C68.578 22.3546 68.367 22.6971 68.2917 23.108H64.4032Z" fill="url(#paint5_linear_2016_288)"/>
<path d="M100.526 18.519C102.365 18.519 103.804 19.0365 104.844 20.0715C105.899 21.0913 106.427 22.4231 106.427 24.0669C106.427 25.6803 105.891 27.0122 104.821 28.0624C103.766 29.0974 102.365 29.6149 100.616 29.6149H98.2879V34.5921H94.2412V18.519H100.526ZM100.164 21.9893H98.2879V26.1446H100.164C100.827 26.1446 101.355 25.9543 101.747 25.5738C102.139 25.1781 102.335 24.6758 102.335 24.0669C102.335 23.4429 102.139 22.9406 101.747 22.5601C101.37 22.1796 100.842 21.9893 100.164 21.9893Z" fill="url(#paint6_linear_2016_288)"/>
<path d="M114.407 18.519C116.246 18.519 117.684 19.0365 118.724 20.0715C119.779 21.0913 120.307 22.4231 120.307 24.0669C120.307 25.6803 119.772 27.0122 118.702 28.0624C117.647 29.0974 116.246 29.6149 114.497 29.6149H112.169V34.5921H108.122V18.519H114.407ZM114.045 21.9893H112.169V26.1446H114.045C114.708 26.1446 115.236 25.9543 115.627 25.5738C116.019 25.1781 116.216 24.6758 116.216 24.0669C116.216 23.4429 116.019 22.9406 115.627 22.5601C115.251 22.1796 114.723 21.9893 114.045 21.9893Z" fill="url(#paint7_linear_2016_288)"/>
<path d="M121.204 29.7975H125.251C125.357 30.2998 125.62 30.7108 126.042 31.0304C126.464 31.3348 127.037 31.487 127.76 31.487C128.439 31.487 128.966 31.3424 129.343 31.0532C129.719 30.7488 129.908 30.3607 129.908 29.8889C129.908 29.0974 129.366 28.6179 128.28 28.4505L125.884 28.0852C122.869 27.6134 121.363 26.0685 121.363 23.4505C121.363 21.9284 121.935 20.6803 123.081 19.7062C124.226 18.7169 125.688 18.2222 127.467 18.2222C129.245 18.2222 130.691 18.6636 131.807 19.5464C132.937 20.4292 133.6 21.6392 133.796 23.1765H129.795C129.508 22.1567 128.732 21.6468 127.467 21.6468C126.878 21.6468 126.397 21.7838 126.019 22.0578C125.642 22.3318 125.455 22.6971 125.455 23.1537C125.455 23.8691 125.982 24.3029 127.037 24.4551L129.366 24.7975C130.812 25.0106 131.942 25.5205 132.756 26.3272C133.585 27.1187 134 28.1994 134 29.5692C134 31.1978 133.45 32.4916 132.35 33.4505C131.249 34.4094 129.719 34.8889 127.76 34.8889C125.921 34.8889 124.415 34.4322 123.239 33.519C122.063 32.5905 121.385 31.35 121.204 29.7975Z" fill="url(#paint8_linear_2016_288)"/>
<path fill-rule="evenodd" clip-rule="evenodd" d="M82.5111 29.6145V34.5937H78.4418V24.856C78.4418 21.1993 81.3771 18.235 84.9979 18.235H85.2613C88.8821 18.235 91.8173 21.1993 91.8173 24.856V34.5937H87.748V29.6145H82.5111ZM82.5111 24.856C82.5111 23.469 83.6244 22.3446 84.9979 22.3446H85.2613C86.6346 22.3446 87.748 23.469 87.748 24.856V26.1473H82.5111V24.856Z" fill="url(#paint9_linear_2016_288)"/>
<defs>
<linearGradient id="paint0_linear_2016_288" x1="75" y1="16" x2="75" y2="36" gradientUnits="userSpaceOnUse">
<stop stop-color="#05070B"/>
<stop offset="1" stop-color="#3B3B3E"/>
</linearGradient>
<linearGradient id="paint1_linear_2016_288" x1="650.246" y1="-8.99994" x2="650.246" y2="36" gradientUnits="userSpaceOnUse">
<stop stop-color="#05070B"/>
<stop offset="1" stop-color="#3B3B3E"/>
</linearGradient>
<linearGradient id="paint2_linear_2016_288" x1="650.246" y1="16" x2="650.246" y2="60.9999" gradientUnits="userSpaceOnUse">
<stop stop-color="#05070B"/>
<stop offset="1" stop-color="#3B3B3E"/>
</linearGradient>
<linearGradient id="paint3_linear_2016_288" x1="248.79" y1="13.285" x2="248.79" y2="37.7201" gradientUnits="userSpaceOnUse">
<stop stop-color="#05070B"/>
<stop offset="1" stop-color="#3B3B3E"/>
</linearGradient>
<linearGradient id="paint4_linear_2016_288" x1="864.016" y1="12.8656" x2="864.016" y2="37.7519" gradientUnits="userSpaceOnUse">
<stop stop-color="#05070B"/>
<stop offset="1" stop-color="#3B3B3E"/>
</linearGradient>
<linearGradient id="paint5_linear_2016_288" x1="117.482" y1="13.3334" x2="117.482" y2="37.3333" gradientUnits="userSpaceOnUse">
<stop stop-color="#05070B"/>
<stop offset="1" stop-color="#3B3B3E"/>
</linearGradient>
<linearGradient id="paint6_linear_2016_288" x1="75" y1="16" x2="75" y2="36" gradientUnits="userSpaceOnUse">
<stop stop-color="#05070B"/>
<stop offset="1" stop-color="#3B3B3E"/>
</linearGradient>
<linearGradient id="paint7_linear_2016_288" x1="75" y1="16" x2="75" y2="36" gradientUnits="userSpaceOnUse">
<stop stop-color="#05070B"/>
<stop offset="1" stop-color="#3B3B3E"/>
</linearGradient>
<linearGradient id="paint8_linear_2016_288" x1="75" y1="16" x2="75" y2="36" gradientUnits="userSpaceOnUse">
<stop stop-color="#05070B"/>
<stop offset="1" stop-color="#3B3B3E"/>
</linearGradient>
<linearGradient id="paint9_linear_2016_288" x1="75" y1="16" x2="75" y2="36" gradientUnits="userSpaceOnUse">
<stop stop-color="#05070B"/>
<stop offset="1" stop-color="#3B3B3E"/>
</linearGradient>
</defs>
</svg>
