<svg width="146" height="56" viewBox="0 0 146 56" fill="none" xmlns="http://www.w3.org/2000/svg">
<path d="M47.9749 36.6255C47.9497 37.1622 47.9032 37.7001 47.8069 38.2291C47.6797 38.93 47.4722 39.5827 47.1436 40.2196C46.8217 40.8447 46.4011 41.4168 45.899 41.913C45.397 42.4092 44.8173 42.8254 44.1847 43.1435C43.5409 43.4678 42.8814 43.6732 42.1724 43.7989C41.4739 43.9229 40.7616 43.9647 40.0555 43.9834L37.9278 44L24.4392 43.9922C24.2236 43.99 24.0896 43.9871 23.9556 43.9834C23.2494 43.9647 22.5362 43.9229 21.8378 43.7989C21.129 43.6732 20.4699 43.4676 19.8264 43.1435C19.1933 42.8254 18.614 42.4091 18.112 41.913C17.9216 41.7248 17.7418 41.5261 17.5757 41.3172L47.9749 36.6255Z" fill="url(#paint0_linear_2016_278)"/>
<path d="M25.208 19.9634C23.7836 21.5421 22.9574 23.5902 22.9573 25.7342C22.9573 27.4677 23.3355 29.2494 24.1891 31.0735L24.6209 31.9963H25.6407C27.4222 31.9964 28.3186 32.6148 28.8361 33.2493C29.4068 33.964 29.6625 34.9082 29.7426 35.7349V35.7779C29.8227 36.5725 29.8608 37.1434 29.8608 37.5221V37.7995L16.6867 39.8376C16.4608 39.3211 16.3056 38.7911 16.2032 38.2291C16.0777 37.5394 16.0366 36.8347 16.0176 36.1372C16.0087 35.817 16.0046 35.4966 16.0029 35.1762L16 34.6049V21.9635C16 21.5831 16.0001 21.2017 16.0029 20.8218C16.0046 20.5011 16.0087 20.181 16.0176 19.8608C16.0294 19.4274 16.0519 18.9914 16.0957 18.558L25.208 19.9634Z" fill="url(#paint1_linear_2016_278)"/>
<path d="M32.0588 18.5873C33.8992 18.5874 35.4941 19.1796 36.737 20.1236C36.9077 20.2516 37.0737 20.3907 37.2284 20.5347C37.2304 20.5367 37.2393 20.5445 37.244 20.5445C37.3988 20.6831 37.543 20.8327 37.6816 20.982C37.6924 20.9927 37.6974 20.9987 37.7081 21.0094C37.8467 21.1586 37.9751 21.3133 38.0978 21.4732C38.1032 21.4837 38.114 21.494 38.1193 21.5045C38.242 21.6698 38.3594 21.8358 38.4661 22.0065C39.1702 23.1158 39.5592 24.4068 39.5592 25.7294C39.5591 27.2173 39.2343 28.7694 38.4768 30.3907C34.0808 30.3907 32.9922 33.5378 32.7895 35.522L32.7787 35.6548C32.7094 36.3642 32.6664 36.9303 32.6557 37.3571L31.4658 37.5436V37.5055C31.4658 37.0575 31.4179 36.4281 31.3378 35.6177V35.5806C31.1458 33.6018 30.0844 30.3909 25.6407 30.3907V30.4015C24.8832 28.7748 24.5574 27.2281 24.5574 25.7402C24.5574 23.6387 25.5334 21.6224 27.1871 20.273C27.8486 19.7343 28.6283 19.3026 29.4926 19.0092C30.2767 18.7426 31.1359 18.5873 32.0588 18.5873Z" fill="url(#paint2_linear_2016_278)"/>
<path d="M48.0101 23.49V34.0346C48.0101 34.3581 48.0095 34.6815 48.0081 35.0053L34.2724 37.1276L34.2675 37.1217C34.2835 36.7804 34.3148 36.3485 34.3681 35.8208L34.3788 35.6978C34.4642 34.871 34.7263 33.9374 35.2971 33.2386C35.8146 32.6094 36.7113 32.0012 38.4768 32.0012H39.4957L39.9274 31.0793C40.781 29.25 41.1602 27.4735 41.1602 25.7402C41.1602 24.5507 40.904 23.3877 40.4345 22.321L48.0101 23.49Z" fill="url(#paint3_linear_2016_278)"/>
<path d="M39.5709 12.0059C39.7868 12.0081 39.9212 12.011 40.0555 12.0146C40.7616 12.0334 41.4739 12.0742 42.1724 12.1983C42.8814 12.324 43.5409 12.5303 44.1847 12.8545C44.8173 13.1727 45.397 13.5883 45.899 14.0851C46.4011 14.5807 46.8217 15.1528 47.1436 15.7786C47.4722 16.4154 47.6797 17.0672 47.8069 17.7679C47.9325 18.4582 47.9745 19.1628 47.9935 19.8608C48.0024 20.181 48.0065 20.5011 48.0081 20.8218L48.0101 21.3922V21.8727L39.3834 20.5396C37.7829 18.4329 35.201 16.9926 32.0588 16.9925C30.0208 16.9925 28.2221 17.5958 26.771 18.5932L16.3859 16.9876C16.5063 16.5735 16.6632 16.1731 16.8665 15.7786C17.1889 15.1528 17.6099 14.5807 18.112 14.0851C18.6141 13.5883 19.1932 13.1727 19.8264 12.8545C20.47 12.5305 21.1289 12.324 21.8378 12.1983C22.5362 12.0742 23.2494 12.0334 23.9556 12.0146L25.3242 12L39.5709 12.0059Z" fill="url(#paint4_linear_2016_278)"/>
<path d="M120.177 17.6863C125.79 17.6863 129.331 21.0311 129.978 25.4973H125.445C124.754 23.2751 122.811 21.7424 120.306 21.7422C116.529 21.7422 114.239 24.8495 114.239 27.9995C114.239 31.1712 116.593 34.2566 120.198 34.2567C122.681 34.2567 124.775 32.7249 125.467 30.5025H130C129.331 35.0336 125.79 38.3351 120.177 38.3136C113.959 38.3136 109.835 33.9761 109.835 27.9995C109.835 22.023 113.98 17.6863 120.177 17.6863Z" fill="url(#paint5_linear_2016_278)"/>
<path d="M64.5192 17.6863C69.247 17.6865 72.4424 20.405 72.4642 24.6985C72.4642 28.237 70.3044 30.2003 66.6342 31.9479C65.2526 32.5952 63.7418 33.3292 62.166 33.9764H72.6146V38.0323H56.0127V32.0993C59.2942 30.999 61.1079 30.3085 64.1519 28.8413C66.462 27.6978 67.908 26.7052 67.908 24.8928C67.908 23.1453 66.5916 21.7649 64.5192 21.7647C61.799 21.7647 60.4816 23.7493 60.5463 25.8206H56.0127C55.9694 20.6639 59.64 17.6863 64.5192 17.6863Z" fill="url(#paint6_linear_2016_278)"/>
<path d="M88.8716 22.0665H79.4801V38.0118H75.0978V18.0106H88.8716V22.0665Z" fill="url(#paint7_linear_2016_278)"/>
<path d="M95.4782 30.7828L103.617 18.0096H108V38.0108H103.617V25.2376L95.4353 38.0108H91.0745V18.0096H95.4567L95.4782 30.7828Z" fill="url(#paint8_linear_2016_278)"/>
<defs>
<linearGradient id="paint0_linear_2016_278" x1="223.846" y1="-94.8576" x2="223.846" y2="44" gradientUnits="userSpaceOnUse">
<stop stop-color="#05070B"/>
<stop offset="1" stop-color="#3B3B3E"/>
</linearGradient>
<linearGradient id="paint1_linear_2016_278" x1="484.804" y1="2.13812" x2="484.804" y2="50.2593" gradientUnits="userSpaceOnUse">
<stop stop-color="#05070B"/>
<stop offset="1" stop-color="#3B3B3E"/>
</linearGradient>
<linearGradient id="paint2_linear_2016_278" x1="384.118" y1="0.879972" x2="384.118" y2="54.899" gradientUnits="userSpaceOnUse">
<stop stop-color="#05070B"/>
<stop offset="1" stop-color="#3B3B3E"/>
</linearGradient>
<linearGradient id="paint3_linear_2016_278" x1="337.299" y1="-10.3056" x2="337.299" y2="58.8527" gradientUnits="userSpaceOnUse">
<stop stop-color="#05070B"/>
<stop offset="1" stop-color="#3B3B3E"/>
</linearGradient>
<linearGradient id="paint4_linear_2016_278" x1="220.084" y1="12" x2="220.084" y2="115.72" gradientUnits="userSpaceOnUse">
<stop stop-color="#05070B"/>
<stop offset="1" stop-color="#3B3B3E"/>
</linearGradient>
<linearGradient id="paint5_linear_2016_278" x1="-192.247" y1="3.1786" x2="-192.247" y2="52.8213" gradientUnits="userSpaceOnUse">
<stop stop-color="#05070B"/>
<stop offset="1" stop-color="#3B3B3E"/>
</linearGradient>
<linearGradient id="paint6_linear_2016_278" x1="132.646" y1="3.05658" x2="132.646" y2="53.3859" gradientUnits="userSpaceOnUse">
<stop stop-color="#05070B"/>
<stop offset="1" stop-color="#3B3B3E"/>
</linearGradient>
<linearGradient id="paint7_linear_2016_278" x1="73" y1="12" x2="73" y2="44" gradientUnits="userSpaceOnUse">
<stop stop-color="#05070B"/>
<stop offset="1" stop-color="#3B3B3E"/>
</linearGradient>
<linearGradient id="paint8_linear_2016_278" x1="73" y1="12" x2="73" y2="44" gradientUnits="userSpaceOnUse">
<stop stop-color="#05070B"/>
<stop offset="1" stop-color="#3B3B3E"/>
</linearGradient>
</defs>
</svg>
