<svg width="114" height="32" viewBox="0 0 114 32" fill="none" xmlns="http://www.w3.org/2000/svg">
<path d="M31.9648 24.624C31.9396 25.1606 31.8931 25.6985 31.7969 26.2275C31.6697 26.9283 31.4623 27.581 31.1338 28.2178C30.812 28.8429 30.3915 29.415 29.8896 29.9111C29.3877 30.4073 28.8082 30.8235 28.1758 31.1416C27.5322 31.4658 26.8729 31.6712 26.1641 31.7969C25.4659 31.9209 24.7538 31.9627 24.0479 31.9814L21.9209 31.998L8.43652 31.9902C8.22099 31.988 8.08703 31.9851 7.95312 31.9814C7.24707 31.9627 6.53418 31.9209 5.83594 31.7969C5.1274 31.6712 4.46853 31.4656 3.8252 31.1416C3.1923 30.8235 2.61321 30.4072 2.11133 29.9111C1.92095 29.7229 1.74123 29.5243 1.5752 29.3154L31.9648 24.624Z" fill="url(#paint0_linear_2011_285)"/>
<path d="M9.20508 7.96289C7.78117 9.54148 6.95516 11.5895 6.95508 13.7334C6.95508 15.4667 7.33323 17.2483 8.18652 19.0723L8.61816 19.9951H9.6377C11.4186 19.9952 12.3147 20.6135 12.832 21.248C13.4026 21.9626 13.6582 22.9068 13.7383 23.7334V23.7764C13.8183 24.571 13.8564 25.1418 13.8564 25.5205V25.7979L0.686523 27.8359C0.460612 27.3194 0.305521 26.7894 0.203125 26.2275C0.0776521 25.5378 0.0365394 24.8332 0.0175781 24.1357C0.00865739 23.8155 0.00460258 23.4951 0.00292969 23.1748L0 22.6035V9.96289C0 9.58247 0.000141167 9.20116 0.00292969 8.82129C0.00460247 8.50061 0.00866478 8.18048 0.0175781 7.86035C0.0293528 7.42693 0.0519019 6.99097 0.0957031 6.55762L9.20508 7.96289Z" fill="url(#paint1_linear_2011_285)"/>
<path d="M16.0537 6.58691C17.8935 6.587 19.4879 7.17916 20.7305 8.12305C20.9011 8.25105 21.067 8.39018 21.2217 8.53418C21.2237 8.53616 21.2326 8.54394 21.2373 8.54395C21.392 8.6826 21.5362 8.83213 21.6748 8.98145C21.6855 8.99211 21.6905 8.99812 21.7012 9.00879C21.8398 9.15807 21.9682 9.31271 22.0908 9.47266C22.0962 9.48314 22.107 9.49342 22.1123 9.50391C22.235 9.66924 22.3523 9.83519 22.459 10.0059C23.1629 11.1151 23.5518 12.406 23.5518 13.7285C23.5517 15.2164 23.227 16.7684 22.4697 18.3896C18.0751 18.3896 16.9868 21.5365 16.7842 23.5205L16.7734 23.6533C16.7041 24.3627 16.6611 24.9288 16.6504 25.3555L15.4609 25.542V25.5039C15.4609 25.0559 15.413 24.4266 15.333 23.6162V23.5791C15.141 21.6005 14.08 18.3898 9.6377 18.3896V18.4004C8.8804 16.7738 8.55472 15.2272 8.55469 13.7393C8.55469 11.638 9.53043 9.62179 11.1836 8.27246C11.8449 7.73379 12.6243 7.30212 13.4883 7.00879C14.2722 6.74215 15.1311 6.58691 16.0537 6.58691Z" fill="url(#paint2_linear_2011_285)"/>
<path d="M32 11.4893V22.0332C32 22.3567 31.9994 22.6801 31.998 23.0039L18.2666 25.126L18.2617 25.1201C18.2777 24.7789 18.309 24.347 18.3623 23.8193L18.373 23.6963C18.4584 22.8696 18.7204 21.936 19.291 21.2373C19.8084 20.6081 20.7048 20 22.4697 20H23.4883L23.9199 19.0781C24.7732 17.2489 25.1523 15.4725 25.1523 13.7393C25.1523 12.5499 24.8961 11.387 24.4268 10.3203L32 11.4893Z" fill="url(#paint3_linear_2011_285)"/>
<path d="M23.5635 0.00585938C23.7793 0.00808979 23.9136 0.0109997 24.0479 0.0146484C24.7538 0.0333942 25.4659 0.0742258 26.1641 0.198242C26.8729 0.323946 27.5322 0.530308 28.1758 0.854492C28.8082 1.1726 29.3877 1.58824 29.8896 2.08496C30.3915 2.58055 30.812 3.15265 31.1338 3.77832C31.4623 4.4151 31.6697 5.06685 31.7969 5.76758C31.9224 6.45785 31.9644 7.16236 31.9834 7.86035C31.9923 8.18048 31.9964 8.50061 31.998 8.82129L32 9.3916V9.87207L23.376 8.53906C21.776 6.43249 19.1949 4.99231 16.0537 4.99219C14.0164 4.99219 12.2182 5.59544 10.7676 6.59277L0.385742 4.9873C0.506116 4.57321 0.663035 4.17286 0.866211 3.77832C1.18856 3.15259 1.60942 2.58059 2.11133 2.08496C2.61324 1.58824 3.19223 1.1726 3.8252 0.854492C4.46861 0.530426 5.12731 0.323938 5.83594 0.198242C6.53418 0.0741921 7.24707 0.0333938 7.95312 0.0146484L9.32129 0L23.5635 0.00585938Z" fill="url(#paint4_linear_2011_285)"/>
<path d="M104.144 5.68598C109.755 5.68598 113.295 9.03051 113.942 13.4965H109.41C108.72 11.2744 106.777 9.74179 104.273 9.74165C100.497 9.74165 98.2082 12.8487 98.208 15.9985C98.208 19.17 100.561 22.2552 104.165 22.2553C106.647 22.2553 108.741 20.7236 109.432 18.5014H113.964C113.295 23.0322 109.755 26.3335 104.144 26.312C97.9278 26.312 93.8057 21.9747 93.8057 15.9985C93.8058 10.0224 97.9495 5.68599 104.144 5.68598Z" fill="url(#paint5_linear_2011_285)"/>
<path d="M48.5039 5.68598C53.2302 5.68616 56.4246 8.40451 56.4463 12.6977C56.4463 16.236 54.2872 18.1992 50.6182 19.9467C49.237 20.5939 47.7267 21.3279 46.1514 21.975H56.5967V26.0307H40V20.0981C43.2805 18.9978 45.0936 18.3074 48.1367 16.8403C50.446 15.6968 51.8916 14.7043 51.8916 12.892C51.8916 11.1446 50.5756 9.76432 48.5039 9.76411C45.7845 9.76411 44.4675 11.7486 44.5322 13.8198H40C39.9568 8.66335 43.6262 5.68598 48.5039 5.68598Z" fill="url(#paint6_linear_2011_285)"/>
<path d="M72.8486 10.0659H63.46V26.0102H59.0791V6.0102H72.8486V10.0659Z" fill="url(#paint7_linear_2011_285)"/>
<path d="M79.4531 18.7817L87.5898 6.00923H91.9707V26.0092H87.5898V13.2368L79.4102 26.0092H75.0508V6.00923H79.4316L79.4531 18.7817Z" fill="url(#paint8_linear_2011_285)"/>
<defs>
<linearGradient id="paint0_linear_2011_285" x1="56.9819" y1="0" x2="56.9819" y2="31.998" gradientUnits="userSpaceOnUse">
<stop stop-color="#05070B"/>
<stop offset="1" stop-color="#3B3B3E"/>
</linearGradient>
<linearGradient id="paint1_linear_2011_285" x1="56.9819" y1="0" x2="56.9819" y2="31.998" gradientUnits="userSpaceOnUse">
<stop stop-color="#05070B"/>
<stop offset="1" stop-color="#3B3B3E"/>
</linearGradient>
<linearGradient id="paint2_linear_2011_285" x1="56.9819" y1="0" x2="56.9819" y2="31.998" gradientUnits="userSpaceOnUse">
<stop stop-color="#05070B"/>
<stop offset="1" stop-color="#3B3B3E"/>
</linearGradient>
<linearGradient id="paint3_linear_2011_285" x1="56.9819" y1="0" x2="56.9819" y2="31.998" gradientUnits="userSpaceOnUse">
<stop stop-color="#05070B"/>
<stop offset="1" stop-color="#3B3B3E"/>
</linearGradient>
<linearGradient id="paint4_linear_2011_285" x1="56.9819" y1="0" x2="56.9819" y2="31.998" gradientUnits="userSpaceOnUse">
<stop stop-color="#05070B"/>
<stop offset="1" stop-color="#3B3B3E"/>
</linearGradient>
<linearGradient id="paint5_linear_2011_285" x1="56.9819" y1="0" x2="56.9819" y2="31.998" gradientUnits="userSpaceOnUse">
<stop stop-color="#05070B"/>
<stop offset="1" stop-color="#3B3B3E"/>
</linearGradient>
<linearGradient id="paint6_linear_2011_285" x1="56.9819" y1="0" x2="56.9819" y2="31.998" gradientUnits="userSpaceOnUse">
<stop stop-color="#05070B"/>
<stop offset="1" stop-color="#3B3B3E"/>
</linearGradient>
<linearGradient id="paint7_linear_2011_285" x1="56.9819" y1="0" x2="56.9819" y2="31.998" gradientUnits="userSpaceOnUse">
<stop stop-color="#05070B"/>
<stop offset="1" stop-color="#3B3B3E"/>
</linearGradient>
<linearGradient id="paint8_linear_2011_285" x1="56.9819" y1="0" x2="56.9819" y2="31.998" gradientUnits="userSpaceOnUse">
<stop stop-color="#05070B"/>
<stop offset="1" stop-color="#3B3B3E"/>
</linearGradient>
</defs>
</svg>
