<svg width="137" height="56" viewBox="0 0 137 56" fill="none" xmlns="http://www.w3.org/2000/svg">
<path d="M22.9298 26.6822C17.3116 26.6822 16 23.6658 16 21.4931V21.1057C16 18.892 17.2148 16 23.2749 16H23.8133C30.1081 16 30.9639 18.5321 31.0191 19.9711V19.985H26.9331C26.8641 19.7221 26.5052 18.6843 23.6064 18.6843C20.8456 18.6843 20.0586 19.8743 20.0586 21.2303V21.3826C20.0586 22.6971 21.0386 23.9839 23.5786 23.9839C26.229 23.9839 27.0848 23.0292 27.0848 22.6971H23.482V20.6908H31.0881V26.4883H28.6172C28.506 25.9977 28.3441 25.5201 28.1341 25.0632C27.7338 25.5059 26.45 26.6821 23.2473 26.6821L22.9298 26.6822ZM40.117 16C46.743 16 47.5988 19.1686 47.5988 21.1059V21.521C47.5988 23.4443 46.7568 26.6821 40.117 26.6821H39.4958C32.8421 26.6821 32.0001 23.4443 32.0001 21.521V21.1059C32.0001 19.1688 32.8421 16 39.4958 16H40.117ZM43.5404 21.2027C43.5404 20.1097 42.8364 18.7675 39.7995 18.7675C36.7074 18.7675 36.0586 20.1097 36.0586 21.2027V21.3688C36.0586 22.448 36.7626 23.9009 39.7995 23.9009C42.8364 23.9009 43.5404 22.5034 43.5404 21.3965V21.2027ZM20.2654 36.5822V39.8061H16.3451V29.5117H24.9039C28.7001 29.5117 29.7768 31.0198 29.7768 32.9155V33.1369C29.7768 35.0048 28.6586 36.5822 24.9039 36.5822H20.2654ZM20.2654 34.0086H24.4344C25.3317 34.0086 25.732 33.635 25.732 33.0677V33.0262C25.732 32.4312 25.3593 32.0853 24.4344 32.0853H20.2656L20.2654 34.0086ZM34.5813 39.8063H30.6607V29.5115H39.9924C42.9879 29.5115 44.3131 30.48 44.3131 32.1543V32.3065C44.3131 33.8008 43.0155 34.4237 42.2425 34.6035C43.5125 34.8941 44.3547 35.7243 44.3547 37.0526V38.5747C44.3547 39.2942 44.4513 39.5571 44.5479 39.7369V39.8061H40.5448C40.4481 39.6954 40.4205 39.5571 40.4205 39.2665V38.0627C40.4205 36.8866 39.8822 36.2778 38.3361 36.2778H34.5813V39.8063ZM34.5813 33.7872H39.0814C39.951 33.7872 40.2685 33.3998 40.2685 32.9016V32.8878C40.2685 32.4035 39.9648 32.0161 39.0814 32.0161H34.5813V33.7872ZM55.3159 38.1459H49.4492L48.6624 39.8063H44.6865L49.7664 29.5115H55.0397L60.4098 39.8063H56.1166L55.3159 38.1459ZM52.3343 32.0299L50.65 35.5721H54.0596L52.3343 32.0299ZM66.8157 40C60.5071 40 59.5546 36.7761 59.5546 34.8249V34.4237C59.5546 32.4589 60.4105 29.3178 66.8156 29.3178H67.3539C73.5935 29.3178 74.5047 32.1543 74.5047 33.4826V33.6625H70.4324C70.3496 33.3857 70.0321 32.0851 67.0504 32.0851C64.2206 32.0851 63.613 33.3442 63.613 34.4927V34.6587C63.613 35.7658 64.3032 37.2187 67.064 37.2187C70.0873 37.2187 70.391 35.7658 70.4462 35.5306H74.5046V35.752C74.5046 37.0941 73.5383 39.9998 67.3541 39.9998L66.8157 40ZM79.3784 32.3203H74.9473V29.5115H87.73V32.3203H83.299V39.8063H79.3786L79.3784 32.3203ZM92.6588 39.8063H88.7522V29.5115H92.6588V39.8063ZM100.9 40C94.5917 40 93.6392 36.7761 93.6392 34.8249V34.4237C93.6392 32.4589 94.4951 29.3178 100.9 29.3178H101.438C107.678 29.3178 108.589 32.1543 108.589 33.4826V33.6625H104.517C104.434 33.3857 104.117 32.0851 101.135 32.0851C98.3051 32.0851 97.6976 33.3442 97.6976 34.4927V34.6587C97.6976 35.7658 98.3878 37.2187 101.149 37.2187C104.172 37.2187 104.476 35.7658 104.531 35.5306H108.589V35.752C108.589 37.0941 107.623 39.9998 101.439 39.9998L100.9 40ZM120.89 29.5115V32.0297H113.394V33.3166H120.738V35.8212H113.394V37.2325H121V39.8061H109.529V29.5117L120.89 29.5115Z" fill="url(#paint0_linear_2014_296)"/>
<defs>
<linearGradient id="paint0_linear_2014_296" x1="68.5" y1="16" x2="68.5" y2="40" gradientUnits="userSpaceOnUse">
<stop stop-color="#05070B"/>
<stop offset="1" stop-color="#3B3B3E"/>
</linearGradient>
</defs>
</svg>
