<svg width="106" height="24" viewBox="0 0 106 24" fill="none" xmlns="http://www.w3.org/2000/svg">
<path d="M6.98522 10.6853C1.36697 10.6853 0.0554199 7.67607 0.0554199 5.50849V5.12198C0.0554199 2.9135 1.27017 0.0282898 7.33032 0.0282898H7.86867C14.1635 0.0282898 15.0193 2.55443 15.0745 3.99005V4.00385H10.9886C10.9195 3.74157 10.5606 2.70627 7.66179 2.70627C4.90098 2.70627 4.11398 3.89342 4.11398 5.24621V5.39823C4.11398 6.70961 5.09406 7.99339 7.634 7.99339C10.2844 7.99339 11.1402 7.04091 11.1402 6.70961H7.53738V4.70803H15.1436V10.4919H12.6726C12.5615 10.0025 12.3995 9.52596 12.1895 9.0701C11.7892 9.51183 10.5054 10.6852 7.30271 10.6852L6.98522 10.6853ZM24.1724 0.0282898C30.7984 0.0282898 31.6542 3.18941 31.6542 5.12215V5.53627C31.6542 7.45503 30.8122 10.6852 24.1724 10.6852H23.5513C16.8975 10.6852 16.0555 7.45503 16.0555 5.53627V5.12215C16.0555 3.18958 16.8975 0.0282898 23.5513 0.0282898H24.1724ZM27.5958 5.21878C27.5958 4.12826 26.8918 2.78927 23.8549 2.78927C20.7628 2.78927 20.1141 4.12826 20.1141 5.21878V5.38443C20.1141 6.46114 20.8181 7.91056 23.8549 7.91056C26.8918 7.91056 27.5958 6.51636 27.5958 5.41203V5.21878ZM4.32086 20.562V23.7783H0.400521V13.5081H8.95936C12.7555 13.5081 13.8322 15.0127 13.8322 16.9039V17.1248C13.8322 18.9883 12.7141 20.562 8.95936 20.562H4.32086ZM4.32086 17.9944H8.48985C9.38712 17.9944 9.78743 17.6217 9.78743 17.0557V17.0143C9.78743 16.4207 9.41472 16.0756 8.48985 16.0756H4.32104L4.32086 17.9944ZM18.6367 23.7785H14.7162V13.5079H24.0479C27.0433 13.5079 28.3685 14.4742 28.3685 16.1445V16.2963C28.3685 17.7872 27.0709 18.4085 26.2979 18.588C27.5679 18.8779 28.4101 19.7061 28.4101 21.0313V22.5497C28.4101 23.2675 28.5067 23.5298 28.6034 23.7093V23.7783H24.6002C24.5036 23.6679 24.476 23.5298 24.476 23.2399V22.039C24.476 20.8656 23.9376 20.2583 22.3915 20.2583H18.6367V23.7785ZM18.6367 17.7735H23.1368C24.0064 17.7735 24.3239 17.387 24.3239 16.8901V16.8763C24.3239 16.3931 24.0203 16.0066 23.1368 16.0066H18.6367V17.7735ZM39.3714 22.122H33.5047L32.7178 23.7785H28.7419L33.8218 13.5079H39.0951L44.4652 23.7785H40.172L39.3714 22.122ZM36.3897 16.0204L34.7054 19.5543H38.115L36.3897 16.0204ZM50.8712 23.9717C44.5625 23.9717 43.6101 20.7554 43.6101 18.8088V18.4085C43.6101 16.4484 44.4659 13.3147 50.871 13.3147H51.4093C57.6489 13.3147 58.5602 16.1445 58.5602 17.4697V17.6491H54.4878C54.405 17.3731 54.0875 16.0755 51.1058 16.0755C48.276 16.0755 47.6685 17.3316 47.6685 18.4774V18.643C47.6685 19.7475 48.3587 21.1969 51.1195 21.1969C54.1427 21.1969 54.4464 19.7475 54.5016 19.5128H58.56V19.7337C58.56 21.0727 57.5937 23.9715 51.4095 23.9715L50.8712 23.9717ZM63.4339 16.3101H59.0028V13.5079H71.7855V16.3101H67.3544V23.7785H63.434L63.4339 16.3101ZM76.7142 23.7785H72.8077V13.5079H76.7142V23.7785ZM84.9556 23.9717C78.6471 23.9717 77.6946 20.7554 77.6946 18.8088V18.4085C77.6946 16.4484 78.5505 13.3147 84.9556 13.3147H85.4939C91.7335 13.3147 92.6446 16.1445 92.6446 17.4697V17.6491H88.5724C88.4896 17.3731 88.1721 16.0755 85.1904 16.0755C82.3606 16.0755 81.753 17.3316 81.753 18.4774V18.643C81.753 19.7475 82.4432 21.1969 85.204 21.1969C88.2271 21.1969 88.531 19.7475 88.586 19.5128H92.6446V19.7337C92.6446 21.0727 91.6783 23.9715 85.4941 23.9715L84.9556 23.9717ZM104.945 13.5079V16.0203H97.4492V17.304H104.793V19.8027H97.4492V21.2107H105.055V23.7783H93.5839V13.5081L104.945 13.5079Z" fill="black"/>
</svg>
