<svg width="105" height="32" viewBox="0 0 105 32" fill="none" xmlns="http://www.w3.org/2000/svg">
<g clip-path="url(#clip0_2014_296)">
<path d="M6.9298 14.6571C1.31155 14.6571 0 11.6478 0 9.4802V9.09369C0 6.88521 1.21475 4 7.2749 4H7.81325C14.1081 4 14.9639 6.52614 15.0191 7.96176V7.97556H10.9331C10.8641 7.71328 10.5052 6.67798 7.60637 6.67798C4.84556 6.67798 4.05856 7.86513 4.05856 9.21792V9.36994C4.05856 10.6813 5.03864 11.9651 7.57858 11.9651C10.229 11.9651 11.0848 11.0126 11.0848 10.6813H7.48196V8.67974H15.0881V14.4636H12.6172C12.506 13.9742 12.3441 13.4977 12.1341 13.0418C11.7338 13.4835 10.45 14.6569 7.24729 14.6569L6.9298 14.6571ZM24.117 4C30.743 4 31.5988 7.16112 31.5988 9.09386V9.50798C31.5988 11.4267 30.7568 14.6569 24.117 14.6569H23.4958C16.8421 14.6569 16.0001 11.4267 16.0001 9.50798V9.09386C16.0001 7.16129 16.8421 4 23.4958 4H24.117ZM27.5404 9.19049C27.5404 8.09997 26.8364 6.76098 23.7995 6.76098C20.7074 6.76098 20.0586 8.09997 20.0586 9.19049V9.35614C20.0586 10.4328 20.7626 11.8823 23.7995 11.8823C26.8364 11.8823 27.5404 10.4881 27.5404 9.38374V9.19049ZM4.26544 24.5337V27.75H0.345101V17.4798H8.90394C12.7001 17.4798 13.7768 18.9844 13.7768 20.8756V21.0965C13.7768 22.96 12.6586 24.5337 8.90394 24.5337H4.26544ZM4.26544 21.9661H8.43443C9.3317 21.9661 9.73201 21.5934 9.73201 21.0274V20.986C9.73201 20.3925 9.3593 20.0474 8.43443 20.0474H4.26562L4.26544 21.9661ZM18.5813 27.7502H14.6607V17.4796H23.9924C26.9879 17.4796 28.3131 18.4459 28.3131 20.1162V20.268C28.3131 21.7589 27.0155 22.3802 26.2425 22.5597C27.5125 22.8496 28.3547 23.6778 28.3547 25.003V26.5214C28.3547 27.2393 28.4513 27.5015 28.5479 27.681V27.75H24.5448C24.4481 27.6396 24.4205 27.5015 24.4205 27.2116V26.0107C24.4205 24.8374 23.8822 24.23 22.3361 24.23H18.5813V27.7502ZM18.5813 21.7453H23.0814C23.951 21.7453 24.2685 21.3587 24.2685 20.8618V20.848C24.2685 20.3648 23.9648 19.9783 23.0814 19.9783H18.5813V21.7453ZM39.3159 26.0937H33.4492L32.6624 27.7502H28.6865L33.7664 17.4796H39.0397L44.4098 27.7502H40.1166L39.3159 26.0937ZM36.3343 19.9921L34.65 23.526H38.0596L36.3343 19.9921ZM50.8157 27.9434C44.5071 27.9434 43.5546 24.7271 43.5546 22.7806V22.3802C43.5546 20.4201 44.4105 17.2864 50.8156 17.2864H51.3539C57.5935 17.2864 58.5048 20.1162 58.5048 21.4414V21.6208H54.4324C54.3496 21.3448 54.0321 20.0472 51.0504 20.0472C48.2206 20.0472 47.613 21.3033 47.613 22.4491V22.6147C47.613 23.7192 48.3032 25.1686 51.064 25.1686C54.0873 25.1686 54.391 23.7192 54.4462 23.4846H58.5046V23.7054C58.5046 25.0444 57.5383 27.9433 51.3541 27.9433L50.8157 27.9434ZM63.3784 20.2819H58.9473V17.4796H71.73V20.2819H67.299V27.7502H63.3786L63.3784 20.2819ZM76.6588 27.7502H72.7522V17.4796H76.6588V27.7502ZM84.9001 27.9434C78.5917 27.9434 77.6392 24.7271 77.6392 22.7806V22.3802C77.6392 20.4201 78.4951 17.2864 84.9001 17.2864H85.4385C91.6781 17.2864 92.5891 20.1162 92.5891 21.4414V21.6208H88.517C88.4341 21.3448 88.1166 20.0472 85.135 20.0472C82.3051 20.0472 81.6976 21.3033 81.6976 22.4491V22.6147C81.6976 23.7192 82.3878 25.1686 85.1486 25.1686C88.1717 25.1686 88.4755 23.7192 88.5306 23.4846H92.5891V23.7054C92.5891 25.0444 91.6229 27.9433 85.4387 27.9433L84.9001 27.9434ZM104.89 17.4796V19.992H97.3938V21.2757H104.738V23.7744H97.3938V25.1825H105V27.75H93.5285V17.4798L104.89 17.4796Z" fill="url(#paint0_linear_2014_296)"/>
</g>
<defs>
<linearGradient id="paint0_linear_2014_296" x1="52.5" y1="4" x2="52.5" y2="27.9434" gradientUnits="userSpaceOnUse">
<stop stop-color="#05070B"/>
<stop offset="1" stop-color="#3B3B3E"/>
</linearGradient>
<clipPath id="clip0_2014_296">
<rect width="105" height="32" fill="white"/>
</clipPath>
</defs>
</svg>
