<svg width="122" height="56" viewBox="0 0 122 56" fill="none" xmlns="http://www.w3.org/2000/svg">
<path d="M54.5442 36.8556V33.5896H46.6916V33.5595C49.4662 32.3281 54.3086 30.2333 54.3086 25.8786C54.3086 22.4398 51.433 19.5004 47.3758 19.5004C43.315 19.5004 41.2396 22.2821 40.331 24.7936L43.3374 25.9649C44.0105 23.8701 45.2108 22.5937 47.4058 22.5937C49.3241 22.5937 50.9133 24.0166 50.7488 25.9086C50.5431 28.3413 47.9256 30.1132 45.5211 31.4347C43.6777 32.4407 40.8246 33.871 40.8246 33.871V36.8556H54.5442Z" fill="url(#paint0_linear_20_1278)"/>
<path d="M16.9639 20.1498V36.8556H20.5536V24.3169L25.7326 36.8556H28.4848L33.5666 24.3169V36.8556H37.2311V20.1498H31.9661L27.1012 32.1292L22.2064 20.1498H16.9639Z" fill="url(#paint1_linear_20_1278)"/>
<path d="M67.3927 19.7557C69.6737 19.7557 71.6255 20.6041 73.2409 22.3047C74.86 24.0016 75.6678 26.0738 75.6678 28.5177C75.6678 30.9804 74.86 33.0602 73.2409 34.7458C71.6218 36.4352 69.6737 37.276 67.3927 37.276C64.8648 37.276 62.9278 36.345 61.5742 34.4792V43.5004H57.9844V20.1874H61.5742V22.5862C62.9278 20.6979 64.8648 19.7557 67.3927 19.7557ZM63.0475 32.3394C64.0421 33.3492 65.291 33.8561 66.7943 33.8561C68.2976 33.8561 69.5465 33.353 70.5411 32.3394C71.5358 31.3295 72.0331 30.0569 72.0331 28.5252C72.0331 26.9936 71.5358 25.7247 70.5411 24.7111C69.5465 23.7012 68.2976 23.1944 66.7943 23.1944C65.291 23.1944 64.0421 23.7012 63.0475 24.7111C62.0528 25.7209 61.5555 26.9936 61.5555 28.5252C61.5555 30.0607 62.0528 31.3295 63.0475 32.3394Z" fill="url(#paint2_linear_20_1278)"/>
<path d="M82.4023 23.0217C83.3035 20.957 85.0011 19.9246 87.4878 19.9246V23.8214C86.123 23.7313 84.9338 24.0616 83.9205 24.8049C82.9071 25.5482 82.4023 26.7758 82.4023 28.4839V36.8556H78.8125V20.2249H82.4023V23.0217Z" fill="url(#paint3_linear_20_1278)"/>
<path d="M97.2101 37.2836C94.7794 37.2836 92.7117 36.4389 91.0066 34.7533C89.3051 33.0677 88.4526 30.9917 88.4526 28.5252C88.4526 26.0625 89.3051 23.9865 91.0066 22.2972C92.7079 20.6116 94.7757 19.7669 97.2101 19.7669C99.6631 19.7669 101.738 20.6116 103.429 22.2972C105.119 23.9828 105.964 26.0588 105.964 28.5252C105.964 30.9879 105.119 33.0639 103.429 34.7533C101.735 36.4426 99.6631 37.2836 97.2101 37.2836ZM93.5268 32.2906C94.5215 33.2892 95.7481 33.7885 97.2063 33.7885C98.6646 33.7885 99.8912 33.2892 100.886 32.2906C101.88 31.292 102.378 30.0381 102.378 28.529C102.378 27.0198 101.88 25.766 100.886 24.7674C99.8912 23.7688 98.6646 23.2695 97.2063 23.2695C95.7481 23.2695 94.5215 23.7688 93.5268 24.7674C92.5321 25.766 92.0348 27.0198 92.0348 28.529C92.0348 30.0381 92.5321 31.292 93.5268 32.2906Z" fill="url(#paint4_linear_20_1278)"/>
<defs>
<linearGradient id="paint0_linear_20_1278" x1="61.4639" y1="19.5004" x2="61.4639" y2="43.5004" gradientUnits="userSpaceOnUse">
<stop stop-color="#05070B"/>
<stop offset="1" stop-color="#3B3B3E"/>
</linearGradient>
<linearGradient id="paint1_linear_20_1278" x1="61.4639" y1="19.5004" x2="61.4639" y2="43.5004" gradientUnits="userSpaceOnUse">
<stop stop-color="#05070B"/>
<stop offset="1" stop-color="#3B3B3E"/>
</linearGradient>
<linearGradient id="paint2_linear_20_1278" x1="61.4639" y1="19.5004" x2="61.4639" y2="43.5004" gradientUnits="userSpaceOnUse">
<stop stop-color="#05070B"/>
<stop offset="1" stop-color="#3B3B3E"/>
</linearGradient>
<linearGradient id="paint3_linear_20_1278" x1="61.4639" y1="19.5004" x2="61.4639" y2="43.5004" gradientUnits="userSpaceOnUse">
<stop stop-color="#05070B"/>
<stop offset="1" stop-color="#3B3B3E"/>
</linearGradient>
<linearGradient id="paint4_linear_20_1278" x1="61.4639" y1="19.5004" x2="61.4639" y2="43.5004" gradientUnits="userSpaceOnUse">
<stop stop-color="#05070B"/>
<stop offset="1" stop-color="#3B3B3E"/>
</linearGradient>
</defs>
</svg>
