<svg width="121" height="56" viewBox="0 0 121 56" fill="none" xmlns="http://www.w3.org/2000/svg">
<path d="M53.5803 37.3552V34.0892H45.7277V34.0591C48.5023 32.8277 53.3447 30.7329 53.3447 26.3782C53.3447 22.9394 50.4691 20 46.4119 20C42.3511 20 40.2757 22.7817 39.3671 25.2932L42.3735 26.4645C43.0466 24.3697 44.2469 23.0933 46.4419 23.0933C48.3602 23.0933 49.9494 24.5162 49.7849 26.4082C49.5792 28.8409 46.9617 30.6128 44.5572 31.9343C42.7138 32.9403 39.8607 34.3706 39.8607 34.3706V37.3552H53.5803Z" fill="url(#paint0_linear_2016_272)"/>
<path d="M16 20.6494V37.3552H19.5897V24.8165L24.7687 37.3552H27.5209L32.6027 24.8165V37.3552H36.2672V20.6494H31.0022L26.1373 32.6288L21.2425 20.6494H16Z" fill="url(#paint1_linear_2016_272)"/>
<path d="M66.4288 20.2553C68.7098 20.2553 70.6616 21.1037 72.277 22.8043C73.8961 24.5012 74.7039 26.5734 74.7039 29.0173C74.7039 31.48 73.8961 33.5598 72.277 35.2454C70.6579 36.9348 68.7098 37.7756 66.4288 37.7756C63.9009 37.7756 61.9639 36.8446 60.6103 34.9788V44H57.0205V20.687H60.6103V23.0858C61.9639 21.1975 63.9009 20.2553 66.4288 20.2553ZM62.0836 32.839C63.0782 33.8488 64.3271 34.3557 65.8304 34.3557C67.3337 34.3557 68.5826 33.8526 69.5772 32.839C70.5719 31.8291 71.0692 30.5565 71.0692 29.0248C71.0692 27.4932 70.5719 26.2243 69.5772 25.2107C68.5826 24.2008 67.3337 23.694 65.8304 23.694C64.3271 23.694 63.0782 24.2008 62.0836 25.2107C61.0889 26.2205 60.5916 27.4932 60.5916 29.0248C60.5916 30.5603 61.0889 31.8291 62.0836 32.839Z" fill="url(#paint2_linear_2016_272)"/>
<path d="M81.4384 23.5213C82.3396 21.4566 84.0372 20.4242 86.5239 20.4242V24.321C85.1591 24.2309 83.9699 24.5612 82.9566 25.3045C81.9432 26.0478 81.4384 27.2754 81.4384 28.9835V37.3552H77.8486V20.7245H81.4384V23.5213Z" fill="url(#paint3_linear_2016_272)"/>
<path d="M96.2462 37.7832C93.8155 37.7832 91.7478 36.9385 90.0427 35.2529C88.3412 33.5673 87.4887 31.4913 87.4887 29.0248C87.4887 26.5621 88.3412 24.4861 90.0427 22.7968C91.744 21.1112 93.8118 20.2665 96.2462 20.2665C98.6992 20.2665 100.774 21.1112 102.465 22.7968C104.155 24.4824 105 26.5584 105 29.0248C105 31.4875 104.155 33.5635 102.465 35.2529C100.771 36.9422 98.6992 37.7832 96.2462 37.7832ZM92.5629 32.7902C93.5576 33.7888 94.7842 34.2881 96.2424 34.2881C97.7007 34.2881 98.9273 33.7888 99.9221 32.7902C100.916 31.7916 101.414 30.5377 101.414 29.0286C101.414 27.5194 100.916 26.2656 99.9221 25.267C98.9273 24.2684 97.7007 23.7691 96.2424 23.7691C94.7842 23.7691 93.5576 24.2684 92.5629 25.267C91.5682 26.2656 91.0709 27.5194 91.0709 29.0286C91.0709 30.5377 91.5682 31.7916 92.5629 32.7902Z" fill="url(#paint4_linear_2016_272)"/>
<defs>
<linearGradient id="paint0_linear_2016_272" x1="148.33" y1="20" x2="148.33" y2="53.1889" gradientUnits="userSpaceOnUse">
<stop stop-color="#05070B"/>
<stop offset="1" stop-color="#3B3B3E"/>
</linearGradient>
<linearGradient id="paint1_linear_2016_272" x1="211.414" y1="19.0671" x2="211.414" y2="53.5461" gradientUnits="userSpaceOnUse">
<stop stop-color="#05070B"/>
<stop offset="1" stop-color="#3B3B3E"/>
</linearGradient>
<linearGradient id="paint2_linear_2016_272" x1="33.5122" y1="19.742" x2="33.5122" y2="44" gradientUnits="userSpaceOnUse">
<stop stop-color="#05070B"/>
<stop offset="1" stop-color="#3B3B3E"/>
</linearGradient>
<linearGradient id="paint3_linear_2016_272" x1="-161.98" y1="19.3987" x2="-161.98" y2="53.4191" gradientUnits="userSpaceOnUse">
<stop stop-color="#05070B"/>
<stop offset="1" stop-color="#3B3B3E"/>
</linearGradient>
<linearGradient id="paint4_linear_2016_272" x1="60.5" y1="20" x2="60.5" y2="44" gradientUnits="userSpaceOnUse">
<stop stop-color="#05070B"/>
<stop offset="1" stop-color="#3B3B3E"/>
</linearGradient>
</defs>
</svg>
