<svg width="110" height="32" viewBox="0 0 110 32" fill="none" xmlns="http://www.w3.org/2000/svg">
<path d="M0 16C0 7.16344 7.16344 0 16 0C24.8366 0 32 7.16344 32 16C32 24.8366 24.8366 32 16 32C7.16344 32 0 24.8366 0 16Z" fill="url(#paint0_linear_2014_234)"/>
<path d="M12.975 12.6282C13.7358 13.8282 14.1472 15.1621 14.1755 16.521C14.2038 17.8798 13.8482 19.225 13.1377 20.4466L12.2147 20.069C12.8541 18.9697 13.1741 17.759 13.1487 16.536C13.1232 15.313 12.753 14.1125 12.0682 13.0325L12.975 12.6282Z" fill="url(#paint1_linear_2014_234)"/>
<path d="M16.8098 10.9179C17.8925 12.6255 18.4779 14.5237 18.5182 16.4574C18.5584 18.3911 18.0524 20.3053 17.0414 22.0436L16.1219 21.6675C17.0621 20.0509 17.5328 18.2707 17.4954 16.4724C17.4579 14.674 16.9135 12.9087 15.9066 11.3206L16.8098 10.9179Z" fill="url(#paint2_linear_2014_234)"/>
<path d="M21.1137 9C22.5572 11.2768 23.3378 13.8078 23.3914 16.3861C23.4453 18.9643 22.7704 21.5166 21.4225 23.8343L20.5468 23.4761C21.8274 21.2743 22.4683 18.8497 22.4173 16.4003C22.3663 13.951 21.6249 11.5465 20.2535 9.38356L21.1137 9Z" fill="url(#paint3_linear_2014_234)"/>
<path d="M10.012 16.5297C10.012 17.3614 9.3377 18.0357 8.50596 18.0357C7.67425 18.0357 7 17.3614 7 16.5297C7 15.698 7.67425 15.0237 8.50596 15.0237C9.3377 15.0237 10.012 15.698 10.012 16.5297Z" fill="url(#paint4_linear_2014_234)"/>
<path d="M42.8277 8.1484C41.2304 8.1484 40 6.90725 40 5.20202C40 3.4968 41.2196 2.26644 42.8169 2.26644C43.6911 2.26644 44.4142 2.63339 44.8135 3.29174H44.9214V0H45.8172V7.93255H44.9214V7.09073H44.8135C44.4142 7.75987 43.7126 8.1484 42.8277 8.1484ZM42.9248 7.33895C44.0904 7.33895 44.943 6.4 44.943 5.20202C44.943 4.00405 44.0904 3.07589 42.9248 3.07589C41.7484 3.07589 40.8958 4.00405 40.8958 5.20202C40.8958 6.42158 41.7592 7.33895 42.9248 7.33895Z" fill="url(#paint5_linear_2014_234)"/>
<path d="M50.1236 8.1484C48.4184 8.1484 47.188 6.88567 47.188 5.13727C47.188 3.47521 48.3968 2.26644 50.0804 2.26644C51.7425 2.26644 52.9405 3.47521 52.9405 5.14806C52.9405 5.25599 52.9405 5.3855 52.9297 5.50422H48.1054C48.2349 6.60506 49.0336 7.33895 50.1452 7.33895C50.9546 7.33895 51.6669 6.92884 52.0123 6.28128L52.757 6.65902C52.3145 7.58718 51.3324 8.1484 50.1236 8.1484ZM48.1162 4.71636H52.0015C51.8396 3.73423 51.0734 3.07589 50.0373 3.07589C49.0336 3.07589 48.2673 3.73423 48.1162 4.71636Z" fill="url(#paint6_linear_2014_234)"/>
<path d="M56.5535 8.1484C54.9885 8.1484 54.082 7.38212 54.082 6.08702H54.9454C54.9562 6.86408 55.5605 7.39292 56.5858 7.39292C57.4061 7.39292 57.9349 7.04755 57.9349 6.47555C57.9349 5.76324 57.1902 5.70927 56.37 5.60135C55.3555 5.48263 54.1791 5.21282 54.1791 3.97167C54.1791 2.914 55.0641 2.26644 56.37 2.26644C57.7298 2.26644 58.658 2.98954 58.658 4.11197H57.7838C57.773 3.44283 57.201 3.02192 56.3592 3.02192C55.5713 3.02192 55.0317 3.37808 55.0317 3.93929C55.0317 4.61922 55.7656 4.67319 56.575 4.77032C57.6003 4.89983 58.7767 5.15885 58.7767 6.46476C58.7767 7.53322 57.9457 8.1484 56.5535 8.1484Z" fill="url(#paint7_linear_2014_234)"/>
<path d="M60.7401 1.44621C60.3624 1.44621 60.0926 1.17639 60.0926 0.798651C60.0926 0.431703 60.3624 0.172681 60.7401 0.172681C61.1179 0.172681 61.3769 0.431703 61.3769 0.798651C61.3769 1.17639 61.1179 1.44621 60.7401 1.44621ZM61.1826 7.93255H60.2868V2.48229H61.1826V7.93255Z" fill="url(#paint8_linear_2014_234)"/>
<path d="M65.5637 10.6307C64.1606 10.6307 63.1245 9.95076 62.7576 8.81754L63.6534 8.48297C63.9448 9.32479 64.6355 9.82125 65.6068 9.82125C66.794 9.82125 67.5711 9.05497 67.5711 7.83541V7.10152H67.4632C66.9883 7.7059 66.3299 8.07285 65.4773 8.07285C63.8368 8.07285 62.6497 6.87487 62.6497 5.20202C62.6497 3.51838 63.8368 2.27723 65.4773 2.27723C66.3515 2.27723 67.0099 2.65497 67.4739 3.25936H67.5819V2.48229H68.4669V7.83541C68.4669 9.54064 67.3228 10.6307 65.5637 10.6307ZM65.5745 7.28499C66.7508 7.28499 67.6035 6.4 67.6035 5.20202C67.6035 3.97167 66.74 3.07589 65.5745 3.07589C64.3981 3.07589 63.5454 3.97167 63.5454 5.20202C63.5454 6.4 64.3981 7.28499 65.5745 7.28499Z" fill="url(#paint9_linear_2014_234)"/>
<path d="M71.0141 7.93255H70.1183V2.48229H71.0141V3.22698H71.122C71.5105 2.6226 72.1149 2.27723 72.838 2.27723C74.2195 2.27723 75.1045 3.29174 75.1045 4.67319V7.93255H74.2087V4.67319C74.2087 3.75582 73.6583 3.08668 72.7193 3.08668C71.8019 3.08668 71.0141 3.79899 71.0141 4.74873V7.93255Z" fill="url(#paint10_linear_2014_234)"/>
<path d="M41.1764 18.7251H40.2806V13.2749H41.144V13.998H41.2519C41.5541 13.4368 42.1261 13.059 42.8384 13.059C43.6047 13.059 44.3062 13.4799 44.6192 14.1167H44.7164C45.0941 13.4799 45.7201 13.0698 46.5403 13.0698C47.8246 13.0698 48.742 14.0627 48.742 15.4766V18.7251H47.8462V15.4658C47.8462 14.5376 47.2526 13.8685 46.4324 13.8685C45.5582 13.8685 44.943 14.5376 44.943 15.4658V18.7251H44.0472V15.4658C44.0472 14.5052 43.486 13.8685 42.6442 13.8685C41.7592 13.8685 41.1764 14.5052 41.1764 15.4658V18.7251Z" fill="url(#paint11_linear_2014_234)"/>
<path d="M51.815 18.8978C50.6386 18.8978 49.8616 18.2826 49.8616 17.3437C49.8616 16.3831 50.6818 15.6708 52.3007 15.4874L53.8116 15.3039V15.088C53.8116 14.3541 53.2828 13.8793 52.387 13.8793C51.5668 13.8793 51.0271 14.2786 51.0379 14.9585H50.1314C50.1314 13.8037 51.0271 13.0698 52.3978 13.0698C53.8116 13.0698 54.7074 13.8685 54.7074 15.1096V18.7251H53.8116V17.9265H53.7145C53.326 18.5524 52.6892 18.8978 51.815 18.8978ZM51.9445 18.1531C53.0562 18.1531 53.8116 17.4732 53.8116 16.5558V16.0702L52.3007 16.2428C51.189 16.3831 50.7573 16.8148 50.7573 17.3221C50.7573 17.8401 51.2106 18.1531 51.9445 18.1531Z" fill="url(#paint12_linear_2014_234)"/>
<path d="M57.1545 18.7251H56.2587V13.2749H57.1545V14.0196H57.2624C57.6509 13.4152 58.2553 13.0698 58.9784 13.0698C60.3599 13.0698 61.2449 14.0843 61.2449 15.4658V18.7251H60.3491V15.4658C60.3491 14.5484 59.7987 13.8793 58.8597 13.8793C57.9423 13.8793 57.1545 14.5916 57.1545 15.5413V18.7251Z" fill="url(#paint13_linear_2014_234)"/>
<path d="M64.315 18.8978C63.1386 18.8978 62.3616 18.2826 62.3616 17.3437C62.3616 16.3831 63.1818 15.6708 64.8007 15.4874L66.3116 15.3039V15.088C66.3116 14.3541 65.7828 13.8793 64.887 13.8793C64.0668 13.8793 63.5271 14.2786 63.5379 14.9585H62.6314C62.6314 13.8037 63.5271 13.0698 64.8978 13.0698C66.3116 13.0698 67.2074 13.8685 67.2074 15.1096V18.7251H66.3116V17.9265H66.2145C65.826 18.5524 65.1892 18.8978 64.315 18.8978ZM64.4445 18.1531C65.5562 18.1531 66.3116 17.4732 66.3116 16.5558V16.0702L64.8007 16.2428C63.689 16.3831 63.2573 16.8148 63.2573 17.3221C63.2573 17.8401 63.7106 18.1531 64.4445 18.1531Z" fill="url(#paint14_linear_2014_234)"/>
<path d="M71.3921 21.4233C69.989 21.4233 68.953 20.7433 68.586 19.6101L69.4818 19.2755C69.7732 20.1174 70.4639 20.6138 71.4352 20.6138C72.6224 20.6138 73.3995 19.8476 73.3995 18.628V17.8941H73.2916C72.8167 18.4985 72.1583 18.8654 71.3057 18.8654C69.6653 18.8654 68.4781 17.6675 68.4781 15.9946C68.4781 14.311 69.6653 13.0698 71.3057 13.0698C72.1799 13.0698 72.8383 13.4476 73.3024 14.0519H73.4103V13.2749H74.2953V18.628C74.2953 20.3332 73.1513 21.4233 71.3921 21.4233ZM71.4029 18.0776C72.5793 18.0776 73.4319 17.1926 73.4319 15.9946C73.4319 14.7642 72.5685 13.8685 71.4029 13.8685C70.2265 13.8685 69.3739 14.7642 69.3739 15.9946C69.3739 17.1926 70.2265 18.0776 71.4029 18.0776Z" fill="url(#paint15_linear_2014_234)"/>
<path d="M78.6017 18.941C76.8965 18.941 75.6661 17.6782 75.6661 15.9298C75.6661 14.2678 76.8749 13.059 78.5585 13.059C80.2206 13.059 81.4185 14.2678 81.4185 15.9406C81.4185 16.0486 81.4185 16.1781 81.4078 16.2968H76.5835C76.713 17.3976 77.5116 18.1315 78.6233 18.1315C79.4327 18.1315 80.145 17.7214 80.4904 17.0739L81.2351 17.4516C80.7926 18.3798 79.8105 18.941 78.6017 18.941ZM76.5943 15.5089H80.4796C80.3177 14.5268 79.5514 13.8685 78.5153 13.8685C77.5116 13.8685 76.7454 14.5268 76.5943 15.5089Z" fill="url(#paint16_linear_2014_234)"/>
<path d="M83.6933 18.7251H82.7975V13.2749H83.6609V13.998H83.7688C84.071 13.4368 84.643 13.059 85.3553 13.059C86.1216 13.059 86.8231 13.4799 87.1361 14.1167H87.2332C87.611 13.4799 88.2369 13.0698 89.0572 13.0698C90.3415 13.0698 91.2589 14.0627 91.2589 15.4766V18.7251H90.3631V15.4658C90.3631 14.5376 89.7695 13.8685 88.9492 13.8685C88.075 13.8685 87.4599 14.5376 87.4599 15.4658V18.7251H86.5641V15.4658C86.5641 14.5052 86.0029 13.8685 85.161 13.8685C84.2761 13.8685 83.6933 14.5052 83.6933 15.4658V18.7251Z" fill="url(#paint17_linear_2014_234)"/>
<path d="M95.4651 18.941C93.7599 18.941 92.5295 17.6782 92.5295 15.9298C92.5295 14.2678 93.7383 13.059 95.4219 13.059C97.084 13.059 98.282 14.2678 98.282 15.9406C98.282 16.0486 98.282 16.1781 98.2712 16.2968H93.4469C93.5764 17.3976 94.375 18.1315 95.4867 18.1315C96.2961 18.1315 97.0084 17.7214 97.3538 17.0739L98.0985 17.4516C97.656 18.3798 96.6739 18.941 95.4651 18.941ZM93.4577 15.5089H97.343C97.1811 14.5268 96.4148 13.8685 95.3787 13.8685C94.375 13.8685 93.6088 14.5268 93.4577 15.5089Z" fill="url(#paint18_linear_2014_234)"/>
<path d="M100.557 18.7251H99.6609V13.2749H100.557V14.0196H100.665C101.053 13.4152 101.658 13.0698 102.381 13.0698C103.762 13.0698 104.647 14.0843 104.647 15.4658V18.7251H103.751V15.4658C103.751 14.5484 103.201 13.8793 102.262 13.8793C101.345 13.8793 100.557 14.5916 100.557 15.5413V18.7251Z" fill="url(#paint19_linear_2014_234)"/>
<path d="M108.17 18.9302C107.253 18.9302 106.67 18.2826 106.67 17.3221V13.9872H105.785V13.2749H106.67L106.875 11.5157H107.577L107.566 13.2749H108.969V13.9872H107.566V17.2897C107.566 17.8078 107.89 18.1747 108.408 18.1747C108.57 18.1747 108.85 18.1315 109.055 18.0668V18.7899C108.796 18.8762 108.44 18.9302 108.17 18.9302Z" fill="url(#paint20_linear_2014_234)"/>
<path d="M43.2702 23.8516C44.8567 23.8516 46.087 25.082 46.087 26.7872C46.087 28.4924 44.8675 29.7336 43.2809 29.7336C42.4067 29.7336 41.6728 29.3558 41.2735 28.7083H41.1764V32H40.2806V24.0675H41.1764V24.8985H41.2735C41.6728 24.2401 42.3744 23.8516 43.2702 23.8516ZM43.173 24.661C41.9966 24.661 41.144 25.5892 41.144 26.7872C41.144 27.9852 41.9966 28.9241 43.173 28.9241C44.3386 28.9241 45.1912 27.9852 45.1912 26.7872C45.1912 25.5676 44.3386 24.661 43.173 24.661Z" fill="url(#paint21_linear_2014_234)"/>
<path d="M48.9904 29.6904C47.814 29.6904 47.0369 29.0752 47.0369 28.1363C47.0369 27.1757 47.8572 26.4634 49.4761 26.2799L50.987 26.0965V25.8806C50.987 25.1467 50.4582 24.6718 49.5624 24.6718C48.7422 24.6718 48.2025 25.0712 48.2133 25.7511H47.3067C47.3067 24.5963 48.2025 23.8624 49.5732 23.8624C50.987 23.8624 51.8828 24.661 51.8828 25.9022V29.5177H50.987V28.7191H50.8899C50.5013 29.345 49.8646 29.6904 48.9904 29.6904ZM49.1199 28.9457C50.2315 28.9457 50.987 28.2658 50.987 27.3484V26.8627L49.4761 27.0354C48.3644 27.1757 47.9327 27.6074 47.9327 28.1147C47.9327 28.6327 48.386 28.9457 49.1199 28.9457Z" fill="url(#paint22_linear_2014_234)"/>
<path d="M55.4091 29.7228C54.4917 29.7228 53.9089 29.0752 53.9089 28.1147V24.7798H53.0239V24.0675H53.9089L54.114 22.3083H54.8155L54.8047 24.0675H56.2078V24.7798H54.8047V28.0823C54.8047 28.6003 55.1285 28.9673 55.6465 28.9673C55.8084 28.9673 56.089 28.9241 56.2941 28.8594V29.5825C56.0351 29.6688 55.6789 29.7228 55.4091 29.7228Z" fill="url(#paint23_linear_2014_234)"/>
<path d="M59.625 29.7228C58.7076 29.7228 58.1248 29.0752 58.1248 28.1147V24.7798H57.2398V24.0675H58.1248L58.3298 22.3083H59.0314L59.0206 24.0675H60.4236V24.7798H59.0206V28.0823C59.0206 28.6003 59.3443 28.9673 59.8624 28.9673C60.0243 28.9673 60.3049 28.9241 60.5099 28.8594V29.5825C60.2509 29.6688 59.8948 29.7228 59.625 29.7228Z" fill="url(#paint24_linear_2014_234)"/>
<path d="M64.3205 29.7336C62.6153 29.7336 61.3849 28.4708 61.3849 26.7224C61.3849 25.0604 62.5937 23.8516 64.2773 23.8516C65.9394 23.8516 67.1374 25.0604 67.1374 26.7332C67.1374 26.8411 67.1374 26.9707 67.1266 27.0894H62.3023C62.4318 28.1902 63.2304 28.9241 64.3421 28.9241C65.1515 28.9241 65.8638 28.514 66.2092 27.8664L66.9539 28.2442C66.5114 29.1723 65.5293 29.7336 64.3205 29.7336ZM62.3131 26.3015H66.1984C66.0365 25.3194 65.2702 24.661 64.2341 24.661C63.2304 24.661 62.4642 25.3194 62.3131 26.3015Z" fill="url(#paint25_linear_2014_234)"/>
<path d="M69.4121 29.5177H68.5163V24.0675H69.3905V24.8013H69.4876C69.7358 24.3049 70.3402 23.9595 70.9446 23.9595C71.1928 23.9595 71.4519 24.0135 71.6137 24.0998V24.9309C71.3331 24.8121 71.0094 24.769 70.8043 24.769C69.9841 24.769 69.4121 25.5029 69.4121 26.5821V29.5177Z" fill="url(#paint26_linear_2014_234)"/>
<path d="M73.6595 29.5177H72.7637V24.0675H73.6595V24.8121H73.7675C74.156 24.2078 74.7604 23.8624 75.4835 23.8624C76.8649 23.8624 77.7499 24.8769 77.7499 26.2583V29.5177H76.8541V26.2583C76.8541 25.341 76.3037 24.6718 75.3648 24.6718C74.4474 24.6718 73.6595 25.3841 73.6595 26.3339V29.5177Z" fill="url(#paint27_linear_2014_234)"/>
<path d="M81.5324 29.7336C79.9675 29.7336 79.0609 28.9673 79.0609 27.6722H79.9243C79.9351 28.4492 80.5395 28.9781 81.5648 28.9781C82.385 28.9781 82.9138 28.6327 82.9138 28.0607C82.9138 27.3484 82.1691 27.2944 81.3489 27.1865C80.3344 27.0678 79.158 26.798 79.158 25.5568C79.158 24.4992 80.043 23.8516 81.3489 23.8516C82.7088 23.8516 83.6369 24.5747 83.6369 25.6971H82.7627C82.7519 25.028 82.1799 24.6071 81.3381 24.6071C80.5503 24.6071 80.0106 24.9632 80.0106 25.5245C80.0106 26.2044 80.7445 26.2583 81.554 26.3555C82.5793 26.485 83.7556 26.744 83.7556 28.0499C83.7556 29.1184 82.9246 29.7336 81.5324 29.7336Z" fill="url(#paint28_linear_2014_234)"/>
<defs>
<linearGradient id="paint0_linear_2014_234" x1="16" y1="0" x2="16" y2="32" gradientUnits="userSpaceOnUse">
<stop stop-color="#05070B"/>
<stop offset="1" stop-color="#3B3B3E"/>
</linearGradient>
<linearGradient id="paint1_linear_2014_234" x1="-9.08531e-08" y1="47.9954" x2="40.1673" y2="43.1262" gradientUnits="userSpaceOnUse">
<stop stop-color="#F7F8FF"/>
<stop offset="1" stop-color="#F3F3FF"/>
</linearGradient>
<linearGradient id="paint2_linear_2014_234" x1="-9.08531e-08" y1="47.9954" x2="40.1673" y2="43.1262" gradientUnits="userSpaceOnUse">
<stop stop-color="#F7F8FF"/>
<stop offset="1" stop-color="#F3F3FF"/>
</linearGradient>
<linearGradient id="paint3_linear_2014_234" x1="-9.08531e-08" y1="47.9954" x2="40.1673" y2="43.1262" gradientUnits="userSpaceOnUse">
<stop stop-color="#F7F8FF"/>
<stop offset="1" stop-color="#F3F3FF"/>
</linearGradient>
<linearGradient id="paint4_linear_2014_234" x1="-9.08531e-08" y1="47.9954" x2="40.1673" y2="43.1262" gradientUnits="userSpaceOnUse">
<stop stop-color="#F7F8FF"/>
<stop offset="1" stop-color="#F3F3FF"/>
</linearGradient>
<linearGradient id="paint5_linear_2014_234" x1="74.5277" y1="0" x2="74.5277" y2="32" gradientUnits="userSpaceOnUse">
<stop stop-color="#05070B"/>
<stop offset="1" stop-color="#3B3B3E"/>
</linearGradient>
<linearGradient id="paint6_linear_2014_234" x1="74.5277" y1="0" x2="74.5277" y2="32" gradientUnits="userSpaceOnUse">
<stop stop-color="#05070B"/>
<stop offset="1" stop-color="#3B3B3E"/>
</linearGradient>
<linearGradient id="paint7_linear_2014_234" x1="74.5277" y1="0" x2="74.5277" y2="32" gradientUnits="userSpaceOnUse">
<stop stop-color="#05070B"/>
<stop offset="1" stop-color="#3B3B3E"/>
</linearGradient>
<linearGradient id="paint8_linear_2014_234" x1="74.5277" y1="0" x2="74.5277" y2="32" gradientUnits="userSpaceOnUse">
<stop stop-color="#05070B"/>
<stop offset="1" stop-color="#3B3B3E"/>
</linearGradient>
<linearGradient id="paint9_linear_2014_234" x1="74.5277" y1="0" x2="74.5277" y2="32" gradientUnits="userSpaceOnUse">
<stop stop-color="#05070B"/>
<stop offset="1" stop-color="#3B3B3E"/>
</linearGradient>
<linearGradient id="paint10_linear_2014_234" x1="74.5277" y1="0" x2="74.5277" y2="32" gradientUnits="userSpaceOnUse">
<stop stop-color="#05070B"/>
<stop offset="1" stop-color="#3B3B3E"/>
</linearGradient>
<linearGradient id="paint11_linear_2014_234" x1="74.5277" y1="0" x2="74.5277" y2="32" gradientUnits="userSpaceOnUse">
<stop stop-color="#05070B"/>
<stop offset="1" stop-color="#3B3B3E"/>
</linearGradient>
<linearGradient id="paint12_linear_2014_234" x1="74.5277" y1="0" x2="74.5277" y2="32" gradientUnits="userSpaceOnUse">
<stop stop-color="#05070B"/>
<stop offset="1" stop-color="#3B3B3E"/>
</linearGradient>
<linearGradient id="paint13_linear_2014_234" x1="74.5277" y1="0" x2="74.5277" y2="32" gradientUnits="userSpaceOnUse">
<stop stop-color="#05070B"/>
<stop offset="1" stop-color="#3B3B3E"/>
</linearGradient>
<linearGradient id="paint14_linear_2014_234" x1="74.5277" y1="0" x2="74.5277" y2="32" gradientUnits="userSpaceOnUse">
<stop stop-color="#05070B"/>
<stop offset="1" stop-color="#3B3B3E"/>
</linearGradient>
<linearGradient id="paint15_linear_2014_234" x1="74.5277" y1="0" x2="74.5277" y2="32" gradientUnits="userSpaceOnUse">
<stop stop-color="#05070B"/>
<stop offset="1" stop-color="#3B3B3E"/>
</linearGradient>
<linearGradient id="paint16_linear_2014_234" x1="74.5277" y1="0" x2="74.5277" y2="32" gradientUnits="userSpaceOnUse">
<stop stop-color="#05070B"/>
<stop offset="1" stop-color="#3B3B3E"/>
</linearGradient>
<linearGradient id="paint17_linear_2014_234" x1="74.5277" y1="0" x2="74.5277" y2="32" gradientUnits="userSpaceOnUse">
<stop stop-color="#05070B"/>
<stop offset="1" stop-color="#3B3B3E"/>
</linearGradient>
<linearGradient id="paint18_linear_2014_234" x1="74.5277" y1="0" x2="74.5277" y2="32" gradientUnits="userSpaceOnUse">
<stop stop-color="#05070B"/>
<stop offset="1" stop-color="#3B3B3E"/>
</linearGradient>
<linearGradient id="paint19_linear_2014_234" x1="74.5277" y1="0" x2="74.5277" y2="32" gradientUnits="userSpaceOnUse">
<stop stop-color="#05070B"/>
<stop offset="1" stop-color="#3B3B3E"/>
</linearGradient>
<linearGradient id="paint20_linear_2014_234" x1="74.5277" y1="0" x2="74.5277" y2="32" gradientUnits="userSpaceOnUse">
<stop stop-color="#05070B"/>
<stop offset="1" stop-color="#3B3B3E"/>
</linearGradient>
<linearGradient id="paint21_linear_2014_234" x1="74.5277" y1="0" x2="74.5277" y2="32" gradientUnits="userSpaceOnUse">
<stop stop-color="#05070B"/>
<stop offset="1" stop-color="#3B3B3E"/>
</linearGradient>
<linearGradient id="paint22_linear_2014_234" x1="74.5277" y1="0" x2="74.5277" y2="32" gradientUnits="userSpaceOnUse">
<stop stop-color="#05070B"/>
<stop offset="1" stop-color="#3B3B3E"/>
</linearGradient>
<linearGradient id="paint23_linear_2014_234" x1="74.5277" y1="0" x2="74.5277" y2="32" gradientUnits="userSpaceOnUse">
<stop stop-color="#05070B"/>
<stop offset="1" stop-color="#3B3B3E"/>
</linearGradient>
<linearGradient id="paint24_linear_2014_234" x1="74.5277" y1="0" x2="74.5277" y2="32" gradientUnits="userSpaceOnUse">
<stop stop-color="#05070B"/>
<stop offset="1" stop-color="#3B3B3E"/>
</linearGradient>
<linearGradient id="paint25_linear_2014_234" x1="74.5277" y1="0" x2="74.5277" y2="32" gradientUnits="userSpaceOnUse">
<stop stop-color="#05070B"/>
<stop offset="1" stop-color="#3B3B3E"/>
</linearGradient>
<linearGradient id="paint26_linear_2014_234" x1="74.5277" y1="0" x2="74.5277" y2="32" gradientUnits="userSpaceOnUse">
<stop stop-color="#05070B"/>
<stop offset="1" stop-color="#3B3B3E"/>
</linearGradient>
<linearGradient id="paint27_linear_2014_234" x1="74.5277" y1="0" x2="74.5277" y2="32" gradientUnits="userSpaceOnUse">
<stop stop-color="#05070B"/>
<stop offset="1" stop-color="#3B3B3E"/>
</linearGradient>
<linearGradient id="paint28_linear_2014_234" x1="74.5277" y1="0" x2="74.5277" y2="32" gradientUnits="userSpaceOnUse">
<stop stop-color="#05070B"/>
<stop offset="1" stop-color="#3B3B3E"/>
</linearGradient>
</defs>
</svg>
