<svg width="141" height="56" viewBox="0 0 141 56" fill="none" xmlns="http://www.w3.org/2000/svg">
<path d="M16 28C16 19.1634 23.1598 12 31.9919 12C40.8239 12 47.9837 19.1634 47.9837 28C47.9837 36.8366 40.8239 44 31.9919 44C23.1598 44 16 36.8366 16 28Z" fill="url(#paint0_linear_2016_307)"/>
<path d="M28.9684 24.6282C29.7289 25.8282 30.14 27.1621 30.1683 28.521C30.1966 29.8798 29.8411 31.225 29.131 32.4466L28.2085 32.069C28.8476 30.9697 29.1674 29.759 29.142 28.536C29.1166 27.313 28.7465 26.1125 28.0621 25.0325L28.9684 24.6282Z" fill="url(#paint1_linear_2016_307)"/>
<path d="M32.8013 22.9179C33.8834 24.6255 34.4685 26.5237 34.5088 28.4574C34.549 30.3911 34.0432 32.3053 33.0327 34.0436L32.1137 33.6675C33.0535 32.0509 33.5239 30.2707 33.4865 28.4724C33.449 26.674 32.9049 24.9087 31.8985 23.3206L32.8013 22.9179Z" fill="url(#paint2_linear_2016_307)"/>
<path d="M37.103 21C38.5458 23.2768 39.3259 25.8078 39.3795 28.3861C39.4334 30.9643 38.7588 33.5166 37.4116 35.8343L36.5363 35.4761C37.8163 33.2743 38.4569 30.8497 38.4059 28.4003C38.355 25.951 37.6139 23.5465 36.2432 21.3836L37.103 21Z" fill="url(#paint3_linear_2016_307)"/>
<path d="M26.0069 28.5297C26.0069 29.3614 25.3329 30.0357 24.5016 30.0357C23.6703 30.0357 22.9964 29.3614 22.9964 28.5297C22.9964 27.698 23.6703 27.0237 24.5016 27.0237C25.3329 27.0237 26.0069 27.698 26.0069 28.5297Z" fill="url(#paint4_linear_2016_307)"/>
<path d="M58.8059 20.1484C57.2094 20.1484 55.9797 18.9073 55.9797 17.202C55.9797 15.4968 57.1986 14.2664 58.7951 14.2664C59.6688 14.2664 60.3916 14.6334 60.7907 15.2917H60.8986V12H61.7939V19.9325H60.8986V19.0907H60.7907C60.3916 19.7599 59.6904 20.1484 58.8059 20.1484ZM58.903 19.339C60.068 19.339 60.9201 18.4 60.9201 17.202C60.9201 16.004 60.068 15.0759 58.903 15.0759C57.7272 15.0759 56.875 16.004 56.875 17.202C56.875 18.4216 57.7379 19.339 58.903 19.339Z" fill="url(#paint5_linear_2016_307)"/>
<path d="M66.0981 20.1484C64.3938 20.1484 63.164 18.8857 63.164 17.1373C63.164 15.4752 64.3722 14.2664 66.055 14.2664C67.7162 14.2664 68.9135 15.4752 68.9135 17.1481C68.9135 17.256 68.9135 17.3855 68.9028 17.5042H64.0809C64.2104 18.6051 65.0086 19.339 66.1197 19.339C66.9287 19.339 67.6407 18.9288 67.9859 18.2813L68.7302 18.659C68.2879 19.5872 67.3063 20.1484 66.0981 20.1484ZM64.0917 16.7164H67.9751C67.8133 15.7342 67.0474 15.0759 66.0118 15.0759C65.0086 15.0759 64.2427 15.7342 64.0917 16.7164Z" fill="url(#paint6_linear_2016_307)"/>
<path d="M72.5247 20.1484C70.9606 20.1484 70.0544 19.3821 70.0544 18.087H70.9174C70.9282 18.8641 71.5323 19.3929 72.5571 19.3929C73.3769 19.3929 73.9054 19.0476 73.9054 18.4755C73.9054 17.7632 73.1611 17.7093 72.3413 17.6013C71.3273 17.4826 70.1515 17.2128 70.1515 15.9717C70.1515 14.914 71.0361 14.2664 72.3413 14.2664C73.7005 14.2664 74.6282 14.9895 74.6282 16.112H73.7544C73.7436 15.4428 73.1719 15.0219 72.3305 15.0219C71.5431 15.0219 71.0037 15.3781 71.0037 15.9393C71.0037 16.6192 71.7372 16.6732 72.5463 16.7703C73.571 16.8998 74.7468 17.1589 74.7468 18.4648C74.7468 19.5332 73.9162 20.1484 72.5247 20.1484Z" fill="url(#paint7_linear_2016_307)"/>
<path d="M76.7092 13.4462C76.3317 13.4462 76.062 13.1764 76.062 12.7987C76.062 12.4317 76.3317 12.1727 76.7092 12.1727C77.0868 12.1727 77.3457 12.4317 77.3457 12.7987C77.3457 13.1764 77.0868 13.4462 76.7092 13.4462ZM77.1515 19.9325H76.2562V14.4823H77.1515V19.9325Z" fill="url(#paint8_linear_2016_307)"/>
<path d="M81.5303 22.6307C80.128 22.6307 79.0924 21.9508 78.7257 20.8175L79.621 20.483C79.9122 21.3248 80.6026 21.8212 81.5735 21.8212C82.76 21.8212 83.5367 21.055 83.5367 19.8354V19.1015H83.4288C82.9542 19.7059 82.2962 20.0728 81.444 20.0728C79.8044 20.0728 78.6178 18.8749 78.6178 17.202C78.6178 15.5184 79.8044 14.2772 81.444 14.2772C82.3178 14.2772 82.9758 14.655 83.4396 15.2594H83.5475V14.4823H84.432V19.8354C84.432 21.5406 83.2886 22.6307 81.5303 22.6307ZM81.5411 19.285C82.7169 19.285 83.5691 18.4 83.5691 17.202C83.5691 15.9717 82.7061 15.0759 81.5411 15.0759C80.3653 15.0759 79.5131 15.9717 79.5131 17.202C79.5131 18.4 80.3653 19.285 81.5411 19.285Z" fill="url(#paint9_linear_2016_307)"/>
<path d="M86.978 19.9325H86.0826V14.4823H86.978V15.227H87.0858C87.4742 14.6226 88.0782 14.2772 88.801 14.2772C90.1817 14.2772 91.0663 15.2917 91.0663 16.6732V19.9325H90.1709V16.6732C90.1709 15.7558 89.6208 15.0867 88.6823 15.0867C87.7654 15.0867 86.978 15.799 86.978 16.7487V19.9325Z" fill="url(#paint10_linear_2016_307)"/>
<path d="M57.1554 30.7251H56.2601V25.2749H57.1231V25.998H57.231C57.533 25.4368 58.1047 25.059 58.8167 25.059C59.5825 25.059 60.2837 25.4799 60.5965 26.1167H60.6936C61.0712 25.4799 61.6968 25.0698 62.5166 25.0698C63.8003 25.0698 64.7172 26.0627 64.7172 27.4766V30.7251H63.8219V27.4658C63.8219 26.5376 63.2286 25.8685 62.4088 25.8685C61.535 25.8685 60.9201 26.5376 60.9201 27.4658V30.7251H60.0248V27.4658C60.0248 26.5052 59.4639 25.8685 58.6225 25.8685C57.7379 25.8685 57.1554 26.5052 57.1554 27.4658V30.7251Z" fill="url(#paint11_linear_2016_307)"/>
<path d="M67.7886 30.8978C66.6129 30.8978 65.8362 30.2826 65.8362 29.3437C65.8362 28.3831 66.656 27.6708 68.2741 27.4874L69.7843 27.3039V27.088C69.7843 26.3541 69.2557 25.8793 68.3604 25.8793C67.5405 25.8793 67.0012 26.2786 67.012 26.9585H66.1059C66.1059 25.8037 67.0012 25.0698 68.3712 25.0698C69.7843 25.0698 70.6796 25.8685 70.6796 27.1096V30.7251H69.7843V29.9265H69.6872C69.2988 30.5524 68.6624 30.8978 67.7886 30.8978ZM67.9181 30.1531C69.0292 30.1531 69.7843 29.4732 69.7843 28.5558V28.0702L68.2741 28.2428C67.163 28.3831 66.7315 28.8148 66.7315 29.3221C66.7315 29.8401 67.1846 30.1531 67.9181 30.1531Z" fill="url(#paint12_linear_2016_307)"/>
<path d="M73.1254 30.7251H72.2301V25.2749H73.1254V26.0196H73.2333C73.6216 25.4152 74.2257 25.0698 74.9484 25.0698C76.3292 25.0698 77.2137 26.0843 77.2137 27.4658V30.7251H76.3184V27.4658C76.3184 26.5484 75.7682 25.8793 74.8298 25.8793C73.9129 25.8793 73.1254 26.5916 73.1254 27.5413V30.7251Z" fill="url(#paint13_linear_2016_307)"/>
<path d="M80.2823 30.8978C79.1065 30.8978 78.3298 30.2826 78.3298 29.3437C78.3298 28.3831 79.1496 27.6708 80.7677 27.4874L82.2779 27.3039V27.088C82.2779 26.3541 81.7493 25.8793 80.854 25.8793C80.0342 25.8793 79.4948 26.2786 79.5056 26.9585H78.5995C78.5995 25.8037 79.4948 25.0698 80.8648 25.0698C82.2779 25.0698 83.1732 25.8685 83.1732 27.1096V30.7251H82.2779V29.9265H82.1808C81.7925 30.5524 81.156 30.8978 80.2823 30.8978ZM80.4117 30.1531C81.5228 30.1531 82.2779 29.4732 82.2779 28.5558V28.0702L80.7677 28.2428C79.6566 28.3831 79.2252 28.8148 79.2252 29.3221C79.2252 29.8401 79.6782 30.1531 80.4117 30.1531Z" fill="url(#paint14_linear_2016_307)"/>
<path d="M87.3558 33.4233C85.9534 33.4233 84.9179 32.7433 84.5511 31.6101L85.4464 31.2755C85.7377 32.1174 86.4281 32.6138 87.3989 32.6138C88.5855 32.6138 89.3622 31.8476 89.3622 30.628V29.8941H89.2543C88.7797 30.4985 88.1216 30.8654 87.2695 30.8654C85.6298 30.8654 84.4432 29.6675 84.4432 27.9946C84.4432 26.311 85.6298 25.0698 87.2695 25.0698C88.1432 25.0698 88.8012 25.4476 89.2651 26.0519H89.3729V25.2749H90.2575V30.628C90.2575 32.3332 89.1141 33.4233 87.3558 33.4233ZM87.3665 30.0776C88.5423 30.0776 89.3945 29.1926 89.3945 27.9946C89.3945 26.7642 88.5315 25.8685 87.3665 25.8685C86.1907 25.8685 85.3386 26.7642 85.3386 27.9946C85.3386 29.1926 86.1907 30.0776 87.3665 30.0776Z" fill="url(#paint15_linear_2016_307)"/>
<path d="M94.5617 30.941C92.8573 30.941 91.6276 29.6782 91.6276 27.9298C91.6276 26.2678 92.8358 25.059 94.5186 25.059C96.1798 25.059 97.3771 26.2678 97.3771 27.9406C97.3771 28.0486 97.3771 28.1781 97.3663 28.2968H92.5445C92.674 29.3976 93.4722 30.1315 94.5833 30.1315C95.3923 30.1315 96.1043 29.7214 96.4494 29.0739L97.1938 29.4516C96.7515 30.3798 95.7699 30.941 94.5617 30.941ZM92.5553 27.5089H96.4387C96.2768 26.5268 95.511 25.8685 94.4754 25.8685C93.4722 25.8685 92.7063 26.5268 92.5553 27.5089Z" fill="url(#paint16_linear_2016_307)"/>
<path d="M99.6507 30.7251H98.7554V25.2749H99.6183V25.998H99.7262C100.028 25.4368 100.6 25.059 101.312 25.059C102.078 25.059 102.779 25.4799 103.092 26.1167H103.189C103.566 25.4799 104.192 25.0698 105.012 25.0698C106.296 25.0698 107.212 26.0627 107.212 27.4766V30.7251H106.317V27.4658C106.317 26.5376 105.724 25.8685 104.904 25.8685C104.03 25.8685 103.415 26.5376 103.415 27.4658V30.7251H102.52V27.4658C102.52 26.5052 101.959 25.8685 101.118 25.8685C100.233 25.8685 99.6507 26.5052 99.6507 27.4658V30.7251Z" fill="url(#paint17_linear_2016_307)"/>
<path d="M111.417 30.941C109.712 30.941 108.482 29.6782 108.482 27.9298C108.482 26.2678 109.691 25.059 111.373 25.059C113.035 25.059 114.232 26.2678 114.232 27.9406C114.232 28.0486 114.232 28.1781 114.221 28.2968H109.399C109.529 29.3976 110.327 30.1315 111.438 30.1315C112.247 30.1315 112.959 29.7214 113.304 29.0739L114.049 29.4516C113.606 30.3798 112.625 30.941 111.417 30.941ZM109.41 27.5089H113.293C113.132 26.5268 112.366 25.8685 111.33 25.8685C110.327 25.8685 109.561 26.5268 109.41 27.5089Z" fill="url(#paint18_linear_2016_307)"/>
<path d="M116.506 30.7251H115.61V25.2749H116.506V26.0196H116.613C117.002 25.4152 117.606 25.0698 118.329 25.0698C119.709 25.0698 120.594 26.0843 120.594 27.4658V30.7251H119.698V27.4658C119.698 26.5484 119.148 25.8793 118.21 25.8793C117.293 25.8793 116.506 26.5916 116.506 27.5413V30.7251Z" fill="url(#paint19_linear_2016_307)"/>
<path d="M124.115 30.9302C123.199 30.9302 122.616 30.2826 122.616 29.3221V25.9872H121.732V25.2749H122.616L122.821 23.5157H123.522L123.511 25.2749H124.914V25.9872H123.511V29.2897C123.511 29.8078 123.835 30.1747 124.353 30.1747C124.515 30.1747 124.795 30.1315 125 30.0668V30.7899C124.741 30.8762 124.385 30.9302 124.115 30.9302Z" fill="url(#paint20_linear_2016_307)"/>
<path d="M59.2481 35.8516C60.8338 35.8516 62.0636 37.082 62.0636 38.7872C62.0636 40.4924 60.8446 41.7336 59.2589 41.7336C58.3852 41.7336 57.6517 41.3558 57.2525 40.7083H57.1554V44H56.2601V36.0675H57.1554V36.8985H57.2525C57.6517 36.2401 58.3528 35.8516 59.2481 35.8516ZM59.1511 36.661C57.9753 36.661 57.1231 37.5892 57.1231 38.7872C57.1231 39.9852 57.9753 40.9241 59.1511 40.9241C60.3161 40.9241 61.1682 39.9852 61.1682 38.7872C61.1682 37.5676 60.3161 36.661 59.1511 36.661Z" fill="url(#paint21_linear_2016_307)"/>
<path d="M64.9655 41.6904C63.7897 41.6904 63.013 41.0752 63.013 40.1363C63.013 39.1757 63.8328 38.4634 65.4509 38.2799L66.9611 38.0965V37.8806C66.9611 37.1467 66.4325 36.6718 65.5372 36.6718C64.7174 36.6718 64.178 37.0712 64.1888 37.7511H63.2827C63.2827 36.5963 64.178 35.8624 65.548 35.8624C66.9611 35.8624 67.8564 36.661 67.8564 37.9022V41.5177H66.9611V40.7191H66.864C66.4757 41.345 65.8392 41.6904 64.9655 41.6904ZM65.0949 40.9457C66.206 40.9457 66.9611 40.2658 66.9611 39.3484V38.8627L65.4509 39.0354C64.3398 39.1757 63.9083 39.6074 63.9083 40.1147C63.9083 40.6327 64.3614 40.9457 65.0949 40.9457Z" fill="url(#paint22_linear_2016_307)"/>
<path d="M71.3809 41.7228C70.464 41.7228 69.8815 41.0752 69.8815 40.1147V36.7798H68.997V36.0675H69.8815L70.0865 34.3083H70.7876L70.7768 36.0675H72.1792V36.7798H70.7768V40.0823C70.7768 40.6003 71.1005 40.9673 71.6182 40.9673C71.78 40.9673 72.0605 40.9241 72.2655 40.8594V41.5825C72.0066 41.6688 71.6506 41.7228 71.3809 41.7228Z" fill="url(#paint23_linear_2016_307)"/>
<path d="M75.5946 41.7228C74.6777 41.7228 74.0952 41.0752 74.0952 40.1147V36.7798H73.2107V36.0675H74.0952L74.3002 34.3083H75.0013L74.9906 36.0675H76.3929V36.7798H74.9906V40.0823C74.9906 40.6003 75.3142 40.9673 75.8319 40.9673C75.9937 40.9673 76.2742 40.9241 76.4792 40.8594V41.5825C76.2203 41.6688 75.8643 41.7228 75.5946 41.7228Z" fill="url(#paint24_linear_2016_307)"/>
<path d="M80.2878 41.7336C78.5834 41.7336 77.3537 40.4708 77.3537 38.7224C77.3537 37.0604 78.5618 35.8516 80.2446 35.8516C81.9058 35.8516 83.1032 37.0604 83.1032 38.7332C83.1032 38.8411 83.1032 38.9707 83.0924 39.0894H78.2706C78.4 40.1902 79.1983 40.9241 80.3093 40.9241C81.1184 40.9241 81.8303 40.514 82.1755 39.8664L82.9198 40.2442C82.4776 41.1723 81.4959 41.7336 80.2878 41.7336ZM78.2814 38.3015H82.1647C82.0029 37.3194 81.237 36.661 80.2015 36.661C79.1983 36.661 78.4324 37.3194 78.2814 38.3015Z" fill="url(#paint25_linear_2016_307)"/>
<path d="M85.3767 41.5177H84.4814V36.0675H85.3552V36.8013H85.4523C85.7004 36.3049 86.3044 35.9595 86.9085 35.9595C87.1566 35.9595 87.4155 36.0135 87.5773 36.0998V36.9309C87.2968 36.8121 86.9732 36.769 86.7683 36.769C85.9485 36.769 85.3767 37.5029 85.3767 38.5821V41.5177Z" fill="url(#paint26_linear_2016_307)"/>
<path d="M89.6221 41.5177H88.7267V36.0675H89.6221V36.8121H89.7299C90.1183 36.2078 90.7223 35.8624 91.4451 35.8624C92.8258 35.8624 93.7104 36.8769 93.7104 38.2583V41.5177H92.815V38.2583C92.815 37.341 92.2649 36.6718 91.3264 36.6718C90.4095 36.6718 89.6221 37.3841 89.6221 38.3339V41.5177Z" fill="url(#paint27_linear_2016_307)"/>
<path d="M97.4909 41.7336C95.9268 41.7336 95.0207 40.9673 95.0207 39.6722H95.8836C95.8944 40.4492 96.4985 40.9781 97.5233 40.9781C98.3431 40.9781 98.8717 40.6327 98.8717 40.0607C98.8717 39.3484 98.1273 39.2944 97.3075 39.1865C96.2935 39.0678 95.1177 38.798 95.1177 37.5568C95.1177 36.4992 96.0023 35.8516 97.3075 35.8516C98.6667 35.8516 99.5944 36.5747 99.5944 37.6971H98.7206C98.7098 37.028 98.1381 36.6071 97.2967 36.6071C96.5093 36.6071 95.9699 36.9632 95.9699 37.5245C95.9699 38.2044 96.7034 38.2583 97.5125 38.3555C98.5373 38.485 99.713 38.744 99.713 40.0499C99.713 41.1184 98.8824 41.7336 97.4909 41.7336Z" fill="url(#paint28_linear_2016_307)"/>
<defs>
<linearGradient id="paint0_linear_2016_307" x1="70.5" y1="12" x2="70.5" y2="44" gradientUnits="userSpaceOnUse">
<stop stop-color="#05070B"/>
<stop offset="1" stop-color="#3B3B3E"/>
</linearGradient>
<linearGradient id="paint1_linear_2016_307" x1="16" y1="59.9954" x2="134.608" y2="11.0202" gradientUnits="userSpaceOnUse">
<stop stop-color="#F7F8FF"/>
<stop offset="1" stop-color="#F3F3FF"/>
</linearGradient>
<linearGradient id="paint2_linear_2016_307" x1="16" y1="59.9954" x2="134.608" y2="11.0202" gradientUnits="userSpaceOnUse">
<stop stop-color="#F7F8FF"/>
<stop offset="1" stop-color="#F3F3FF"/>
</linearGradient>
<linearGradient id="paint3_linear_2016_307" x1="16" y1="59.9954" x2="134.608" y2="11.0202" gradientUnits="userSpaceOnUse">
<stop stop-color="#F7F8FF"/>
<stop offset="1" stop-color="#F3F3FF"/>
</linearGradient>
<linearGradient id="paint4_linear_2016_307" x1="16" y1="59.9954" x2="134.608" y2="11.0202" gradientUnits="userSpaceOnUse">
<stop stop-color="#F7F8FF"/>
<stop offset="1" stop-color="#F3F3FF"/>
</linearGradient>
<linearGradient id="paint5_linear_2016_307" x1="70.5" y1="12" x2="70.5" y2="44" gradientUnits="userSpaceOnUse">
<stop stop-color="#05070B"/>
<stop offset="1" stop-color="#3B3B3E"/>
</linearGradient>
<linearGradient id="paint6_linear_2016_307" x1="70.5" y1="12" x2="70.5" y2="44" gradientUnits="userSpaceOnUse">
<stop stop-color="#05070B"/>
<stop offset="1" stop-color="#3B3B3E"/>
</linearGradient>
<linearGradient id="paint7_linear_2016_307" x1="70.5" y1="12" x2="70.5" y2="44" gradientUnits="userSpaceOnUse">
<stop stop-color="#05070B"/>
<stop offset="1" stop-color="#3B3B3E"/>
</linearGradient>
<linearGradient id="paint8_linear_2016_307" x1="70.5" y1="12" x2="70.5" y2="44" gradientUnits="userSpaceOnUse">
<stop stop-color="#05070B"/>
<stop offset="1" stop-color="#3B3B3E"/>
</linearGradient>
<linearGradient id="paint9_linear_2016_307" x1="70.5" y1="12" x2="70.5" y2="44" gradientUnits="userSpaceOnUse">
<stop stop-color="#05070B"/>
<stop offset="1" stop-color="#3B3B3E"/>
</linearGradient>
<linearGradient id="paint10_linear_2016_307" x1="70.5" y1="12" x2="70.5" y2="44" gradientUnits="userSpaceOnUse">
<stop stop-color="#05070B"/>
<stop offset="1" stop-color="#3B3B3E"/>
</linearGradient>
<linearGradient id="paint11_linear_2016_307" x1="70.5" y1="12" x2="70.5" y2="44" gradientUnits="userSpaceOnUse">
<stop stop-color="#05070B"/>
<stop offset="1" stop-color="#3B3B3E"/>
</linearGradient>
<linearGradient id="paint12_linear_2016_307" x1="70.5" y1="12" x2="70.5" y2="44" gradientUnits="userSpaceOnUse">
<stop stop-color="#05070B"/>
<stop offset="1" stop-color="#3B3B3E"/>
</linearGradient>
<linearGradient id="paint13_linear_2016_307" x1="70.5" y1="12" x2="70.5" y2="44" gradientUnits="userSpaceOnUse">
<stop stop-color="#05070B"/>
<stop offset="1" stop-color="#3B3B3E"/>
</linearGradient>
<linearGradient id="paint14_linear_2016_307" x1="70.5" y1="12" x2="70.5" y2="44" gradientUnits="userSpaceOnUse">
<stop stop-color="#05070B"/>
<stop offset="1" stop-color="#3B3B3E"/>
</linearGradient>
<linearGradient id="paint15_linear_2016_307" x1="70.5" y1="12" x2="70.5" y2="44" gradientUnits="userSpaceOnUse">
<stop stop-color="#05070B"/>
<stop offset="1" stop-color="#3B3B3E"/>
</linearGradient>
<linearGradient id="paint16_linear_2016_307" x1="70.5" y1="12" x2="70.5" y2="44" gradientUnits="userSpaceOnUse">
<stop stop-color="#05070B"/>
<stop offset="1" stop-color="#3B3B3E"/>
</linearGradient>
<linearGradient id="paint17_linear_2016_307" x1="70.5" y1="12" x2="70.5" y2="44" gradientUnits="userSpaceOnUse">
<stop stop-color="#05070B"/>
<stop offset="1" stop-color="#3B3B3E"/>
</linearGradient>
<linearGradient id="paint18_linear_2016_307" x1="70.5" y1="12" x2="70.5" y2="44" gradientUnits="userSpaceOnUse">
<stop stop-color="#05070B"/>
<stop offset="1" stop-color="#3B3B3E"/>
</linearGradient>
<linearGradient id="paint19_linear_2016_307" x1="70.5" y1="12" x2="70.5" y2="44" gradientUnits="userSpaceOnUse">
<stop stop-color="#05070B"/>
<stop offset="1" stop-color="#3B3B3E"/>
</linearGradient>
<linearGradient id="paint20_linear_2016_307" x1="70.5" y1="12" x2="70.5" y2="44" gradientUnits="userSpaceOnUse">
<stop stop-color="#05070B"/>
<stop offset="1" stop-color="#3B3B3E"/>
</linearGradient>
<linearGradient id="paint21_linear_2016_307" x1="70.5" y1="12" x2="70.5" y2="44" gradientUnits="userSpaceOnUse">
<stop stop-color="#05070B"/>
<stop offset="1" stop-color="#3B3B3E"/>
</linearGradient>
<linearGradient id="paint22_linear_2016_307" x1="70.5" y1="12" x2="70.5" y2="44" gradientUnits="userSpaceOnUse">
<stop stop-color="#05070B"/>
<stop offset="1" stop-color="#3B3B3E"/>
</linearGradient>
<linearGradient id="paint23_linear_2016_307" x1="70.5" y1="12" x2="70.5" y2="44" gradientUnits="userSpaceOnUse">
<stop stop-color="#05070B"/>
<stop offset="1" stop-color="#3B3B3E"/>
</linearGradient>
<linearGradient id="paint24_linear_2016_307" x1="70.5" y1="12" x2="70.5" y2="44" gradientUnits="userSpaceOnUse">
<stop stop-color="#05070B"/>
<stop offset="1" stop-color="#3B3B3E"/>
</linearGradient>
<linearGradient id="paint25_linear_2016_307" x1="70.5" y1="12" x2="70.5" y2="44" gradientUnits="userSpaceOnUse">
<stop stop-color="#05070B"/>
<stop offset="1" stop-color="#3B3B3E"/>
</linearGradient>
<linearGradient id="paint26_linear_2016_307" x1="70.5" y1="12" x2="70.5" y2="44" gradientUnits="userSpaceOnUse">
<stop stop-color="#05070B"/>
<stop offset="1" stop-color="#3B3B3E"/>
</linearGradient>
<linearGradient id="paint27_linear_2016_307" x1="70.5" y1="12" x2="70.5" y2="44" gradientUnits="userSpaceOnUse">
<stop stop-color="#05070B"/>
<stop offset="1" stop-color="#3B3B3E"/>
</linearGradient>
<linearGradient id="paint28_linear_2016_307" x1="70.5" y1="12" x2="70.5" y2="44" gradientUnits="userSpaceOnUse">
<stop stop-color="#05070B"/>
<stop offset="1" stop-color="#3B3B3E"/>
</linearGradient>
</defs>
</svg>
