<svg width="109" height="32" viewBox="0 0 109 32" fill="none" xmlns="http://www.w3.org/2000/svg">
<path d="M15.9553 31.9106C24.7672 31.9106 31.9106 24.7672 31.9106 15.9553C31.9106 7.14343 24.7672 0 15.9553 0C7.14343 0 0 7.14343 0 15.9553C0 24.7672 7.14343 31.9106 15.9553 31.9106Z" fill="#F9EC0E"/>
<path d="M7.36089 16.3415L21.6539 11.8921C22.4277 11.6512 23.2812 12.0751 23.2812 12.7005V19.9825C23.2812 20.6079 22.4277 21.0318 21.6539 20.7909L7.36089 16.3415Z" fill="white" fill-opacity="0.06"/>
<path d="M13.3359 12.4401C14.0967 13.6401 14.5081 14.9741 14.5364 16.3329C14.5647 17.6918 14.2091 19.037 13.4986 20.2585L12.5756 19.8809C13.215 18.7816 13.535 17.5709 13.5096 16.3479C13.4841 15.125 13.1139 13.9244 12.4291 12.8444L13.3359 12.4401Z" fill="#1F1F1F"/>
<path d="M17.1707 10.7298C18.2534 12.4374 18.8388 14.3356 18.8791 16.2693C18.9193 18.203 18.4133 20.1172 17.4023 21.8555L16.4828 21.4794C17.423 19.8628 17.8937 18.0826 17.8562 16.2843C17.8188 14.486 17.2744 12.7206 16.2675 11.1325L17.1707 10.7298Z" fill="#1F1F1F"/>
<path d="M21.4746 8.81191C22.9181 11.0887 23.6987 13.6197 23.7523 16.198C23.8062 18.7762 23.1313 21.3285 21.7834 23.6462L20.9077 23.2881C22.1883 21.0863 22.8292 18.6616 22.7782 16.2122C22.7272 13.7629 21.9858 11.3585 20.6144 9.19547L21.4746 8.81191Z" fill="#1F1F1F"/>
<path d="M10.3728 16.3416C10.3728 17.1734 9.69859 17.8476 8.86685 17.8476C8.03514 17.8476 7.36089 17.1732 7.36089 16.3415C7.36089 15.5098 8.03514 14.8357 8.86685 14.8357C9.69859 14.8357 10.3728 15.5099 10.3728 16.3416Z" fill="#1F1F1F"/>
<path d="M42.7382 8.1484C41.1409 8.1484 39.9106 6.90725 39.9106 5.20202C39.9106 3.4968 41.1301 2.26644 42.7274 2.26644C43.6016 2.26644 44.3247 2.63339 44.7241 3.29174H44.832V0H45.7278V7.93255H44.832V7.09072H44.7241C44.3247 7.75986 43.6232 8.1484 42.7382 8.1484ZM42.8354 7.33895C44.001 7.33895 44.8536 6.4 44.8536 5.20202C44.8536 4.00405 44.001 3.07589 42.8354 3.07589C41.659 3.07589 40.8064 4.00405 40.8064 5.20202C40.8064 6.42159 41.6698 7.33895 42.8354 7.33895Z" fill="#202125"/>
<path d="M50.0342 8.1484C48.329 8.1484 47.0986 6.88567 47.0986 5.13727C47.0986 3.47521 48.3074 2.26644 49.991 2.26644C51.6531 2.26644 52.851 3.47521 52.851 5.14806C52.851 5.25599 52.851 5.3855 52.8403 5.50422H48.016C48.1455 6.60506 48.9441 7.33895 50.0558 7.33895C50.8652 7.33895 51.5775 6.92884 51.9229 6.28128L52.6676 6.65902C52.2251 7.58718 51.243 8.1484 50.0342 8.1484ZM48.0268 4.71636H51.9121C51.7502 3.73423 50.9839 3.07589 49.9478 3.07589C48.9441 3.07589 48.1779 3.73423 48.0268 4.71636Z" fill="#202125"/>
<path d="M56.464 8.1484C54.8991 8.1484 53.9925 7.38212 53.9925 6.08702H54.8559C54.8667 6.86408 55.4711 7.39292 56.4964 7.39292C57.3166 7.39292 57.8455 7.04756 57.8455 6.47555C57.8455 5.76324 57.1008 5.70927 56.2806 5.60135C55.2661 5.48263 54.0897 5.21282 54.0897 3.97167C54.0897 2.914 54.9747 2.26644 56.2806 2.26644C57.6404 2.26644 58.5686 2.98954 58.5686 4.11197H57.6944C57.6836 3.44283 57.1116 3.02192 56.2698 3.02192C55.4819 3.02192 54.9423 3.37808 54.9423 3.93929C54.9423 4.61922 55.6762 4.67319 56.4856 4.77032C57.5109 4.89983 58.6873 5.15885 58.6873 6.46476C58.6873 7.53322 57.8563 8.1484 56.464 8.1484Z" fill="#202125"/>
<path d="M60.6507 1.44621C60.273 1.44621 60.0032 1.17639 60.0032 0.798651C60.0032 0.431703 60.273 0.172681 60.6507 0.172681C61.0285 0.172681 61.2875 0.431703 61.2875 0.798651C61.2875 1.17639 61.0285 1.44621 60.6507 1.44621ZM61.0932 7.93255H60.1974V2.48229H61.0932V7.93255Z" fill="#202125"/>
<path d="M65.4742 10.6307C64.0712 10.6307 63.0351 9.95076 62.6682 8.81754L63.5639 8.48297C63.8553 9.32479 64.5461 9.82125 65.5174 9.82125C66.7046 9.82125 67.4817 9.05497 67.4817 7.83541V7.10152H67.3737C66.8989 7.7059 66.2405 8.07285 65.3879 8.07285C63.7474 8.07285 62.5602 6.87487 62.5602 5.20202C62.5602 3.51838 63.7474 2.27723 65.3879 2.27723C66.2621 2.27723 66.9204 2.65497 67.3845 3.25936H67.4924V2.48229H68.3774V7.83541C68.3774 9.54064 67.2334 10.6307 65.4742 10.6307ZM65.485 7.28499C66.6614 7.28499 67.514 6.4 67.514 5.20202C67.514 3.97167 66.6506 3.07589 65.485 3.07589C64.3086 3.07589 63.456 3.97167 63.456 5.20202C63.456 6.4 64.3086 7.28499 65.485 7.28499Z" fill="#202125"/>
<path d="M70.9247 7.93255H70.0289V2.48229H70.9247V3.22698H71.0326C71.4211 2.6226 72.0255 2.27723 72.7486 2.27723C74.13 2.27723 75.015 3.29174 75.015 4.67319V7.93255H74.1193V4.67319C74.1193 3.75582 73.5688 3.08668 72.6299 3.08668C71.7125 3.08668 70.9247 3.79899 70.9247 4.74873V7.93255Z" fill="#202125"/>
<path d="M41.087 18.7251H40.1912V13.2749H41.0546V13.998H41.1625C41.4647 13.4368 42.0367 13.059 42.749 13.059C43.5153 13.059 44.2168 13.4799 44.5298 14.1167H44.6269C45.0047 13.4799 45.6306 13.0698 46.4509 13.0698C47.7352 13.0698 48.6526 14.0627 48.6526 15.4766V18.7251H47.7568V15.4658C47.7568 14.5376 47.1632 13.8685 46.343 13.8685C45.4688 13.8685 44.8536 14.5376 44.8536 15.4658V18.7251H43.9578V15.4658C43.9578 14.5052 43.3966 13.8685 42.5548 13.8685C41.6698 13.8685 41.087 14.5052 41.087 15.4658V18.7251Z" fill="#202125"/>
<path d="M51.7256 18.8978C50.5492 18.8978 49.7721 18.2826 49.7721 17.3437C49.7721 16.3831 50.5924 15.6708 52.2113 15.4874L53.7222 15.3039V15.088C53.7222 14.3541 53.1934 13.8793 52.2976 13.8793C51.4774 13.8793 50.9377 14.2786 50.9485 14.9585H50.0419C50.0419 13.8037 50.9377 13.0698 52.3084 13.0698C53.7222 13.0698 54.618 13.8685 54.618 15.1096V18.7251H53.7222V17.9265H53.6251C53.2365 18.5524 52.5998 18.8978 51.7256 18.8978ZM51.8551 18.1531C52.9667 18.1531 53.7222 17.4732 53.7222 16.5558V16.0702L52.2113 16.2428C51.0996 16.3831 50.6679 16.8148 50.6679 17.3221C50.6679 17.8401 51.1212 18.1531 51.8551 18.1531Z" fill="#202125"/>
<path d="M57.065 18.7251H56.1693V13.2749H57.065V14.0196H57.173C57.5615 13.4152 58.1659 13.0698 58.889 13.0698C60.2704 13.0698 61.1554 14.0843 61.1554 15.4658V18.7251H60.2596V15.4658C60.2596 14.5484 59.7092 13.8793 58.7703 13.8793C57.8529 13.8793 57.065 14.5916 57.065 15.5413V18.7251Z" fill="#202125"/>
<path d="M64.2256 18.8978C63.0492 18.8978 62.2721 18.2826 62.2721 17.3437C62.2721 16.3831 63.0924 15.6708 64.7113 15.4874L66.2222 15.3039V15.088C66.2222 14.3541 65.6934 13.8793 64.7976 13.8793C63.9774 13.8793 63.4377 14.2786 63.4485 14.9585H62.5419C62.5419 13.8037 63.4377 13.0698 64.8084 13.0698C66.2222 13.0698 67.118 13.8685 67.118 15.1096V18.7251H66.2222V17.9265H66.1251C65.7365 18.5524 65.0998 18.8978 64.2256 18.8978ZM64.3551 18.1531C65.4667 18.1531 66.2222 17.4732 66.2222 16.5558V16.0702L64.7113 16.2428C63.5996 16.3831 63.1679 16.8148 63.1679 17.3221C63.1679 17.8401 63.6212 18.1531 64.3551 18.1531Z" fill="#202125"/>
<path d="M71.3027 21.4233C69.8996 21.4233 68.8635 20.7433 68.4966 19.6101L69.3924 19.2755C69.6838 20.1174 70.3745 20.6138 71.3458 20.6138C72.533 20.6138 73.3101 19.8476 73.3101 18.628V17.8941H73.2021C72.7273 18.4985 72.0689 18.8654 71.2163 18.8654C69.5758 18.8654 68.3887 17.6675 68.3887 15.9946C68.3887 14.311 69.5758 13.0698 71.2163 13.0698C72.0905 13.0698 72.7489 13.4476 73.2129 14.0519H73.3209V13.2749H74.2059V18.628C74.2059 20.3332 73.0618 21.4233 71.3027 21.4233ZM71.3134 18.0776C72.4898 18.0776 73.3424 17.1926 73.3424 15.9946C73.3424 14.7642 72.479 13.8685 71.3134 13.8685C70.137 13.8685 69.2844 14.7642 69.2844 15.9946C69.2844 17.1926 70.137 18.0776 71.3134 18.0776Z" fill="#202125"/>
<path d="M78.5123 18.941C76.807 18.941 75.5767 17.6782 75.5767 15.9298C75.5767 14.2678 76.7854 13.059 78.4691 13.059C80.1311 13.059 81.3291 14.2678 81.3291 15.9406C81.3291 16.0486 81.3291 16.1781 81.3183 16.2968H76.494C76.6236 17.3976 77.4222 18.1315 78.5338 18.1315C79.3433 18.1315 80.0556 17.7214 80.401 17.0739L81.1457 17.4516C80.7032 18.3798 79.721 18.941 78.5123 18.941ZM76.5048 15.5089H80.3902C80.2283 14.5268 79.462 13.8685 78.4259 13.8685C77.4222 13.8685 76.6559 14.5268 76.5048 15.5089Z" fill="#202125"/>
<path d="M83.6038 18.7251H82.708V13.2749H83.5714V13.998H83.6794C83.9816 13.4368 84.5536 13.059 85.2659 13.059C86.0322 13.059 86.7337 13.4799 87.0467 14.1167H87.1438C87.5215 13.4799 88.1475 13.0698 88.9677 13.0698C90.2521 13.0698 91.1694 14.0627 91.1694 15.4766V18.7251H90.2736V15.4658C90.2736 14.5376 89.6801 13.8685 88.8598 13.8685C87.9856 13.8685 87.3704 14.5376 87.3704 15.4658V18.7251H86.4747V15.4658C86.4747 14.5052 85.9134 13.8685 85.0716 13.8685C84.1866 13.8685 83.6038 14.5052 83.6038 15.4658V18.7251Z" fill="#202125"/>
<path d="M95.3757 18.941C93.6704 18.941 92.4401 17.6782 92.4401 15.9298C92.4401 14.2678 93.6489 13.059 95.3325 13.059C96.9946 13.059 98.1925 14.2678 98.1925 15.9406C98.1925 16.0486 98.1925 16.1781 98.1817 16.2968H93.3575C93.487 17.3976 94.2856 18.1315 95.3973 18.1315C96.2067 18.1315 96.919 17.7214 97.2644 17.0739L98.0091 17.4516C97.5666 18.3798 96.5844 18.941 95.3757 18.941ZM93.3682 15.5089H97.2536C97.0917 14.5268 96.3254 13.8685 95.2893 13.8685C94.2856 13.8685 93.5193 14.5268 93.3682 15.5089Z" fill="#202125"/>
<path d="M100.467 18.7251H99.5714V13.2749H100.467V14.0196H100.575C100.964 13.4152 101.568 13.0698 102.291 13.0698C103.673 13.0698 104.558 14.0843 104.558 15.4658V18.7251H103.662V15.4658C103.662 14.5484 103.111 13.8793 102.172 13.8793C101.255 13.8793 100.467 14.5916 100.467 15.5413V18.7251Z" fill="#202125"/>
<path d="M108.081 18.9302C107.164 18.9302 106.581 18.2826 106.581 17.3221V13.9872H105.696V13.2749H106.581L106.786 11.5157H107.487L107.477 13.2749H108.88V13.9872H107.477V17.2897C107.477 17.8078 107.8 18.1747 108.319 18.1747C108.48 18.1747 108.761 18.1315 108.966 18.0668V18.7899C108.707 18.8762 108.351 18.9302 108.081 18.9302Z" fill="#202125"/>
<path d="M43.1807 23.8516C44.7672 23.8516 45.9976 25.082 45.9976 26.7872C45.9976 28.4924 44.778 29.7336 43.1915 29.7336C42.3173 29.7336 41.5834 29.3558 41.1841 28.7083H41.087V32H40.1912V24.0675H41.087V24.8985H41.1841C41.5834 24.2401 42.2849 23.8516 43.1807 23.8516ZM43.0836 24.661C41.9072 24.661 41.0546 25.5892 41.0546 26.7872C41.0546 27.9852 41.9072 28.9241 43.0836 28.9241C44.2492 28.9241 45.1018 27.9852 45.1018 26.7872C45.1018 25.5676 44.2492 24.661 43.0836 24.661Z" fill="#202125"/>
<path d="M48.901 29.6904C47.7246 29.6904 46.9475 29.0752 46.9475 28.1363C46.9475 27.1757 47.7677 26.4634 49.3866 26.2799L50.8976 26.0965V25.8806C50.8976 25.1467 50.3688 24.6718 49.473 24.6718C48.6527 24.6718 48.1131 25.0712 48.1239 25.7511H47.2173C47.2173 24.5963 48.1131 23.8624 49.4838 23.8624C50.8976 23.8624 51.7934 24.661 51.7934 25.9022V29.5177H50.8976V28.7191H50.8005C50.4119 29.345 49.7752 29.6904 48.901 29.6904ZM49.0305 28.9457C50.1421 28.9457 50.8976 28.2658 50.8976 27.3484V26.8627L49.3866 27.0354C48.275 27.1757 47.8433 27.6074 47.8433 28.1147C47.8433 28.6327 48.2966 28.9457 49.0305 28.9457Z" fill="#202125"/>
<path d="M55.3197 29.7228C54.4023 29.7228 53.8195 29.0752 53.8195 28.1147V24.7798H52.9345V24.0675H53.8195L54.0246 22.3083H54.7261L54.7153 24.0675H56.1183V24.7798H54.7153V28.0823C54.7153 28.6003 55.0391 28.9673 55.5571 28.9673C55.719 28.9673 55.9996 28.9241 56.2047 28.8594V29.5825C55.9457 29.6688 55.5895 29.7228 55.3197 29.7228Z" fill="#202125"/>
<path d="M59.5355 29.7228C58.6182 29.7228 58.0354 29.0752 58.0354 28.1147V24.7798H57.1504V24.0675H58.0354L58.2404 22.3083H58.9419L58.9311 24.0675H60.3342V24.7798H58.9311V28.0823C58.9311 28.6003 59.2549 28.9673 59.773 28.9673C59.9349 28.9673 60.2155 28.9241 60.4205 28.8594V29.5825C60.1615 29.6688 59.8053 29.7228 59.5355 29.7228Z" fill="#202125"/>
<path d="M64.2311 29.7336C62.5258 29.7336 61.2955 28.4708 61.2955 26.7224C61.2955 25.0604 62.5043 23.8516 64.1879 23.8516C65.85 23.8516 67.0479 25.0604 67.0479 26.7332C67.0479 26.8411 67.0479 26.9707 67.0371 27.0894H62.2129C62.3424 28.1902 63.141 28.9241 64.2526 28.9241C65.0621 28.9241 65.7744 28.514 66.1198 27.8664L66.8645 28.2442C66.422 29.1723 65.4398 29.7336 64.2311 29.7336ZM62.2236 26.3015H66.109C65.9471 25.3194 65.1808 24.661 64.1447 24.661C63.141 24.661 62.3747 25.3194 62.2236 26.3015Z" fill="#202125"/>
<path d="M69.3226 29.5177H68.4268V24.0675H69.301V24.8013H69.3982C69.6464 24.3049 70.2508 23.9595 70.8552 23.9595C71.1034 23.9595 71.3624 24.0135 71.5243 24.0998V24.9309C71.2437 24.8121 70.9199 24.769 70.7149 24.769C69.8946 24.769 69.3226 25.5029 69.3226 26.5821V29.5177Z" fill="#202125"/>
<path d="M73.5701 29.5177H72.6743V24.0675H73.5701V24.8121H73.678C74.0666 24.2078 74.6709 23.8624 75.394 23.8624C76.7755 23.8624 77.6605 24.8769 77.6605 26.2583V29.5177H76.7647V26.2583C76.7647 25.341 76.2143 24.6718 75.2753 24.6718C74.358 24.6718 73.5701 25.3841 73.5701 26.3339V29.5177Z" fill="#202125"/>
<path d="M81.443 29.7336C79.878 29.7336 78.9715 28.9673 78.9715 27.6722H79.8349C79.8456 28.4492 80.45 28.9781 81.4753 28.9781C82.2956 28.9781 82.8244 28.6327 82.8244 28.0607C82.8244 27.3484 82.0797 27.2944 81.2595 27.1865C80.245 27.0678 79.0686 26.798 79.0686 25.5568C79.0686 24.4992 79.9536 23.8516 81.2595 23.8516C82.6193 23.8516 83.5475 24.5747 83.5475 25.6971H82.6733C82.6625 25.028 82.0905 24.6071 81.2487 24.6071C80.4608 24.6071 79.9212 24.9632 79.9212 25.5245C79.9212 26.2044 80.6551 26.2583 81.4645 26.3555C82.4898 26.485 83.6662 26.744 83.6662 28.0499C83.6662 29.1184 82.8352 29.7336 81.443 29.7336Z" fill="#202125"/>
</svg>
