<svg width="127" height="56" viewBox="0 0 127 56" fill="none" xmlns="http://www.w3.org/2000/svg">
<path fill-rule="evenodd" clip-rule="evenodd" d="M94.4533 19.2731H102.449C103.182 19.2731 103.888 19.3563 104.565 19.5227C105.244 19.6891 105.877 19.9242 106.467 20.2284C107.057 20.5327 107.595 20.8978 108.082 21.3237C108.57 21.7499 108.989 22.2223 109.336 22.7419C109.685 23.2609 109.954 23.8165 110.144 24.4091C110.335 25.0014 110.43 25.6178 110.43 26.2587C110.43 27.2164 110.221 28.1188 109.803 28.9668C109.386 29.8145 108.814 30.5548 108.09 31.1879C107.365 31.8206 106.518 32.3195 105.548 32.6849C104.578 33.05 103.544 33.2324 102.449 33.2324H98.4511V36.7253H94.4533V19.2731ZM98.4613 22.764V29.7496H102.634C103.162 29.7496 103.66 29.6586 104.125 29.4762C104.592 29.2932 105 29.0439 105.349 28.7276C105.698 28.4108 105.973 28.0399 106.176 27.6138C106.377 27.1882 106.477 26.7355 106.477 26.257C106.477 25.7784 106.377 25.326 106.176 24.8999C105.973 24.474 105.698 24.1028 105.349 23.7863C105 23.47 104.592 23.2204 104.125 23.038C103.66 22.8551 103.162 22.764 102.634 22.764H98.4613ZM73.0769 19.2731H81.0723C81.8058 19.2731 82.5116 19.3563 83.1892 19.5227C83.8673 19.6891 84.5009 19.9242 85.0908 20.2284C85.6806 20.5327 86.2191 20.8978 86.7063 21.3237C87.194 21.7499 87.6119 22.2223 87.9599 22.7419C88.3086 23.2609 88.5778 23.8165 88.7682 24.4091C88.9582 25.0014 89.0538 25.6178 89.0538 26.2587C89.0538 27.2164 88.8447 28.1188 88.4268 28.9668C88.0087 29.8145 87.4378 30.5548 86.7134 31.1879C85.9893 31.8206 85.1419 32.3195 84.1716 32.6849C83.201 33.05 82.1679 33.2324 81.0723 33.2324H77.0746V36.7253H73.0769V19.2731ZM77.085 22.764V29.7496H81.2574C81.7858 29.7496 82.2831 29.6586 82.749 29.4762C83.215 29.2932 83.6225 29.0439 83.9722 28.7276C84.3215 28.4108 84.5971 28.0399 84.7989 27.6138C85.0002 27.1882 85.1011 26.7355 85.1011 26.257C85.1011 25.7784 85.0002 25.326 84.7989 24.8999C84.5971 24.474 84.3215 24.1028 83.9722 23.7863C83.6225 23.47 83.215 23.2204 82.749 23.038C82.2831 22.8551 81.7858 22.764 81.2574 22.764H77.085ZM61.0527 36.7253H65.0504V19.2734H61.0527V36.7253ZM51.0325 19.2731L45.6099 26.2549H43.6844V19.2731H39.6763V36.7204L43.6844 36.7276V29.7458H45.6884L51.0325 36.7204H55.7086L49.0285 28.0004L55.7086 19.2731H51.0325ZM22.9536 19.2757C22.1269 19.2757 21.3517 19.4136 20.6272 19.6894C19.9028 19.9652 19.2692 20.3404 18.7258 20.8152C18.1827 21.2897 17.7535 21.8436 17.4375 22.4763C17.1219 23.109 16.9639 23.7868 16.9639 24.5089C16.9639 25.2309 17.1219 25.9102 17.4375 26.5473C17.7535 27.1844 18.1827 27.74 18.7258 28.2145C19.2692 28.6892 19.9028 29.0645 20.6272 29.3403C21.3517 29.6164 22.1269 29.754 22.9536 29.754H26.951C27.2295 29.754 27.4898 29.7988 27.7309 29.8881C27.9724 29.9774 28.1838 30.101 28.3648 30.2593C28.5458 30.4172 28.6875 30.602 28.7897 30.8129C28.8916 31.0238 28.9426 31.2513 28.9426 31.4945C28.9426 31.738 28.8916 31.9652 28.7897 32.1758C28.6875 32.387 28.5458 32.5714 28.3648 32.73C28.1838 32.8879 27.9724 33.0116 27.7309 33.1009C27.4898 33.1902 27.2295 33.2347 26.951 33.2347H18.2976V36.7276H26.951C27.7777 36.7276 28.5552 36.5898 29.2844 36.314C30.0132 36.0379 30.6495 35.6629 31.1925 35.1882C31.7356 34.7134 32.1628 34.1598 32.4741 33.5268C32.7851 32.894 32.9404 32.2165 32.9404 31.4945C32.9404 30.7724 32.7851 30.0929 32.4741 29.4561C32.1628 28.819 31.7356 28.2634 31.1925 27.7886C30.6495 27.3138 30.0132 26.9409 29.2844 26.6692C28.5552 26.3972 27.7777 26.261 26.951 26.261H22.9536C22.6747 26.261 22.4148 26.2165 22.1734 26.1275C21.9319 26.0382 21.7208 25.9146 21.5394 25.756C21.3584 25.598 21.2168 25.4113 21.1146 25.1963C21.0124 24.9813 20.9613 24.7521 20.9613 24.5089C20.9613 24.2654 21.0124 24.0382 21.1146 23.8273C21.2168 23.6164 21.3584 23.4316 21.5394 23.2734C21.7208 23.1151 21.9319 22.9915 22.1734 22.9022C22.4148 22.8129 22.6747 22.7684 22.9536 22.7684L31.6114 22.766V19.2731L22.9536 19.2757Z" fill="url(#paint0_linear_20_1285)"/>
<defs>
<linearGradient id="paint0_linear_20_1285" x1="63.697" y1="19.2731" x2="63.697" y2="36.7276" gradientUnits="userSpaceOnUse">
<stop stop-color="#05070B"/>
<stop offset="1" stop-color="#3B3B3E"/>
</linearGradient>
</defs>
</svg>
