<svg width="126" height="56" viewBox="0 0 126 56" fill="none" xmlns="http://www.w3.org/2000/svg">
<path fill-rule="evenodd" clip-rule="evenodd" d="M93.932 19H101.973C102.711 19 103.421 19.0858 104.101 19.2574C104.784 19.429 105.421 19.6714 106.014 19.9852C106.608 20.299 107.149 20.6755 107.639 21.1147C108.129 21.5542 108.551 22.0414 108.9 22.5772C109.251 23.1124 109.521 23.6854 109.712 24.2965C109.904 24.9073 110 25.543 110 26.2039C110 27.1915 109.79 28.1222 109.369 28.9967C108.95 29.8708 108.375 30.6343 107.647 31.2872C106.917 31.9396 106.066 32.4541 105.09 32.831C104.115 33.2075 103.075 33.3956 101.973 33.3956H97.9527V36.9976H93.932V19ZM97.9629 22.6V29.8039H102.159C102.69 29.8039 103.191 29.7101 103.659 29.522C104.129 29.3333 104.539 29.0762 104.89 28.75C105.241 28.4233 105.518 28.0408 105.722 27.6014C105.924 27.1625 106.024 26.6956 106.024 26.2022C106.024 25.7086 105.924 25.2421 105.722 24.8027C105.518 24.3634 105.241 23.9806 104.89 23.6543C104.539 23.3281 104.129 23.0707 103.659 22.8826C103.191 22.6939 102.69 22.6 102.159 22.6H97.9629ZM72.4335 19H80.4746C81.2123 19 81.9221 19.0858 82.6036 19.2574C83.2856 19.429 83.9228 19.6714 84.5161 19.9852C85.1092 20.299 85.6508 20.6755 86.1408 21.1147C86.6313 21.5542 87.0516 22.0414 87.4015 22.5772C87.7522 23.1124 88.023 23.6854 88.2145 24.2965C88.4055 24.9073 88.5017 25.543 88.5017 26.2039C88.5017 27.1915 88.2914 28.1222 87.8711 28.9967C87.4506 29.8708 86.8765 30.6343 86.1479 31.2872C85.4197 31.9396 84.5674 32.4541 83.5916 32.831C82.6155 33.2075 81.5765 33.3956 80.4746 33.3956H76.4541V36.9976H72.4335V19ZM76.4645 22.6V29.8039H80.6608C81.1922 29.8039 81.6923 29.7101 82.1609 29.522C82.6295 29.3333 83.0394 29.0762 83.3911 28.75C83.7424 28.4233 84.0195 28.0408 84.2225 27.6014C84.4249 27.1625 84.5264 26.6956 84.5264 26.2022C84.5264 25.7086 84.4249 25.2421 84.2225 24.8027C84.0195 24.3634 83.7424 23.9806 83.3911 23.6543C83.0394 23.3281 82.6295 23.0707 82.1609 22.8826C81.6923 22.6939 81.1922 22.6 80.6608 22.6H76.4645ZM60.3406 36.9976H64.3612V19.0003H60.3406V36.9976ZM50.2632 19L44.8096 26.2H42.8731V19H38.8421V36.9926L42.8731 37V29.8H44.8886L50.2632 36.9926H54.966L48.2478 28.0001L54.966 19H50.2632ZM22.0239 19.0027C21.1925 19.0027 20.4129 19.1449 19.6842 19.4293C18.9557 19.7137 18.3185 20.1007 17.772 20.5903C17.2258 21.0796 16.7941 21.6508 16.4763 22.3033C16.1589 22.9558 16 23.6548 16 24.3994C16 25.144 16.1589 25.8445 16.4763 26.5015C16.7941 27.1585 17.2258 27.7315 17.772 28.2208C18.3185 28.7104 18.9557 29.0974 19.6842 29.3818C20.4129 29.6666 21.1925 29.8085 22.0239 29.8085H26.0441C26.3242 29.8085 26.586 29.8547 26.8285 29.9467C27.0714 30.0388 27.284 30.1663 27.466 30.3295C27.6481 30.4924 27.7906 30.683 27.8934 30.9004C27.9958 31.1179 28.0471 31.3525 28.0471 31.6034C28.0471 31.8545 27.9958 32.0888 27.8934 32.3059C27.7906 32.5237 27.6481 32.7139 27.466 32.8775C27.284 33.0403 27.0714 33.1679 26.8285 33.26C26.586 33.352 26.3242 33.3979 26.0441 33.3979H17.3413V37H26.0441C26.8756 37 27.6575 36.8579 28.3909 36.5735C29.1238 36.2887 29.7638 35.902 30.3099 35.4125C30.8561 34.9229 31.2857 34.3519 31.5988 33.6992C31.9116 33.0466 32.0678 32.3479 32.0678 31.6034C32.0678 30.8587 31.9116 30.1579 31.5988 29.5012C31.2857 28.8442 30.8561 28.2713 30.3099 27.7816C29.7638 27.292 29.1238 26.9074 28.3909 26.6272C27.6575 26.3467 26.8756 26.2063 26.0441 26.2063H22.0239C21.7434 26.2063 21.482 26.1604 21.2393 26.0686C20.9964 25.9765 20.7841 25.8491 20.6016 25.6855C20.4196 25.5226 20.2772 25.33 20.1744 25.1083C20.0716 24.8866 20.0202 24.6502 20.0202 24.3994C20.0202 24.1483 20.0716 23.914 20.1744 23.6965C20.2772 23.479 20.4196 23.2885 20.6016 23.1253C20.7841 22.9621 20.9964 22.8346 21.2393 22.7425C21.482 22.6504 21.7434 22.6045 22.0239 22.6045L30.7312 22.6021V19L22.0239 19.0027Z" fill="url(#paint0_linear_2016_251)"/>
<defs>
<linearGradient id="paint0_linear_2016_251" x1="63" y1="19" x2="63" y2="37" gradientUnits="userSpaceOnUse">
<stop stop-color="#05070B"/>
<stop offset="1" stop-color="#3B3B3E"/>
</linearGradient>
</defs>
</svg>
