<svg width="135" height="56" viewBox="0 0 135 56" fill="none" xmlns="http://www.w3.org/2000/svg">
<path fill-rule="evenodd" clip-rule="evenodd" d="M19.2062 14.2498C16.9639 16.4992 16.9639 20.1196 16.9639 27.3604V28.6404C16.9639 35.8811 16.9639 39.5015 19.2062 41.7509C21.4485 44.0004 25.0575 44.0004 32.2755 44.0004H33.5514C40.7694 44.0004 44.3784 44.0004 46.6207 41.7509C48.863 39.5015 48.863 35.8811 48.863 28.6404V27.3604C48.863 20.1196 48.863 16.4992 46.6207 14.2498C44.3784 12.0004 40.7694 12.0004 33.5514 12.0004H32.2755C25.0575 12.0004 21.4485 12.0004 19.2062 14.2498ZM22.3469 21.7338C22.5197 30.0538 26.6665 35.0538 33.9369 35.0538H34.349V30.2937C37.0206 30.5604 39.0407 32.5204 39.8515 35.0538H43.6263C42.5896 31.2671 39.8647 29.1737 38.1634 28.3737C39.8647 27.3871 42.2572 24.9871 42.8287 21.7338H39.3994C38.6551 24.3738 36.449 26.7737 34.349 27.0004V21.7338H30.9197V30.9604C28.7931 30.4271 26.1083 27.8404 25.9887 21.7338H22.3469Z" fill="url(#paint0_linear_20_1276)"/>
<path d="M70.6058 34.9788L70.3248 37.7985H67.5984C66.0056 37.7985 64.7971 37.4225 63.9726 36.6705C63.1481 35.8999 62.7359 34.7909 62.7359 33.3435V25.9562H60.3467V23.1365H62.7359L63.551 18.9073H65.9681V23.1365H70.3248V25.9562H65.9681V33.3435C65.9681 34.4338 66.5116 34.9788 67.5984 34.9788H70.6058ZM87.2064 30.2983C87.2064 30.5803 87.1878 30.9281 87.1502 31.3416H75.4015C75.5515 32.4882 76.0199 33.4092 76.8068 34.1048C77.5939 34.7814 78.5964 35.1199 79.8144 35.1199C80.6387 35.1199 81.3789 34.9601 82.0348 34.6405C82.7093 34.321 83.2247 33.8886 83.5806 33.3435L86.6161 33.8509C86.0915 35.2043 85.1828 36.2476 83.8898 36.9807C82.6157 37.7139 81.1915 38.0804 79.6176 38.0804C78.156 38.0804 76.8444 37.7608 75.6826 37.1217C74.5396 36.4638 73.6401 35.5615 72.9843 34.4149C72.3472 33.2495 72.0287 31.9337 72.0287 30.4675C72.0287 29.0013 72.3472 27.695 72.9843 26.5483C73.6401 25.3829 74.5396 24.4806 75.6826 23.8415C76.8444 23.1837 78.156 22.8546 79.6176 22.8546C81.0792 22.8546 82.3813 23.1837 83.5244 23.8415C84.6861 24.4806 85.5856 25.3735 86.2227 26.5201C86.8785 27.6479 87.2064 28.9074 87.2064 30.2983ZM79.6176 25.6741C78.6432 25.6741 77.7906 25.9562 77.0599 26.5201C76.3479 27.0841 75.8606 27.8453 75.5983 28.804H83.6931C83.4121 27.8641 82.9061 27.1123 82.1753 26.5483C81.4632 25.9656 80.6106 25.6741 79.6176 25.6741ZM96.4989 38.0804C95.0373 38.0804 93.7257 37.7608 92.564 37.1217C91.4022 36.4638 90.4934 35.5615 89.8376 34.4149C89.2005 33.2495 88.8819 31.9337 88.8819 30.4675C88.8819 29.0013 89.2005 27.695 89.8376 26.5483C90.4934 25.3829 91.4022 24.4806 92.564 23.8415C93.7257 23.1837 95.0373 22.8546 96.4989 22.8546C98.1104 22.8546 99.5344 23.2588 100.771 24.067C102.027 24.8566 102.917 25.9844 103.441 27.4506L100.406 27.958C100.087 27.3189 99.5907 26.8018 98.916 26.4071C98.2602 26.0124 97.5201 25.815 96.6956 25.815C95.384 25.815 94.3158 26.2473 93.4915 27.1121C92.667 27.9767 92.2547 29.0952 92.2547 30.4673C92.2547 31.8395 92.667 32.9579 93.4915 33.8227C94.3158 34.6873 95.384 35.1197 96.6956 35.1197C97.5576 35.1197 98.3259 34.9223 99.0004 34.5275C99.675 34.1141 100.181 33.5783 100.518 32.9204L103.554 33.4278C103.029 34.9128 102.12 36.0595 100.827 36.8678C99.5344 37.676 98.0915 38.0804 96.4989 38.0804ZM105.95 37.7985V17.9204H109.182V25.0539C109.651 24.3584 110.26 23.8228 111.009 23.4468C111.759 23.0519 112.555 22.8546 113.399 22.8546C114.448 22.8546 115.394 23.1178 116.237 23.6441C117.081 24.1704 117.746 24.8941 118.233 25.8151C118.72 26.7363 118.964 27.7796 118.964 28.9449V37.7985H115.732V29.3115C115.732 28.2588 115.432 27.4035 114.832 26.7456C114.232 26.0877 113.464 25.7589 112.527 25.7589C111.553 25.7589 110.747 26.0972 110.11 26.7738C109.492 27.4317 109.182 28.2777 109.182 29.3115V37.7985H105.95Z" fill="url(#paint1_linear_20_1276)"/>
<defs>
<linearGradient id="paint0_linear_20_1276" x1="67.9639" y1="12.0004" x2="67.9639" y2="44.0004" gradientUnits="userSpaceOnUse">
<stop stop-color="#05070B"/>
<stop offset="1" stop-color="#3B3B3E"/>
</linearGradient>
<linearGradient id="paint1_linear_20_1276" x1="67.9639" y1="12.0004" x2="67.9639" y2="44.0004" gradientUnits="userSpaceOnUse">
<stop stop-color="#05070B"/>
<stop offset="1" stop-color="#3B3B3E"/>
</linearGradient>
</defs>
</svg>
