<svg width="134" height="56" viewBox="0 0 134 56" fill="none" xmlns="http://www.w3.org/2000/svg">
<path fill-rule="evenodd" clip-rule="evenodd" d="M18.2423 14.2498C16 16.4992 16 20.1196 16 27.3604V28.6404C16 35.8811 16 39.5015 18.2423 41.7509C20.4846 44.0004 24.0936 44.0004 31.3116 44.0004H32.5875C39.8055 44.0004 43.4145 44.0004 45.6568 41.7509C47.8991 39.5015 47.8991 35.8811 47.8991 28.6404V27.3604C47.8991 20.1196 47.8991 16.4992 45.6568 14.2498C43.4145 12.0004 39.8055 12.0004 32.5875 12.0004H31.3116C24.0936 12.0004 20.4846 12.0004 18.2423 14.2498ZM21.383 21.7338C21.5558 30.0538 25.7026 35.0538 32.973 35.0538H33.3851V30.2937C36.0567 30.5604 38.0768 32.5204 38.8876 35.0538H42.6624C41.6257 31.2671 38.9008 29.1737 37.1995 28.3737C38.9008 27.3871 41.2933 24.9871 41.8648 21.7338H38.4355C37.6912 24.3738 35.4851 26.7737 33.3851 27.0004V21.7338H29.9558V30.9604C27.8292 30.4271 25.1444 27.8404 25.0248 21.7338H21.383Z" fill="url(#paint0_linear_2016_253)"/>
<path d="M69.6419 34.9788L69.3609 37.7985H66.6345C65.0417 37.7985 63.8332 37.4225 63.0087 36.6705C62.1842 35.8999 61.772 34.7909 61.772 33.3435V25.9562H59.3828V23.1365H61.772L62.5871 18.9073H65.0042V23.1365H69.3609V25.9562H65.0042V33.3435C65.0042 34.4338 65.5477 34.9788 66.6345 34.9788H69.6419ZM86.2425 30.2983C86.2425 30.5803 86.2239 30.9281 86.1863 31.3416H74.4376C74.5876 32.4882 75.056 33.4092 75.8429 34.1048C76.63 34.7814 77.6325 35.1199 78.8505 35.1199C79.6748 35.1199 80.415 34.9601 81.0709 34.6405C81.7454 34.321 82.2608 33.8886 82.6167 33.3435L85.6522 33.8509C85.1276 35.2043 84.2189 36.2476 82.9259 36.9807C81.6518 37.7139 80.2276 38.0804 78.6537 38.0804C77.1921 38.0804 75.8805 37.7608 74.7187 37.1217C73.5757 36.4638 72.6762 35.5615 72.0204 34.4149C71.3833 33.2495 71.0648 31.9337 71.0648 30.4675C71.0648 29.0013 71.3833 27.695 72.0204 26.5483C72.6762 25.3829 73.5757 24.4806 74.7187 23.8415C75.8805 23.1837 77.1921 22.8546 78.6537 22.8546C80.1153 22.8546 81.4174 23.1837 82.5605 23.8415C83.7222 24.4806 84.6217 25.3735 85.2588 26.5201C85.9146 27.6479 86.2425 28.9074 86.2425 30.2983ZM78.6537 25.6741C77.6793 25.6741 76.8267 25.9562 76.096 26.5201C75.384 27.0841 74.8967 27.8453 74.6344 28.804H82.7292C82.4482 27.8641 81.9422 27.1123 81.2114 26.5483C80.4993 25.9656 79.6467 25.6741 78.6537 25.6741ZM95.535 38.0804C94.0734 38.0804 92.7618 37.7608 91.6001 37.1217C90.4383 36.4638 89.5295 35.5615 88.8737 34.4149C88.2366 33.2495 87.918 31.9337 87.918 30.4675C87.918 29.0013 88.2366 27.695 88.8737 26.5483C89.5295 25.3829 90.4383 24.4806 91.6001 23.8415C92.7618 23.1837 94.0734 22.8546 95.535 22.8546C97.1465 22.8546 98.5705 23.2588 99.8071 24.067C101.063 24.8566 101.953 25.9844 102.477 27.4506L99.4421 27.958C99.1231 27.3189 98.6268 26.8018 97.9521 26.4071C97.2963 26.0124 96.5562 25.815 95.7317 25.815C94.4201 25.815 93.3519 26.2473 92.5276 27.1121C91.7031 27.9767 91.2908 29.0952 91.2908 30.4673C91.2908 31.8395 91.7031 32.9579 92.5276 33.8227C93.3519 34.6873 94.4201 35.1197 95.7317 35.1197C96.5937 35.1197 97.362 34.9223 98.0365 34.5275C98.7111 34.1141 99.2171 33.5783 99.5541 32.9204L102.59 33.4278C102.065 34.9128 101.156 36.0595 99.8631 36.8678C98.5705 37.676 97.1276 38.0804 95.535 38.0804ZM104.986 37.7985V17.9204H108.218V25.0539C108.687 24.3584 109.296 23.8228 110.045 23.4468C110.795 23.0519 111.591 22.8546 112.435 22.8546C113.484 22.8546 114.43 23.1178 115.273 23.6441C116.117 24.1704 116.782 24.8941 117.269 25.8151C117.756 26.7363 118 27.7796 118 28.9449V37.7985H114.768V29.3115C114.768 28.2588 114.468 27.4035 113.868 26.7456C113.268 26.0877 112.5 25.7589 111.563 25.7589C110.589 25.7589 109.783 26.0972 109.146 26.7738C108.528 27.4317 108.218 28.2777 108.218 29.3115V37.7985H104.986Z" fill="url(#paint1_linear_2016_253)"/>
<defs>
<linearGradient id="paint0_linear_2016_253" x1="67" y1="12.0004" x2="67" y2="44.0004" gradientUnits="userSpaceOnUse">
<stop stop-color="#05070B"/>
<stop offset="1" stop-color="#3B3B3E"/>
</linearGradient>
<linearGradient id="paint1_linear_2016_253" x1="67" y1="12.0004" x2="67" y2="44.0004" gradientUnits="userSpaceOnUse">
<stop stop-color="#05070B"/>
<stop offset="1" stop-color="#3B3B3E"/>
</linearGradient>
</defs>
</svg>
