<svg width="159" height="32" viewBox="0 0 159 32" fill="none" xmlns="http://www.w3.org/2000/svg">
<path d="M32.0554 4C32.0554 1.79086 30.2646 0 28.0554 0H4.05542C1.84628 0 0.0554199 1.79086 0.0554199 4V28C0.0554199 30.2091 1.84628 32 4.05542 32H28.0554C30.2646 32 32.0554 30.2091 32.0554 28V4Z" fill="#FB651E"/>
<path d="M14.9771 19.094C14.9771 18.437 14.8153 17.79 14.5058 17.2103L10.3462 9.41804C9.95597 8.68708 10.4856 7.80395 11.3142 7.80395C11.7311 7.80395 12.1119 8.04013 12.2972 8.41354L15.2257 14.3155C15.2754 14.4315 15.3334 14.5516 15.3996 14.6759C15.4415 14.7544 15.4801 14.8346 15.5154 14.9164C15.5564 15.0116 15.6097 15.1016 15.6482 15.1978C15.6647 15.2392 15.6813 15.2765 15.6979 15.3097C15.7807 15.4753 15.8553 15.6369 15.9216 15.7943C15.9894 15.9554 16.221 15.9638 16.2965 15.8061C16.3712 15.6503 16.4492 15.4889 16.5305 15.3221C16.6879 14.999 16.8494 14.6635 17.0151 14.3155L20.0119 8.36733C20.1859 8.02188 20.5398 7.80395 20.9266 7.80395C21.6994 7.80395 22.1938 8.62716 21.8307 9.30937L17.5586 17.3364C17.2507 17.9149 17.0897 18.5603 17.0897 19.2157V23.7971C17.0897 24.3804 16.6168 24.8533 16.0334 24.8533C15.45 24.8533 14.9771 24.3804 14.9771 23.7971V19.094Z" fill="white"/>
<path d="M45.0154 22.112C44.2368 22.112 43.5328 21.9787 42.9034 21.712C42.2848 21.4453 41.7941 21.0613 41.4314 20.56C41.0688 20.0587 40.8821 19.4667 40.8714 18.784H43.2714C43.3034 19.2427 43.4634 19.6053 43.7514 19.872C44.0501 20.1387 44.4554 20.272 44.9674 20.272C45.4901 20.272 45.9008 20.1493 46.1994 19.904C46.4981 19.648 46.6474 19.3173 46.6474 18.912C46.6474 18.5813 46.5461 18.3093 46.3434 18.096C46.1408 17.8827 45.8848 17.7173 45.5754 17.6C45.2768 17.472 44.8608 17.3333 44.3274 17.184C43.6021 16.9707 43.0101 16.7627 42.5514 16.56C42.1034 16.3467 41.7141 16.032 41.3834 15.616C41.0634 15.1893 40.9034 14.624 40.9034 13.92C40.9034 13.2587 41.0688 12.6827 41.3994 12.192C41.7301 11.7013 42.1941 11.328 42.7914 11.072C43.3888 10.8053 44.0714 10.672 44.8394 10.672C45.9914 10.672 46.9248 10.9547 47.6394 11.52C48.3648 12.0747 48.7648 12.8533 48.8394 13.856H46.3754C46.3541 13.472 46.1888 13.1573 45.8794 12.912C45.5808 12.656 45.1808 12.528 44.6794 12.528C44.2421 12.528 43.8901 12.64 43.6234 12.864C43.3674 13.088 43.2394 13.4133 43.2394 13.84C43.2394 14.1387 43.3354 14.3893 43.5274 14.592C43.7301 14.784 43.9754 14.944 44.2634 15.072C44.5621 15.1893 44.9781 15.328 45.5114 15.488C46.2368 15.7013 46.8288 15.9147 47.2874 16.128C47.7461 16.3413 48.1408 16.6613 48.4714 17.088C48.8021 17.5147 48.9674 18.0747 48.9674 18.768C48.9674 19.3653 48.8128 19.92 48.5034 20.432C48.1941 20.944 47.7408 21.3547 47.1434 21.664C46.5461 21.9627 45.8368 22.112 45.0154 22.112Z" fill="#202125"/>
<path d="M53.5174 14.976V19.264C53.5174 19.5627 53.5868 19.7813 53.7254 19.92C53.8748 20.048 54.1201 20.112 54.4614 20.112H55.5014V22H54.0934C52.2054 22 51.2614 21.0827 51.2614 19.248V14.976H50.2054V13.136H51.2614V10.944H53.5174V13.136H55.5014V14.976H53.5174Z" fill="#202125"/>
<path d="M56.5365 17.536C56.5365 16.64 56.7125 15.8453 57.0645 15.152C57.4272 14.4587 57.9125 13.9253 58.5205 13.552C59.1392 13.1787 59.8272 12.992 60.5845 12.992C61.2459 12.992 61.8219 13.1253 62.3125 13.392C62.8139 13.6587 63.2139 13.9947 63.5125 14.4V13.136H65.7685V22H63.5125V20.704C63.2245 21.12 62.8245 21.4667 62.3125 21.744C61.8112 22.0107 61.2299 22.144 60.5685 22.144C59.8219 22.144 59.1392 21.952 58.5205 21.568C57.9125 21.184 57.4272 20.6453 57.0645 19.952C56.7125 19.248 56.5365 18.4427 56.5365 17.536ZM63.5125 17.568C63.5125 17.024 63.4059 16.56 63.1925 16.176C62.9792 15.7813 62.6912 15.4827 62.3285 15.28C61.9659 15.0667 61.5765 14.96 61.1605 14.96C60.7445 14.96 60.3605 15.0613 60.0085 15.264C59.6565 15.4667 59.3685 15.7653 59.1445 16.16C58.9312 16.544 58.8245 17.0027 58.8245 17.536C58.8245 18.0693 58.9312 18.5387 59.1445 18.944C59.3685 19.3387 59.6565 19.6427 60.0085 19.856C60.3712 20.0693 60.7552 20.176 61.1605 20.176C61.5765 20.176 61.9659 20.0747 62.3285 19.872C62.6912 19.6587 62.9792 19.36 63.1925 18.976C63.4059 18.5813 63.5125 18.112 63.5125 17.568Z" fill="#202125"/>
<path d="M70.1963 14.512C70.4843 14.0427 70.8576 13.6747 71.3163 13.408C71.7856 13.1413 72.319 13.008 72.9163 13.008V15.36H72.3243C71.6203 15.36 71.087 15.5253 70.7243 15.856C70.3723 16.1867 70.1963 16.7627 70.1963 17.584V22H67.9563V13.136H70.1963V14.512Z" fill="#202125"/>
<path d="M77.033 14.976V19.264C77.033 19.5627 77.1024 19.7813 77.241 19.92C77.3904 20.048 77.6357 20.112 77.977 20.112H79.017V22H77.609C75.721 22 74.777 21.0827 74.777 19.248V14.976H73.721V13.136H74.777V10.944H77.033V13.136H79.017V14.976H77.033Z" fill="#202125"/>
<path d="M88.9962 13.136V22H86.7402V20.88C86.4522 21.264 86.0735 21.568 85.6042 21.792C85.1455 22.0053 84.6442 22.112 84.1002 22.112C83.4068 22.112 82.7935 21.968 82.2602 21.68C81.7268 21.3813 81.3055 20.9493 80.9962 20.384C80.6975 19.808 80.5482 19.1253 80.5482 18.336V13.136H82.7882V18.016C82.7882 18.72 82.9642 19.264 83.3162 19.648C83.6682 20.0213 84.1482 20.208 84.7562 20.208C85.3748 20.208 85.8602 20.0213 86.2122 19.648C86.5642 19.264 86.7402 18.72 86.7402 18.016V13.136H88.9962Z" fill="#202125"/>
<path d="M93.4463 14.416C93.7343 14.0107 94.129 13.6747 94.6303 13.408C95.1423 13.1307 95.7236 12.992 96.3743 12.992C97.1316 12.992 97.8143 13.1787 98.4223 13.552C99.041 13.9253 99.5263 14.4587 99.8783 15.152C100.241 15.8347 100.422 16.6293 100.422 17.536C100.422 18.4427 100.241 19.248 99.8783 19.952C99.5263 20.6453 99.041 21.184 98.4223 21.568C97.8143 21.952 97.1316 22.144 96.3743 22.144C95.7236 22.144 95.1476 22.0107 94.6463 21.744C94.1556 21.4773 93.7556 21.1413 93.4463 20.736V26.224H91.2063V13.136H93.4463V14.416ZM98.1343 17.536C98.1343 17.0027 98.0223 16.544 97.7983 16.16C97.585 15.7653 97.297 15.4667 96.9343 15.264C96.5823 15.0613 96.1983 14.96 95.7823 14.96C95.377 14.96 94.993 15.0667 94.6303 15.28C94.2783 15.4827 93.9903 15.7813 93.7663 16.176C93.553 16.5707 93.4463 17.0347 93.4463 17.568C93.4463 18.1013 93.553 18.5653 93.7663 18.96C93.9903 19.3547 94.2783 19.6587 94.6303 19.872C94.993 20.0747 95.377 20.176 95.7823 20.176C96.1983 20.176 96.5823 20.0693 96.9343 19.856C97.297 19.6427 97.585 19.3387 97.7983 18.944C98.0223 18.5493 98.1343 18.08 98.1343 17.536Z" fill="#202125"/>
<path d="M109.719 22.112C108.94 22.112 108.236 21.9787 107.607 21.712C106.988 21.4453 106.497 21.0613 106.135 20.56C105.772 20.0587 105.585 19.4667 105.575 18.784H107.975C108.007 19.2427 108.167 19.6053 108.455 19.872C108.753 20.1387 109.159 20.272 109.671 20.272C110.193 20.272 110.604 20.1493 110.903 19.904C111.201 19.648 111.351 19.3173 111.351 18.912C111.351 18.5813 111.249 18.3093 111.047 18.096C110.844 17.8827 110.588 17.7173 110.279 17.6C109.98 17.472 109.564 17.3333 109.031 17.184C108.305 16.9707 107.713 16.7627 107.255 16.56C106.807 16.3467 106.417 16.032 106.087 15.616C105.767 15.1893 105.607 14.624 105.607 13.92C105.607 13.2587 105.772 12.6827 106.103 12.192C106.433 11.7013 106.897 11.328 107.495 11.072C108.092 10.8053 108.775 10.672 109.543 10.672C110.695 10.672 111.628 10.9547 112.343 11.52C113.068 12.0747 113.468 12.8533 113.543 13.856H111.079C111.057 13.472 110.892 13.1573 110.583 12.912C110.284 12.656 109.884 12.528 109.383 12.528C108.945 12.528 108.593 12.64 108.327 12.864C108.071 13.088 107.943 13.4133 107.943 13.84C107.943 14.1387 108.039 14.3893 108.231 14.592C108.433 14.784 108.679 14.944 108.967 15.072C109.265 15.1893 109.681 15.328 110.215 15.488C110.94 15.7013 111.532 15.9147 111.991 16.128C112.449 16.3413 112.844 16.6613 113.175 17.088C113.505 17.5147 113.671 18.0747 113.671 18.768C113.671 19.3653 113.516 19.92 113.207 20.432C112.897 20.944 112.444 21.3547 111.847 21.664C111.249 21.9627 110.54 22.112 109.719 22.112Z" fill="#202125"/>
<path d="M115.037 17.568C115.037 16.6507 115.223 15.8507 115.597 15.168C115.97 14.4747 116.487 13.9413 117.149 13.568C117.81 13.184 118.567 12.992 119.421 12.992C120.519 12.992 121.426 13.2693 122.141 13.824C122.866 14.368 123.351 15.136 123.597 16.128H121.181C121.053 15.744 120.834 15.4453 120.525 15.232C120.226 15.008 119.853 14.896 119.405 14.896C118.765 14.896 118.258 15.1307 117.885 15.6C117.511 16.0587 117.325 16.7147 117.325 17.568C117.325 18.4107 117.511 19.0667 117.885 19.536C118.258 19.9947 118.765 20.224 119.405 20.224C120.311 20.224 120.903 19.8187 121.181 19.008H123.597C123.351 19.968 122.866 20.7307 122.141 21.296C121.415 21.8613 120.509 22.144 119.421 22.144C118.567 22.144 117.81 21.9573 117.149 21.584C116.487 21.2 115.97 20.6667 115.597 19.984C115.223 19.2907 115.037 18.4853 115.037 17.568Z" fill="#202125"/>
<path d="M130.23 13.008C130.902 13.008 131.499 13.1573 132.022 13.456C132.544 13.744 132.95 14.176 133.238 14.752C133.536 15.3173 133.686 16 133.686 16.8V22H131.446V17.104C131.446 16.4 131.27 15.8613 130.918 15.488C130.566 15.104 130.086 14.912 129.478 14.912C128.859 14.912 128.368 15.104 128.006 15.488C127.654 15.8613 127.478 16.4 127.478 17.104V22H125.238V10.16H127.478V14.24C127.766 13.856 128.15 13.5573 128.63 13.344C129.11 13.12 129.643 13.008 130.23 13.008Z" fill="#202125"/>
<path d="M139.752 22.144C138.898 22.144 138.13 21.9573 137.448 21.584C136.765 21.2 136.226 20.6613 135.832 19.968C135.448 19.2747 135.256 18.4747 135.256 17.568C135.256 16.6613 135.453 15.8613 135.848 15.168C136.253 14.4747 136.802 13.9413 137.496 13.568C138.189 13.184 138.962 12.992 139.816 12.992C140.669 12.992 141.442 13.184 142.136 13.568C142.829 13.9413 143.373 14.4747 143.768 15.168C144.173 15.8613 144.376 16.6613 144.376 17.568C144.376 18.4747 144.168 19.2747 143.752 19.968C143.346 20.6613 142.792 21.2 142.088 21.584C141.394 21.9573 140.616 22.144 139.752 22.144ZM139.752 20.192C140.157 20.192 140.536 20.096 140.888 19.904C141.25 19.7013 141.538 19.4027 141.752 19.008C141.965 18.6133 142.072 18.1333 142.072 17.568C142.072 16.7253 141.848 16.08 141.4 15.632C140.962 15.1733 140.424 14.944 139.784 14.944C139.144 14.944 138.605 15.1733 138.168 15.632C137.741 16.08 137.528 16.7253 137.528 17.568C137.528 18.4107 137.736 19.0613 138.152 19.52C138.578 19.968 139.112 20.192 139.752 20.192Z" fill="#202125"/>
<path d="M149.955 22.144C149.101 22.144 148.333 21.9573 147.651 21.584C146.968 21.2 146.429 20.6613 146.035 19.968C145.651 19.2747 145.459 18.4747 145.459 17.568C145.459 16.6613 145.656 15.8613 146.051 15.168C146.456 14.4747 147.005 13.9413 147.699 13.568C148.392 13.184 149.165 12.992 150.019 12.992C150.872 12.992 151.645 13.184 152.339 13.568C153.032 13.9413 153.576 14.4747 153.971 15.168C154.376 15.8613 154.579 16.6613 154.579 17.568C154.579 18.4747 154.371 19.2747 153.955 19.968C153.549 20.6613 152.995 21.2 152.291 21.584C151.597 21.9573 150.819 22.144 149.955 22.144ZM149.955 20.192C150.36 20.192 150.739 20.096 151.091 19.904C151.453 19.7013 151.741 19.4027 151.955 19.008C152.168 18.6133 152.275 18.1333 152.275 17.568C152.275 16.7253 152.051 16.08 151.603 15.632C151.165 15.1733 150.627 14.944 149.987 14.944C149.347 14.944 148.808 15.1733 148.371 15.632C147.944 16.08 147.731 16.7253 147.731 17.568C147.731 18.4107 147.939 19.0613 148.355 19.52C148.781 19.968 149.315 20.192 149.955 20.192Z" fill="#202125"/>
<path d="M158.462 10.16V22H156.222V10.16H158.462Z" fill="#202125"/>
</svg>
