<svg width="159" height="32" viewBox="0 0 159 32" fill="none" xmlns="http://www.w3.org/2000/svg">
<path d="M0 4C0 1.79086 1.79086 0 4 0H28C30.2091 0 32 1.79086 32 4V28C32 30.2091 30.2091 32 28 32H4C1.79086 32 0 30.2091 0 28V4Z" fill="url(#paint0_linear_2014_295)"/>
<path d="M15.0327 18.0932L9.54008 7.80395H12.0503L15.2812 14.3155C15.3309 14.4315 15.3889 14.5516 15.4552 14.6759C15.5215 14.8002 15.5794 14.9286 15.6291 15.0611C15.6623 15.1108 15.6871 15.1564 15.7037 15.1978C15.7203 15.2392 15.7368 15.2765 15.7534 15.3097C15.8363 15.4753 15.9108 15.6369 15.9771 15.7943C16.0434 15.9517 16.1014 16.0967 16.1511 16.2292C16.2836 15.9476 16.4286 15.6452 16.586 15.3221C16.7434 14.999 16.905 14.6635 17.0706 14.3155L20.3513 7.80395H22.6875L17.1452 18.2175V24.8533H15.0327V18.0932Z" fill="url(#paint1_linear_2014_295)"/>
<path d="M45.071 22.112C44.2923 22.112 43.5883 21.9787 42.959 21.712C42.3403 21.4453 41.8496 21.0613 41.487 20.56C41.1243 20.0587 40.9376 19.4667 40.927 18.784H43.327C43.359 19.2427 43.519 19.6053 43.807 19.872C44.1056 20.1387 44.511 20.272 45.023 20.272C45.5456 20.272 45.9563 20.1493 46.255 19.904C46.5536 19.648 46.703 19.3173 46.703 18.912C46.703 18.5813 46.6016 18.3093 46.399 18.096C46.1963 17.8827 45.9403 17.7173 45.631 17.6C45.3323 17.472 44.9163 17.3333 44.383 17.184C43.6576 16.9707 43.0656 16.7627 42.607 16.56C42.159 16.3467 41.7696 16.032 41.439 15.616C41.119 15.1893 40.959 14.624 40.959 13.92C40.959 13.2587 41.1243 12.6827 41.455 12.192C41.7856 11.7013 42.2496 11.328 42.847 11.072C43.4443 10.8053 44.127 10.672 44.895 10.672C46.047 10.672 46.9803 10.9547 47.695 11.52C48.4203 12.0747 48.8203 12.8533 48.895 13.856H46.431C46.4096 13.472 46.2443 13.1573 45.935 12.912C45.6363 12.656 45.2363 12.528 44.735 12.528C44.2976 12.528 43.9456 12.64 43.679 12.864C43.423 13.088 43.295 13.4133 43.295 13.84C43.295 14.1387 43.391 14.3893 43.583 14.592C43.7856 14.784 44.031 14.944 44.319 15.072C44.6176 15.1893 45.0336 15.328 45.567 15.488C46.2923 15.7013 46.8843 15.9147 47.343 16.128C47.8016 16.3413 48.1963 16.6613 48.527 17.088C48.8576 17.5147 49.023 18.0747 49.023 18.768C49.023 19.3653 48.8683 19.92 48.559 20.432C48.2496 20.944 47.7963 21.3547 47.199 21.664C46.6016 21.9627 45.8923 22.112 45.071 22.112Z" fill="url(#paint2_linear_2014_295)"/>
<path d="M53.573 14.976V19.264C53.573 19.5627 53.6423 19.7813 53.781 19.92C53.9303 20.048 54.1756 20.112 54.517 20.112H55.557V22H54.149C52.261 22 51.317 21.0827 51.317 19.248V14.976H50.261V13.136H51.317V10.944H53.573V13.136H55.557V14.976H53.573Z" fill="url(#paint3_linear_2014_295)"/>
<path d="M56.5921 17.536C56.5921 16.64 56.7681 15.8453 57.1201 15.152C57.4828 14.4587 57.9681 13.9253 58.5761 13.552C59.1948 13.1787 59.8828 12.992 60.6401 12.992C61.3014 12.992 61.8774 13.1253 62.3681 13.392C62.8694 13.6587 63.2694 13.9947 63.5681 14.4V13.136H65.8241V22H63.5681V20.704C63.2801 21.12 62.8801 21.4667 62.3681 21.744C61.8668 22.0107 61.2854 22.144 60.6241 22.144C59.8774 22.144 59.1948 21.952 58.5761 21.568C57.9681 21.184 57.4828 20.6453 57.1201 19.952C56.7681 19.248 56.5921 18.4427 56.5921 17.536ZM63.5681 17.568C63.5681 17.024 63.4614 16.56 63.2481 16.176C63.0348 15.7813 62.7468 15.4827 62.3841 15.28C62.0214 15.0667 61.6321 14.96 61.2161 14.96C60.8001 14.96 60.4161 15.0613 60.0641 15.264C59.7121 15.4667 59.4241 15.7653 59.2001 16.16C58.9868 16.544 58.8801 17.0027 58.8801 17.536C58.8801 18.0693 58.9868 18.5387 59.2001 18.944C59.4241 19.3387 59.7121 19.6427 60.0641 19.856C60.4268 20.0693 60.8108 20.176 61.2161 20.176C61.6321 20.176 62.0214 20.0747 62.3841 19.872C62.7468 19.6587 63.0348 19.36 63.2481 18.976C63.4614 18.5813 63.5681 18.112 63.5681 17.568Z" fill="url(#paint4_linear_2014_295)"/>
<path d="M70.2518 14.512C70.5398 14.0427 70.9132 13.6747 71.3718 13.408C71.8412 13.1413 72.3745 13.008 72.9718 13.008V15.36H72.3798C71.6758 15.36 71.1425 15.5253 70.7798 15.856C70.4278 16.1867 70.2518 16.7627 70.2518 17.584V22H68.0118V13.136H70.2518V14.512Z" fill="url(#paint5_linear_2014_295)"/>
<path d="M77.0886 14.976V19.264C77.0886 19.5627 77.1579 19.7813 77.2966 19.92C77.4459 20.048 77.6913 20.112 78.0326 20.112H79.0726V22H77.6646C75.7766 22 74.8326 21.0827 74.8326 19.248V14.976H73.7766V13.136H74.8326V10.944H77.0886V13.136H79.0726V14.976H77.0886Z" fill="url(#paint6_linear_2014_295)"/>
<path d="M89.0517 13.136V22H86.7957V20.88C86.5077 21.264 86.129 21.568 85.6597 21.792C85.201 22.0053 84.6997 22.112 84.1557 22.112C83.4624 22.112 82.849 21.968 82.3157 21.68C81.7824 21.3813 81.361 20.9493 81.0517 20.384C80.753 19.808 80.6037 19.1253 80.6037 18.336V13.136H82.8437V18.016C82.8437 18.72 83.0197 19.264 83.3717 19.648C83.7237 20.0213 84.2037 20.208 84.8117 20.208C85.4304 20.208 85.9157 20.0213 86.2677 19.648C86.6197 19.264 86.7957 18.72 86.7957 18.016V13.136H89.0517Z" fill="url(#paint7_linear_2014_295)"/>
<path d="M93.5018 14.416C93.7898 14.0107 94.1845 13.6747 94.6858 13.408C95.1978 13.1307 95.7792 12.992 96.4298 12.992C97.1872 12.992 97.8698 13.1787 98.4778 13.552C99.0965 13.9253 99.5818 14.4587 99.9338 15.152C100.297 15.8347 100.478 16.6293 100.478 17.536C100.478 18.4427 100.297 19.248 99.9338 19.952C99.5818 20.6453 99.0965 21.184 98.4778 21.568C97.8698 21.952 97.1872 22.144 96.4298 22.144C95.7792 22.144 95.2032 22.0107 94.7018 21.744C94.2112 21.4773 93.8112 21.1413 93.5018 20.736V26.224H91.2618V13.136H93.5018V14.416ZM98.1898 17.536C98.1898 17.0027 98.0778 16.544 97.8538 16.16C97.6405 15.7653 97.3525 15.4667 96.9898 15.264C96.6378 15.0613 96.2538 14.96 95.8378 14.96C95.4325 14.96 95.0485 15.0667 94.6858 15.28C94.3338 15.4827 94.0458 15.7813 93.8218 16.176C93.6085 16.5707 93.5018 17.0347 93.5018 17.568C93.5018 18.1013 93.6085 18.5653 93.8218 18.96C94.0458 19.3547 94.3338 19.6587 94.6858 19.872C95.0485 20.0747 95.4325 20.176 95.8378 20.176C96.2538 20.176 96.6378 20.0693 96.9898 19.856C97.3525 19.6427 97.6405 19.3387 97.8538 18.944C98.0778 18.5493 98.1898 18.08 98.1898 17.536Z" fill="url(#paint8_linear_2014_295)"/>
<path d="M109.774 22.112C108.995 22.112 108.291 21.9787 107.662 21.712C107.043 21.4453 106.553 21.0613 106.19 20.56C105.827 20.0587 105.641 19.4667 105.63 18.784H108.03C108.062 19.2427 108.222 19.6053 108.51 19.872C108.809 20.1387 109.214 20.272 109.726 20.272C110.249 20.272 110.659 20.1493 110.958 19.904C111.257 19.648 111.406 19.3173 111.406 18.912C111.406 18.5813 111.305 18.3093 111.102 18.096C110.899 17.8827 110.643 17.7173 110.334 17.6C110.035 17.472 109.619 17.3333 109.086 17.184C108.361 16.9707 107.769 16.7627 107.31 16.56C106.862 16.3467 106.473 16.032 106.142 15.616C105.822 15.1893 105.662 14.624 105.662 13.92C105.662 13.2587 105.827 12.6827 106.158 12.192C106.489 11.7013 106.953 11.328 107.55 11.072C108.147 10.8053 108.83 10.672 109.598 10.672C110.75 10.672 111.683 10.9547 112.398 11.52C113.123 12.0747 113.523 12.8533 113.598 13.856H111.134C111.113 13.472 110.947 13.1573 110.638 12.912C110.339 12.656 109.939 12.528 109.438 12.528C109.001 12.528 108.649 12.64 108.382 12.864C108.126 13.088 107.998 13.4133 107.998 13.84C107.998 14.1387 108.094 14.3893 108.286 14.592C108.489 14.784 108.734 14.944 109.022 15.072C109.321 15.1893 109.737 15.328 110.27 15.488C110.995 15.7013 111.587 15.9147 112.046 16.128C112.505 16.3413 112.899 16.6613 113.23 17.088C113.561 17.5147 113.726 18.0747 113.726 18.768C113.726 19.3653 113.571 19.92 113.262 20.432C112.953 20.944 112.499 21.3547 111.902 21.664C111.305 21.9627 110.595 22.112 109.774 22.112Z" fill="url(#paint9_linear_2014_295)"/>
<path d="M115.092 17.568C115.092 16.6507 115.279 15.8507 115.652 15.168C116.025 14.4747 116.543 13.9413 117.204 13.568C117.865 13.184 118.623 12.992 119.476 12.992C120.575 12.992 121.481 13.2693 122.196 13.824C122.921 14.368 123.407 15.136 123.652 16.128H121.236C121.108 15.744 120.889 15.4453 120.58 15.232C120.281 15.008 119.908 14.896 119.46 14.896C118.82 14.896 118.313 15.1307 117.94 15.6C117.567 16.0587 117.38 16.7147 117.38 17.568C117.38 18.4107 117.567 19.0667 117.94 19.536C118.313 19.9947 118.82 20.224 119.46 20.224C120.367 20.224 120.959 19.8187 121.236 19.008H123.652C123.407 19.968 122.921 20.7307 122.196 21.296C121.471 21.8613 120.564 22.144 119.476 22.144C118.623 22.144 117.865 21.9573 117.204 21.584C116.543 21.2 116.025 20.6667 115.652 19.984C115.279 19.2907 115.092 18.4853 115.092 17.568Z" fill="url(#paint10_linear_2014_295)"/>
<path d="M130.285 13.008C130.957 13.008 131.554 13.1573 132.077 13.456C132.6 13.744 133.005 14.176 133.293 14.752C133.592 15.3173 133.741 16 133.741 16.8V22H131.501V17.104C131.501 16.4 131.325 15.8613 130.973 15.488C130.621 15.104 130.141 14.912 129.533 14.912C128.914 14.912 128.424 15.104 128.061 15.488C127.709 15.8613 127.533 16.4 127.533 17.104V22H125.293V10.16H127.533V14.24C127.821 13.856 128.205 13.5573 128.685 13.344C129.165 13.12 129.698 13.008 130.285 13.008Z" fill="url(#paint11_linear_2014_295)"/>
<path d="M139.807 22.144C138.954 22.144 138.186 21.9573 137.503 21.584C136.821 21.2 136.282 20.6613 135.887 19.968C135.503 19.2747 135.311 18.4747 135.311 17.568C135.311 16.6613 135.509 15.8613 135.903 15.168C136.309 14.4747 136.858 13.9413 137.551 13.568C138.245 13.184 139.018 12.992 139.871 12.992C140.725 12.992 141.498 13.184 142.191 13.568C142.885 13.9413 143.429 14.4747 143.823 15.168C144.229 15.8613 144.431 16.6613 144.431 17.568C144.431 18.4747 144.223 19.2747 143.807 19.968C143.402 20.6613 142.847 21.2 142.143 21.584C141.45 21.9573 140.671 22.144 139.807 22.144ZM139.807 20.192C140.213 20.192 140.591 20.096 140.943 19.904C141.306 19.7013 141.594 19.4027 141.807 19.008C142.021 18.6133 142.127 18.1333 142.127 17.568C142.127 16.7253 141.903 16.08 141.455 15.632C141.018 15.1733 140.479 14.944 139.839 14.944C139.199 14.944 138.661 15.1733 138.223 15.632C137.797 16.08 137.583 16.7253 137.583 17.568C137.583 18.4107 137.791 19.0613 138.207 19.52C138.634 19.968 139.167 20.192 139.807 20.192Z" fill="url(#paint12_linear_2014_295)"/>
<path d="M150.01 22.144C149.157 22.144 148.389 21.9573 147.706 21.584C147.024 21.2 146.485 20.6613 146.09 19.968C145.706 19.2747 145.514 18.4747 145.514 17.568C145.514 16.6613 145.712 15.8613 146.106 15.168C146.512 14.4747 147.061 13.9413 147.754 13.568C148.448 13.184 149.221 12.992 150.074 12.992C150.928 12.992 151.701 13.184 152.394 13.568C153.088 13.9413 153.632 14.4747 154.026 15.168C154.432 15.8613 154.634 16.6613 154.634 17.568C154.634 18.4747 154.426 19.2747 154.01 19.968C153.605 20.6613 153.05 21.2 152.346 21.584C151.653 21.9573 150.874 22.144 150.01 22.144ZM150.01 20.192C150.416 20.192 150.794 20.096 151.146 19.904C151.509 19.7013 151.797 19.4027 152.01 19.008C152.224 18.6133 152.33 18.1333 152.33 17.568C152.33 16.7253 152.106 16.08 151.658 15.632C151.221 15.1733 150.682 14.944 150.042 14.944C149.402 14.944 148.864 15.1733 148.426 15.632C148 16.08 147.786 16.7253 147.786 17.568C147.786 18.4107 147.994 19.0613 148.41 19.52C148.837 19.968 149.37 20.192 150.01 20.192Z" fill="url(#paint13_linear_2014_295)"/>
<path d="M158.517 10.16V22H156.277V10.16H158.517Z" fill="url(#paint14_linear_2014_295)"/>
<defs>
<linearGradient id="paint0_linear_2014_295" x1="79.2587" y1="0" x2="79.2587" y2="32" gradientUnits="userSpaceOnUse">
<stop stop-color="#05070B"/>
<stop offset="1" stop-color="#3B3B3E"/>
</linearGradient>
<linearGradient id="paint1_linear_2014_295" x1="-4.50056e-07" y1="47.9954" x2="148.39" y2="-41.1129" gradientUnits="userSpaceOnUse">
<stop stop-color="#F7F8FF"/>
<stop offset="1" stop-color="#F3F3FF"/>
</linearGradient>
<linearGradient id="paint2_linear_2014_295" x1="79.2587" y1="0" x2="79.2587" y2="32" gradientUnits="userSpaceOnUse">
<stop stop-color="#05070B"/>
<stop offset="1" stop-color="#3B3B3E"/>
</linearGradient>
<linearGradient id="paint3_linear_2014_295" x1="79.2587" y1="0" x2="79.2587" y2="32" gradientUnits="userSpaceOnUse">
<stop stop-color="#05070B"/>
<stop offset="1" stop-color="#3B3B3E"/>
</linearGradient>
<linearGradient id="paint4_linear_2014_295" x1="79.2587" y1="0" x2="79.2587" y2="32" gradientUnits="userSpaceOnUse">
<stop stop-color="#05070B"/>
<stop offset="1" stop-color="#3B3B3E"/>
</linearGradient>
<linearGradient id="paint5_linear_2014_295" x1="79.2587" y1="0" x2="79.2587" y2="32" gradientUnits="userSpaceOnUse">
<stop stop-color="#05070B"/>
<stop offset="1" stop-color="#3B3B3E"/>
</linearGradient>
<linearGradient id="paint6_linear_2014_295" x1="79.2587" y1="0" x2="79.2587" y2="32" gradientUnits="userSpaceOnUse">
<stop stop-color="#05070B"/>
<stop offset="1" stop-color="#3B3B3E"/>
</linearGradient>
<linearGradient id="paint7_linear_2014_295" x1="79.2587" y1="0" x2="79.2587" y2="32" gradientUnits="userSpaceOnUse">
<stop stop-color="#05070B"/>
<stop offset="1" stop-color="#3B3B3E"/>
</linearGradient>
<linearGradient id="paint8_linear_2014_295" x1="79.2587" y1="0" x2="79.2587" y2="32" gradientUnits="userSpaceOnUse">
<stop stop-color="#05070B"/>
<stop offset="1" stop-color="#3B3B3E"/>
</linearGradient>
<linearGradient id="paint9_linear_2014_295" x1="79.2587" y1="0" x2="79.2587" y2="32" gradientUnits="userSpaceOnUse">
<stop stop-color="#05070B"/>
<stop offset="1" stop-color="#3B3B3E"/>
</linearGradient>
<linearGradient id="paint10_linear_2014_295" x1="79.2587" y1="0" x2="79.2587" y2="32" gradientUnits="userSpaceOnUse">
<stop stop-color="#05070B"/>
<stop offset="1" stop-color="#3B3B3E"/>
</linearGradient>
<linearGradient id="paint11_linear_2014_295" x1="79.2587" y1="0" x2="79.2587" y2="32" gradientUnits="userSpaceOnUse">
<stop stop-color="#05070B"/>
<stop offset="1" stop-color="#3B3B3E"/>
</linearGradient>
<linearGradient id="paint12_linear_2014_295" x1="79.2587" y1="0" x2="79.2587" y2="32" gradientUnits="userSpaceOnUse">
<stop stop-color="#05070B"/>
<stop offset="1" stop-color="#3B3B3E"/>
</linearGradient>
<linearGradient id="paint13_linear_2014_295" x1="79.2587" y1="0" x2="79.2587" y2="32" gradientUnits="userSpaceOnUse">
<stop stop-color="#05070B"/>
<stop offset="1" stop-color="#3B3B3E"/>
</linearGradient>
<linearGradient id="paint14_linear_2014_295" x1="79.2587" y1="0" x2="79.2587" y2="32" gradientUnits="userSpaceOnUse">
<stop stop-color="#05070B"/>
<stop offset="1" stop-color="#3B3B3E"/>
</linearGradient>
</defs>
</svg>
