<svg width="191" height="56" viewBox="0 0 191 56" fill="none" xmlns="http://www.w3.org/2000/svg">
<path d="M16 16C16 13.7909 17.7963 12 20.0122 12H44.0852C46.3011 12 48.0974 13.7909 48.0974 16V40C48.0974 42.2091 46.3011 44 44.0852 44H20.0122C17.7963 44 16 42.2091 16 40V16Z" fill="url(#paint0_linear_2016_309)"/>
<path d="M31.0784 30.0932L25.5691 19.8039H28.087L31.3277 26.3155C31.3776 26.4315 31.4357 26.5516 31.5022 26.6759C31.5687 26.8002 31.6269 26.9286 31.6767 27.0611C31.71 27.1108 31.7349 27.1564 31.7515 27.1978C31.7681 27.2392 31.7848 27.2765 31.8014 27.3097C31.8845 27.4753 31.9593 27.6369 32.0257 27.7943C32.0922 27.9517 32.1504 28.0967 32.2002 28.2292C32.3332 27.9476 32.4786 27.6452 32.6365 27.3221C32.7944 26.999 32.9564 26.6635 33.1226 26.3155L36.4132 19.8039H38.7566L33.1974 30.2175V36.8533H31.0784V30.0932Z" fill="url(#paint1_linear_2016_309)"/>
<path d="M61.2082 34.112C60.4271 34.112 59.721 33.9787 59.0897 33.712C58.4692 33.4453 57.977 33.0613 57.6133 32.56C57.2495 32.0587 57.0622 31.4667 57.0516 30.784H59.4589C59.491 31.2427 59.6514 31.6053 59.9403 31.872C60.2399 32.1387 60.6465 32.272 61.16 32.272C61.6843 32.272 62.0962 32.1493 62.3958 31.904C62.6953 31.648 62.8451 31.3173 62.8451 30.912C62.8451 30.5813 62.7435 30.3093 62.5402 30.096C62.3369 29.8827 62.0801 29.7173 61.7699 29.6C61.4703 29.472 61.053 29.3333 60.5181 29.184C59.7905 28.9707 59.1967 28.7627 58.7367 28.56C58.2873 28.3467 57.8968 28.032 57.5651 27.616C57.2441 27.1893 57.0836 26.624 57.0836 25.92C57.0836 25.2587 57.2495 24.6827 57.5812 24.192C57.9128 23.7013 58.3782 23.328 58.9774 23.072C59.5765 22.8053 60.2613 22.672 61.0316 22.672C62.1871 22.672 63.1233 22.9547 63.8402 23.52C64.5677 24.0747 64.9689 24.8533 65.0438 25.856H62.5723C62.5509 25.472 62.3851 25.1573 62.0748 24.912C61.7752 24.656 61.374 24.528 60.8711 24.528C60.4325 24.528 60.0794 24.64 59.8119 24.864C59.5551 25.088 59.4268 25.4133 59.4268 25.84C59.4268 26.1387 59.523 26.3893 59.7156 26.592C59.9189 26.784 60.165 26.944 60.4539 27.072C60.7535 27.1893 61.1707 27.328 61.7057 27.488C62.4332 27.7013 63.027 27.9147 63.4871 28.128C63.9471 28.3413 64.343 28.6613 64.6747 29.088C65.0064 29.5147 65.1722 30.0747 65.1722 30.768C65.1722 31.3653 65.0171 31.92 64.7068 32.432C64.3965 32.944 63.9418 33.3547 63.3426 33.664C62.7435 33.9627 62.032 34.112 61.2082 34.112Z" fill="url(#paint2_linear_2016_309)"/>
<path d="M69.736 26.976V31.264C69.736 31.5627 69.8056 31.7813 69.9447 31.92C70.0945 32.048 70.3405 32.112 70.6829 32.112H71.7261V34H70.3138C68.4201 34 67.4732 33.0827 67.4732 31.248V26.976H66.414V25.136H67.4732V22.944H69.736V25.136H71.7261V26.976H69.736Z" fill="url(#paint3_linear_2016_309)"/>
<path d="M72.7644 29.536C72.7644 28.64 72.9409 27.8453 73.294 27.152C73.6577 26.4587 74.1446 25.9253 74.7544 25.552C75.375 25.1787 76.065 24.992 76.8247 24.992C77.488 24.992 78.0658 25.1253 78.5579 25.392C79.0608 25.6587 79.462 25.9947 79.7616 26.4V25.136H82.0245V34H79.7616V32.704C79.4727 33.12 79.0715 33.4667 78.5579 33.744C78.0551 34.0107 77.472 34.144 76.8086 34.144C76.0597 34.144 75.375 33.952 74.7544 33.568C74.1446 33.184 73.6577 32.6453 73.294 31.952C72.9409 31.248 72.7644 30.4427 72.7644 29.536ZM79.7616 29.568C79.7616 29.024 79.6546 28.56 79.4406 28.176C79.2266 27.7813 78.9378 27.4827 78.574 27.28C78.2102 27.0667 77.8197 26.96 77.4024 26.96C76.9852 26.96 76.6 27.0613 76.2469 27.264C75.8939 27.4667 75.605 27.7653 75.3803 28.16C75.1663 28.544 75.0593 29.0027 75.0593 29.536C75.0593 30.0693 75.1663 30.5387 75.3803 30.944C75.605 31.3387 75.8939 31.6427 76.2469 31.856C76.6107 32.0693 76.9959 32.176 77.4024 32.176C77.8197 32.176 78.2102 32.0747 78.574 31.872C78.9378 31.6587 79.2266 31.36 79.4406 30.976C79.6546 30.5813 79.7616 30.112 79.7616 29.568Z" fill="url(#paint4_linear_2016_309)"/>
<path d="M86.4657 26.512C86.7546 26.0427 87.129 25.6747 87.5891 25.408C88.0599 25.1413 88.5948 25.008 89.194 25.008V27.36H88.6002C87.894 27.36 87.3591 27.5253 86.9953 27.856C86.6422 28.1867 86.4657 28.7627 86.4657 29.584V34H84.2189V25.136H86.4657V26.512Z" fill="url(#paint5_linear_2016_309)"/>
<path d="M93.3233 26.976V31.264C93.3233 31.5627 93.3928 31.7813 93.5319 31.92C93.6817 32.048 93.9278 32.112 94.2701 32.112H95.3133V34H93.901C92.0073 34 91.0604 33.0827 91.0604 31.248V26.976H90.0012V25.136H91.0604V22.944H93.3233V25.136H95.3133V26.976H93.3233Z" fill="url(#paint6_linear_2016_309)"/>
<path d="M105.323 25.136V34H103.06V32.88C102.771 33.264 102.391 33.568 101.92 33.792C101.46 34.0053 100.958 34.112 100.412 34.112C99.7165 34.112 99.1012 33.968 98.5663 33.68C98.0313 33.3813 97.6087 32.9493 97.2984 32.384C96.9989 31.808 96.8491 31.1253 96.8491 30.336V25.136H99.0959V30.016C99.0959 30.72 99.2724 31.264 99.6255 31.648C99.9786 32.0213 100.46 32.208 101.07 32.208C101.69 32.208 102.177 32.0213 102.53 31.648C102.883 31.264 103.06 30.72 103.06 30.016V25.136H105.323Z" fill="url(#paint7_linear_2016_309)"/>
<path d="M109.786 26.416C110.075 26.0107 110.471 25.6747 110.974 25.408C111.488 25.1307 112.071 24.992 112.723 24.992C113.483 24.992 114.168 25.1787 114.778 25.552C115.398 25.9253 115.885 26.4587 116.238 27.152C116.602 27.8347 116.784 28.6293 116.784 29.536C116.784 30.4427 116.602 31.248 116.238 31.952C115.885 32.6453 115.398 33.184 114.778 33.568C114.168 33.952 113.483 34.144 112.723 34.144C112.071 34.144 111.493 34.0107 110.99 33.744C110.498 33.4773 110.097 33.1413 109.786 32.736V38.224H107.54V25.136H109.786V26.416ZM114.489 29.536C114.489 29.0027 114.376 28.544 114.152 28.16C113.938 27.7653 113.649 27.4667 113.285 27.264C112.932 27.0613 112.547 26.96 112.13 26.96C111.723 26.96 111.338 27.0667 110.974 27.28C110.621 27.4827 110.332 27.7813 110.107 28.176C109.893 28.5707 109.786 29.0347 109.786 29.568C109.786 30.1013 109.893 30.5653 110.107 30.96C110.332 31.3547 110.621 31.6587 110.974 31.872C111.338 32.0747 111.723 32.176 112.13 32.176C112.547 32.176 112.932 32.0693 113.285 31.856C113.649 31.6427 113.938 31.3387 114.152 30.944C114.376 30.5493 114.489 30.08 114.489 29.536Z" fill="url(#paint8_linear_2016_309)"/>
<path d="M126.108 34.112C125.327 34.112 124.621 33.9787 123.99 33.712C123.369 33.4453 122.877 33.0613 122.513 32.56C122.15 32.0587 121.962 31.4667 121.952 30.784H124.359C124.391 31.2427 124.552 31.6053 124.84 31.872C125.14 32.1387 125.547 32.272 126.06 32.272C126.584 32.272 126.996 32.1493 127.296 31.904C127.595 31.648 127.745 31.3173 127.745 30.912C127.745 30.5813 127.644 30.3093 127.44 30.096C127.237 29.8827 126.98 29.7173 126.67 29.6C126.37 29.472 125.953 29.3333 125.418 29.184C124.691 28.9707 124.097 28.7627 123.637 28.56C123.187 28.3467 122.797 28.032 122.465 27.616C122.144 27.1893 121.984 26.624 121.984 25.92C121.984 25.2587 122.15 24.6827 122.481 24.192C122.813 23.7013 123.278 23.328 123.877 23.072C124.477 22.8053 125.161 22.672 125.932 22.672C127.087 22.672 128.023 22.9547 128.74 23.52C129.468 24.0747 129.869 24.8533 129.944 25.856H127.472C127.451 25.472 127.285 25.1573 126.975 24.912C126.675 24.656 126.274 24.528 125.771 24.528C125.333 24.528 124.979 24.64 124.712 24.864C124.455 25.088 124.327 25.4133 124.327 25.84C124.327 26.1387 124.423 26.3893 124.616 26.592C124.819 26.784 125.065 26.944 125.354 27.072C125.654 27.1893 126.071 27.328 126.606 27.488C127.333 27.7013 127.927 27.9147 128.387 28.128C128.847 28.3413 129.243 28.6613 129.575 29.088C129.906 29.5147 130.072 30.0747 130.072 30.768C130.072 31.3653 129.917 31.92 129.607 32.432C129.297 32.944 128.842 33.3547 128.243 33.664C127.644 33.9627 126.932 34.112 126.108 34.112Z" fill="url(#paint9_linear_2016_309)"/>
<path d="M131.442 29.568C131.442 28.6507 131.63 27.8507 132.004 27.168C132.379 26.4747 132.898 25.9413 133.561 25.568C134.224 25.184 134.984 24.992 135.84 24.992C136.942 24.992 137.851 25.2693 138.568 25.824C139.296 26.368 139.782 27.136 140.028 28.128H137.605C137.477 27.744 137.257 27.4453 136.947 27.232C136.648 27.008 136.273 26.896 135.824 26.896C135.182 26.896 134.674 27.1307 134.299 27.6C133.925 28.0587 133.737 28.7147 133.737 29.568C133.737 30.4107 133.925 31.0667 134.299 31.536C134.674 31.9947 135.182 32.224 135.824 32.224C136.733 32.224 137.327 31.8187 137.605 31.008H140.028C139.782 31.968 139.296 32.7307 138.568 33.296C137.841 33.8613 136.931 34.144 135.84 34.144C134.984 34.144 134.224 33.9573 133.561 33.584C132.898 33.2 132.379 32.6667 132.004 31.984C131.63 31.2907 131.442 30.4853 131.442 29.568Z" fill="url(#paint10_linear_2016_309)"/>
<path d="M146.682 25.008C147.356 25.008 147.955 25.1573 148.479 25.456C149.003 25.744 149.41 26.176 149.699 26.752C149.998 27.3173 150.148 28 150.148 28.8V34H147.901V29.104C147.901 28.4 147.725 27.8613 147.372 27.488C147.019 27.104 146.537 26.912 145.927 26.912C145.307 26.912 144.815 27.104 144.451 27.488C144.098 27.8613 143.921 28.4 143.921 29.104V34H141.674V22.16H143.921V26.24C144.21 25.856 144.595 25.5573 145.077 25.344C145.558 25.12 146.093 25.008 146.682 25.008Z" fill="url(#paint11_linear_2016_309)"/>
<path d="M156.233 34.144C155.377 34.144 154.607 33.9573 153.922 33.584C153.237 33.2 152.697 32.6613 152.301 31.968C151.916 31.2747 151.723 30.4747 151.723 29.568C151.723 28.6613 151.921 27.8613 152.317 27.168C152.723 26.4747 153.274 25.9413 153.97 25.568C154.665 25.184 155.441 24.992 156.297 24.992C157.153 24.992 157.929 25.184 158.624 25.568C159.32 25.9413 159.865 26.4747 160.261 27.168C160.668 27.8613 160.871 28.6613 160.871 29.568C160.871 30.4747 160.662 31.2747 160.245 31.968C159.838 32.6613 159.282 33.2 158.576 33.584C157.88 33.9573 157.099 34.144 156.233 34.144ZM156.233 32.192C156.639 32.192 157.019 32.096 157.372 31.904C157.736 31.7013 158.025 31.4027 158.239 31.008C158.453 30.6133 158.56 30.1333 158.56 29.568C158.56 28.7253 158.335 28.08 157.886 27.632C157.447 27.1733 156.907 26.944 156.265 26.944C155.623 26.944 155.083 27.1733 154.644 27.632C154.216 28.08 154.002 28.7253 154.002 29.568C154.002 30.4107 154.211 31.0613 154.628 31.52C155.056 31.968 155.591 32.192 156.233 32.192Z" fill="url(#paint12_linear_2016_309)"/>
<path d="M166.467 34.144C165.611 34.144 164.841 33.9573 164.156 33.584C163.471 33.2 162.931 32.6613 162.535 31.968C162.15 31.2747 161.957 30.4747 161.957 29.568C161.957 28.6613 162.155 27.8613 162.551 27.168C162.958 26.4747 163.509 25.9413 164.204 25.568C164.9 25.184 165.675 24.992 166.531 24.992C167.387 24.992 168.163 25.184 168.858 25.568C169.554 25.9413 170.099 26.4747 170.495 27.168C170.902 27.8613 171.105 28.6613 171.105 29.568C171.105 30.4747 170.896 31.2747 170.479 31.968C170.073 32.6613 169.516 33.2 168.81 33.584C168.115 33.9573 167.334 34.144 166.467 34.144ZM166.467 32.192C166.874 32.192 167.253 32.096 167.606 31.904C167.97 31.7013 168.259 31.4027 168.473 31.008C168.687 30.6133 168.794 30.1333 168.794 29.568C168.794 28.7253 168.569 28.08 168.12 27.632C167.681 27.1733 167.141 26.944 166.499 26.944C165.857 26.944 165.317 27.1733 164.878 27.632C164.45 28.08 164.236 28.7253 164.236 29.568C164.236 30.4107 164.445 31.0613 164.862 31.52C165.29 31.968 165.825 32.192 166.467 32.192Z" fill="url(#paint13_linear_2016_309)"/>
<path d="M175 22.16V34H172.753V22.16H175Z" fill="url(#paint14_linear_2016_309)"/>
<defs>
<linearGradient id="paint0_linear_2016_309" x1="95.5" y1="12" x2="95.5" y2="44" gradientUnits="userSpaceOnUse">
<stop stop-color="#05070B"/>
<stop offset="1" stop-color="#3B3B3E"/>
</linearGradient>
<linearGradient id="paint1_linear_2016_309" x1="16" y1="59.9954" x2="164.601" y2="-29.5116" gradientUnits="userSpaceOnUse">
<stop stop-color="#F7F8FF"/>
<stop offset="1" stop-color="#F3F3FF"/>
</linearGradient>
<linearGradient id="paint2_linear_2016_309" x1="95.5" y1="12" x2="95.5" y2="44" gradientUnits="userSpaceOnUse">
<stop stop-color="#05070B"/>
<stop offset="1" stop-color="#3B3B3E"/>
</linearGradient>
<linearGradient id="paint3_linear_2016_309" x1="95.5" y1="12" x2="95.5" y2="44" gradientUnits="userSpaceOnUse">
<stop stop-color="#05070B"/>
<stop offset="1" stop-color="#3B3B3E"/>
</linearGradient>
<linearGradient id="paint4_linear_2016_309" x1="95.5" y1="12" x2="95.5" y2="44" gradientUnits="userSpaceOnUse">
<stop stop-color="#05070B"/>
<stop offset="1" stop-color="#3B3B3E"/>
</linearGradient>
<linearGradient id="paint5_linear_2016_309" x1="95.5" y1="12" x2="95.5" y2="44" gradientUnits="userSpaceOnUse">
<stop stop-color="#05070B"/>
<stop offset="1" stop-color="#3B3B3E"/>
</linearGradient>
<linearGradient id="paint6_linear_2016_309" x1="95.5" y1="12" x2="95.5" y2="44" gradientUnits="userSpaceOnUse">
<stop stop-color="#05070B"/>
<stop offset="1" stop-color="#3B3B3E"/>
</linearGradient>
<linearGradient id="paint7_linear_2016_309" x1="95.5" y1="12" x2="95.5" y2="44" gradientUnits="userSpaceOnUse">
<stop stop-color="#05070B"/>
<stop offset="1" stop-color="#3B3B3E"/>
</linearGradient>
<linearGradient id="paint8_linear_2016_309" x1="95.5" y1="12" x2="95.5" y2="44" gradientUnits="userSpaceOnUse">
<stop stop-color="#05070B"/>
<stop offset="1" stop-color="#3B3B3E"/>
</linearGradient>
<linearGradient id="paint9_linear_2016_309" x1="95.5" y1="12" x2="95.5" y2="44" gradientUnits="userSpaceOnUse">
<stop stop-color="#05070B"/>
<stop offset="1" stop-color="#3B3B3E"/>
</linearGradient>
<linearGradient id="paint10_linear_2016_309" x1="95.5" y1="12" x2="95.5" y2="44" gradientUnits="userSpaceOnUse">
<stop stop-color="#05070B"/>
<stop offset="1" stop-color="#3B3B3E"/>
</linearGradient>
<linearGradient id="paint11_linear_2016_309" x1="95.5" y1="12" x2="95.5" y2="44" gradientUnits="userSpaceOnUse">
<stop stop-color="#05070B"/>
<stop offset="1" stop-color="#3B3B3E"/>
</linearGradient>
<linearGradient id="paint12_linear_2016_309" x1="95.5" y1="12" x2="95.5" y2="44" gradientUnits="userSpaceOnUse">
<stop stop-color="#05070B"/>
<stop offset="1" stop-color="#3B3B3E"/>
</linearGradient>
<linearGradient id="paint13_linear_2016_309" x1="95.5" y1="12" x2="95.5" y2="44" gradientUnits="userSpaceOnUse">
<stop stop-color="#05070B"/>
<stop offset="1" stop-color="#3B3B3E"/>
</linearGradient>
<linearGradient id="paint14_linear_2016_309" x1="95.5" y1="12" x2="95.5" y2="44" gradientUnits="userSpaceOnUse">
<stop stop-color="#05070B"/>
<stop offset="1" stop-color="#3B3B3E"/>
</linearGradient>
</defs>
</svg>
