<svg width="24" height="24" viewBox="0 0 32 32" fill="none" xmlns="http://www.w3.org/2000/svg">
<rect width="32" height="32" rx="12" fill="url(#paint0_linear_nav)"/>
<path d="M8 18.0004C8 18.0004 8.50697 14.0001 12 14C15.4929 13.9999 16.507 18 20 18C23.4929 18.0001 24 14.0004 24 14.0004" stroke="url(#paint1_linear_nav)" stroke-width="4" stroke-linecap="round"/>
<path d="M11.9999 12C14.6043 12 16.2656 13.5619 17.3271 14.5039C18.5192 15.5619 19.1116 16 19.9999 16C20.7965 16 21.2303 15.6167 21.5673 15.0186C21.7452 14.7029 21.8635 14.3675 21.9365 14.0996C21.9718 13.9699 21.9935 13.8657 22.0058 13.8008L22.0175 13.7373C22.162 12.6476 23.1599 11.8782 24.2519 12.0166C25.3475 12.1557 26.1232 13.1563 25.9843 14.252L23.9999 14C25.9841 14.2516 25.9844 14.253 25.9843 14.2539L25.9833 14.2559C25.9832 14.257 25.9835 14.2586 25.9833 14.2598C25.983 14.2624 25.9828 14.2654 25.9824 14.2686C25.9815 14.275 25.9796 14.2826 25.9785 14.291C25.9761 14.3079 25.9735 14.329 25.9697 14.3535C25.962 14.4027 25.951 14.4669 25.9365 14.5439C25.9074 14.6977 25.8625 14.9056 25.7958 15.1504C25.6646 15.6324 25.4382 16.2982 25.0527 16.9824C24.2629 18.384 22.6961 20 19.9999 20C17.3956 20 15.7342 18.4381 14.6728 17.4961C13.4807 16.4381 12.8882 16 11.9999 16C11.2036 16 10.7696 16.3832 10.4326 16.9814C10.2547 17.2971 10.1364 17.6325 10.0634 17.9004C10.028 18.0305 10.0064 18.1353 9.99408 18.2002C9.98799 18.2324 9.98383 18.2543 9.98237 18.2637C9.98254 18.2623 9.98311 18.2596 9.98334 18.2578C9.98346 18.2569 9.98321 18.2559 9.98334 18.2549L9.98432 18.2539L9.98334 18.2529C9.84392 19.348 8.8442 20.1229 7.74897 19.9844C6.6532 19.8455 5.87677 18.8448 6.01557 17.749L7.99994 18C6.01586 17.7486 6.01546 17.7479 6.01557 17.7471L6.01655 17.7451C6.01669 17.744 6.01638 17.7425 6.01655 17.7412C6.01689 17.7385 6.0171 17.7356 6.01752 17.7324C6.01839 17.7259 6.02023 17.7184 6.02143 17.71C6.02382 17.693 6.02639 17.672 6.03022 17.6475C6.03788 17.5983 6.04884 17.5341 6.06342 17.457C6.09251 17.3032 6.13735 17.0946 6.20405 16.8496C6.33531 16.3675 6.56185 15.7027 6.94721 15.0186C7.73685 13.6168 9.30345 12 11.9999 12Z" fill="url(#paint2_linear_nav)"/>
<defs>
<linearGradient id="paint0_linear_nav" x1="16" y1="0" x2="16" y2="32" gradientUnits="userSpaceOnUse">
<stop stop-color="#05070B"/>
<stop offset="1" stop-color="#3B3B3E"/>
</linearGradient>
<linearGradient id="paint1_linear_nav" x1="8" y1="20" x2="24.5" y2="12" gradientUnits="userSpaceOnUse">
<stop stop-color="#F7F8FF"/>
<stop offset="1" stop-color="#F3F3FF"/>
</linearGradient>
<linearGradient id="paint2_linear_nav" x1="5.99951" y1="23.9995" x2="29.3313" y2="16.9286" gradientUnits="userSpaceOnUse">
<stop stop-color="#F7F8FF"/>
<stop offset="1" stop-color="#F3F3FF"/>
</linearGradient>
</defs>
</svg>